<?xml version="1.0" encoding="UTF-8" standalone="no"?>
<!-- Created with Inkscape (http://www.inkscape.org/) -->

<svg
   xmlns:dc="http://purl.org/dc/elements/1.1/"
   xmlns:cc="http://creativecommons.org/ns#"
   xmlns:rdf="http://www.w3.org/1999/02/22-rdf-syntax-ns#"
   xmlns:svg="http://www.w3.org/2000/svg"
   xmlns="http://www.w3.org/2000/svg"
   xmlns:sodipodi="http://sodipodi.sourceforge.net/DTD/sodipodi-0.dtd"
   xmlns:inkscape="http://www.inkscape.org/namespaces/inkscape"
   width="82.892693mm"
   height="82.892693mm"
   viewBox="0 0 293.71426 293.71425"
   id="svg2"
   version="1.1"
   inkscape:version="0.91 r13725"
   sodipodi:docname="black_white_warbler.svg">
  <defs
     id="defs4" />
  <sodipodi:namedview
     id="base"
     pagecolor="#ffffff"
     bordercolor="#666666"
     borderopacity="1.0"
     inkscape:pageopacity="0.0"
     inkscape:pageshadow="2"
     inkscape:zoom="1.979899"
     inkscape:cx="118.32188"
     inkscape:cy="163.26003"
     inkscape:document-units="px"
     inkscape:current-layer="layer1"
     showgrid="false"
     fit-margin-top="0"
     fit-margin-left="0"
     fit-margin-right="0"
     fit-margin-bottom="0"
     inkscape:window-width="1920"
     inkscape:window-height="1017"
     inkscape:window-x="-8"
     inkscape:window-y="-8"
     inkscape:window-maximized="1" />
  <metadata
     id="metadata7">
    <rdf:RDF>
      <cc:Work
         rdf:about="">
        <dc:format>image/svg+xml</dc:format>
        <dc:type
           rdf:resource="http://purl.org/dc/dcmitype/StillImage" />
        <dc:title></dc:title>
      </cc:Work>
    </rdf:RDF>
  </metadata>
  <g
     inkscape:label="Layer 1"
     inkscape:groupmode="layer"
     id="layer1"
     transform="translate(-2205.2093,555.62592)">
    <rect
       style="fill:#829e6d;fill-opacity:1;stroke:#ffffff;stroke-width:8;stroke-linecap:round;stroke-linejoin:round;stroke-miterlimit:4;stroke-dasharray:none;stroke-dashoffset:0;stroke-opacity:0"
       id="rect4399"
       width="285.71426"
       height="285.71426"
       x="-2494.9236"
       y="-551.62592"
       ry="29.94739"
       inkscape:export-filename="E:\INFO\Ornitho\app\src\main\res\mipmap-mdpi\ornitho_launcher.png"
       inkscape:export-xdpi="14.71"
       inkscape:export-ydpi="14.71"
       transform="scale(-1,1)" />
    <path
       style="fill:#000000;fill-opacity:1;fill-rule:evenodd;stroke:#000000;stroke-width:1px;stroke-linecap:round;stroke-linejoin:round;stroke-opacity:1"
       d="M 46.828125 39.142578 C 44.245525 38.936178 43.772525 44.330791 44.640625 47.369141 C 38.832225 44.717491 32.185112 43.296367 38.070312 52.148438 C 43.955412 61.000508 57.991453 74.215689 65.876953 88.417969 C 73.762453 102.62025 76.811141 111.61452 82.306641 129.31055 C 87.802141 147.00658 82.523341 160.45639 91.056641 179.13281 C 99.589941 197.80924 109.19473 198.55299 114.24023 203.16602 C 119.28573 207.77905 128.82067 222.332 125.60938 221.63281 C 122.39817 220.93363 97.483509 220.11383 108.28711 232.70312 C 108.19811 225.64956 116.98772 226.48625 123.82422 227.61523 C 130.66062 228.74421 128.29316 233.32574 134.16406 238.21289 C 140.03496 243.10004 141.31158 250.51091 139.35938 254.57812 C 152.57368 252.43527 136.50195 229.40039 136.50195 229.40039 C 136.50195 229.40039 148.01985 234.49023 149.00195 234.49023 C 149.26985 229.75808 141.64173 228.97836 136.14453 223.95312 C 130.64733 218.92789 121.5918 204.84766 121.5918 204.84766 C 121.5918 204.84766 160.30555 218.97123 179.62695 219.66797 C 198.94835 220.36471 234.64062 206.44141 234.64062 206.44141 C 239.43883 208.96679 256.03534 220.64484 257.80664 219.07031 C 259.57804 217.49577 242.61914 200.41406 242.61914 200.41406 C 244.22624 193.09263 243.70381 180.16829 232.66211 170.56055 C 221.62041 160.95281 213.97731 157.11496 205.25391 154.11523 C 200.99221 152.64974 191.37046 141.23176 177.97656 131.78516 C 164.58266 122.33855 148.40446 119.67602 133.28906 100.36914 C 118.17366 81.062261 113.38082 97.045011 93.291016 75.113281 C 73.201216 53.181561 83.31165 81.372909 76.65625 74.699219 C 70.00095 68.025529 58.504716 53.741028 51.728516 43.642578 C 49.610916 40.486818 48.002025 39.236398 46.828125 39.142578 z M 89.990234 105.92188 C 91.628334 105.813 93.440881 107.18194 95.238281 110.66211 C 102.42798 124.58278 116.83913 143.53545 127.39453 158.55469 C 136.75373 171.87189 150.28403 185.58187 155.99023 190.23242 C 161.69653 194.88297 167.63001 197.39443 170.84961 198.30078 C 197.29461 205.74549 176.89623 203.58589 163.14453 199.88477 C 152.77663 197.09438 134.96096 189.30673 122.00586 183.32812 C 118.70266 182.04055 115.93025 180.92171 114.62305 180.29102 C 108.10285 177.14513 95.944703 176.87487 109.5957 184.66602 C 111.5609 185.78769 120.3552 189.51019 124.1543 191.03711 C 143.3809 198.76445 153.33234 204.87263 179.77734 209.54883 C 206.22234 214.22504 185.82592 214.20091 172.07422 211.93945 C 158.32252 209.67799 131.44236 199.98849 120.22266 195.76758 C 116.90406 194.5191 107.47144 190.85819 104.71094 189.10352 C 94.244538 182.45068 90.264366 166.59578 89.572266 161.15234 C 88.222466 150.53786 89.843497 142.60495 85.216797 129.61133 C 81.746797 119.86611 85.076034 106.24848 89.990234 105.92188 z M 146.94141 121.41797 C 147.85911 121.48097 148.51524 122.28735 148.58594 123.84961 C 148.79264 128.4142 146.38959 130.87483 145.42969 146.64062 C 146.99659 151.02531 145.4407 154.73724 151.3418 173.28906 C 157.4704 192.55672 142.16121 166.2435 140.28711 156.20703 C 139.45771 151.76564 139.96307 148.38164 140.94727 146.38281 C 140.28207 141.03344 139.96904 135.16648 140.52734 131.67188 C 141.63474 124.74036 144.92231 121.2794 146.94141 121.41797 z M 170.78906 136.8418 C 174.70156 136.8224 185.33598 139.85962 189.52148 143 C 196.21838 148.02468 196.18115 155.06546 192.53125 153.58008 C 188.88135 152.09476 188.08276 148.41184 173.85156 140.81445 C 168.51476 137.96541 168.44156 136.85344 170.78906 136.8418 z M 164.89648 145.05664 C 168.80908 145.03724 179.44331 148.07251 183.62891 151.21289 C 190.32581 156.23757 190.28662 163.27835 186.63672 161.79297 C 182.98682 160.30765 182.18823 156.62669 167.95703 149.0293 C 162.62023 146.18025 162.54898 145.06828 164.89648 145.05664 z M 204.49219 156.77734 C 206.00983 156.7348 222.95416 164.29318 230.45703 171.16797 C 238.20193 178.26452 242.17041 191.41531 241.6582 191.97461 C 241.14577 192.53356 236.34646 180.28991 228.60156 173.19336 C 220.85666 166.09681 203.88044 157.36391 204.39258 156.80469 C 204.40859 156.78722 204.44323 156.77872 204.49219 156.77734 z M 197.96094 162.2168 C 199.32254 162.1319 201.77144 163.39246 205.90234 166.875 C 217.91954 177.00602 237.77221 193.07331 238.25781 197.16602 C 238.74341 201.25875 235.75385 200.99781 233.81445 199.74609 C 231.87515 198.49437 230.34907 195.56641 227.75977 193.06641 C 228.56337 197.17356 221.19247 203.03611 215.70117 198.46875 C 210.20987 193.90138 214.80002 189.36083 214.66602 187.30664 C 214.53202 185.25245 199.73497 177.17475 197.91797 171.29883 C 196.72557 167.44275 195.36154 162.37897 197.96094 162.2168 z M 163.49023 163.63867 C 164.09433 163.53192 165.53529 164.43419 168.11719 166.83984 C 179.92009 177.8371 183.66295 177.39835 186.25195 180.36914 C 188.84095 183.33989 182.19288 185.65996 175.26758 180.95508 C 169.85718 177.27936 161.33273 164.01992 163.49023 163.63867 z M 158.23633 170.21289 C 158.86953 170.15099 160.07741 171.42316 162.03711 174.66797 C 170.99571 189.5014 174.86224 189.3895 176.68164 193.32812 C 178.50104 197.26675 171.23203 199.35325 165.51953 192.79297 C 161.05663 187.66774 155.97473 170.43407 158.23633 170.21289 z M 221.01172 187.79492 C 218.67042 187.79465 216.77218 189.71218 216.77148 192.07812 C 216.77108 194.44484 218.66972 196.36355 221.01172 196.36328 C 223.35292 196.36238 225.2504 194.444 225.25 192.07812 C 225.2493 189.71301 223.35222 187.79582 221.01172 187.79492 z M 227.47461 201.53906 C 229.21611 201.49766 229.99357 201.86615 230.10938 203.29688 C 230.41827 207.11214 218.46986 205.18912 210.41016 206.83203 C 202.35046 208.47494 193.89149 201.10824 209.33789 202.16016 C 218.99189 202.81761 224.57201 201.60814 227.47461 201.53906 z "
       transform="translate(2205.2093,-555.62592)"
       id="path4172" />
  </g>
</svg>
