<?xml version="1.0" encoding="UTF-8" standalone="no"?>
<!-- Created with Inkscape (http://www.inkscape.org/) -->

<svg
   xmlns:dc="http://purl.org/dc/elements/1.1/"
   xmlns:cc="http://creativecommons.org/ns#"
   xmlns:rdf="http://www.w3.org/1999/02/22-rdf-syntax-ns#"
   xmlns:svg="http://www.w3.org/2000/svg"
   xmlns="http://www.w3.org/2000/svg"
   xmlns:sodipodi="http://sodipodi.sourceforge.net/DTD/sodipodi-0.dtd"
   xmlns:inkscape="http://www.inkscape.org/namespaces/inkscape"
   width="82.892693mm"
   height="82.892693mm"
   viewBox="0 0 293.71426 293.71425"
   id="svg2"
   version="1.1"
   inkscape:version="0.91 r13725"
   sodipodi:docname="cardinal.svg">
  <defs
     id="defs4" />
  <sodipodi:namedview
     id="base"
     pagecolor="#ffffff"
     bordercolor="#666666"
     borderopacity="1.0"
     inkscape:pageopacity="0.0"
     inkscape:pageshadow="2"
     inkscape:zoom="2.8"
     inkscape:cx="171.97772"
     inkscape:cy="138.82559"
     inkscape:document-units="px"
     inkscape:current-layer="layer1"
     showgrid="false"
     fit-margin-top="0"
     fit-margin-left="0"
     fit-margin-right="0"
     fit-margin-bottom="0"
     inkscape:window-width="1920"
     inkscape:window-height="1017"
     inkscape:window-x="-8"
     inkscape:window-y="-8"
     inkscape:window-maximized="1" />
  <metadata
     id="metadata7">
    <rdf:RDF>
      <cc:Work
         rdf:about="">
        <dc:format>image/svg+xml</dc:format>
        <dc:type
           rdf:resource="http://purl.org/dc/dcmitype/StillImage" />
        <dc:title />
      </cc:Work>
    </rdf:RDF>
  </metadata>
  <g
     inkscape:label="Layer 1"
     inkscape:groupmode="layer"
     id="layer1"
     transform="translate(-2639.1112,165.53407)">
    <rect
       style="fill:#829e6d;fill-opacity:1;stroke:#ffffff;stroke-width:8;stroke-linecap:round;stroke-linejoin:round;stroke-miterlimit:4;stroke-dasharray:none;stroke-dashoffset:0;stroke-opacity:0"
       id="rect4411"
       width="285.71426"
       height="285.71426"
       x="2643.1111"
       y="-161.53407"
       ry="29.94739"
       inkscape:export-filename="E:\INFO\Ornitho\app\src\main\res\mipmap-mdpi\ornitho_launcher.png"
       inkscape:export-xdpi="14.71"
       inkscape:export-ydpi="14.71" />
    <path
       style="fill:#000000;fill-opacity:1;fill-rule:evenodd;stroke:#000000;stroke-width:1px;stroke-linecap:round;stroke-linejoin:round;stroke-opacity:1"
       d="m 2902.426,-62.195715 c 0,2.94e-4 -7.2812,-6.066873 -15.1522,-8.333759 -2.4345,-5.087001 -10.3116,-16.156498 -21.226,-25.427141 -16.2321,-13.787445 -35.2201,-18.241345 -16.0234,-7.781625 19.1966,10.459719 -18.6099,-6.68558 -4.0406,1.2627 14.5692,7.948276 -7.8137,0.18379 -0.5051,4.040603 7.3086,3.856816 -3.6193,13.878808 -0.8839,19.445436 2.7354,5.566627 -3.1567,7.954952 -8.2074,21.71828 -15.026,2.272844 -26.4147,11.493357 -41.1638,17.930207 -14.7491,6.43685 -20.7624,14.697924 -39.1434,22.09709 -18.381,7.3991661 -40.7038,11.9233317 -64.271,17.55139456 -23.5672,5.62806294 -28.7447,27.70742044 -13.2582,24.11739844 15.4865,-3.590021 31.9981,-11.147548 43.4366,-14.14214 11.4385,-2.9945912 17.52,-4.0486834 16.5412,-0.252533 -0.9789,3.796151 -7.562,9.627324 -1.0101,8.965098 6.5519,-0.662225 12.8463,-2.521178 20.7081,-1.262685 7.8618,1.258493 14.1481,7.994783 20.5818,9.470178 6.4337,1.475395 10.2669,-0.615056 13.2583,0.126263 2.9914,0.741319 -5.4191,7.861758 1.3889,9.975259 6.808,2.1135 15.5328,20.010187 15.1524,22.728432 -0.3804,2.718245 -11.3642,3.156725 -11.8693,4.798223 2.3991,1.894036 11.8806,-0.759645 17.4251,0.883887 5.5446,1.643532 13.8895,6.439721 13.8895,6.439721 l -7.071,-6.818533 c 0,0 7.4137,0.846526 10.9778,1.651475 3.564,0.80495 9.5968,3.731992 9.5968,3.731992 0,0 -2.5292,-3.287171 -5.7298,-4.866917 -3.2007,-1.579745 7.157,-0.262603 0.3467,-2.319122 -6.8103,-2.056518 -20.9998,-3.500724 -20.9998,-3.500724 0,0 -12.7221,-19.480188 -11.1117,-25.253816 1.6104,-5.773628 3.6367,-6.215733 7.9549,-6.313447 4.3182,-0.09771 8.0738,-0.993302 10.6066,-1.010161 2.5327,-0.01686 -4.2391,3.136804 0.3788,4.9245 4.618,1.787696 12.1218,16.288715 15.6574,22.349625 3.5355,6.06091 -9.5198,5.703767 -8.8885,7.597803 2.3991,0.378807 10.6194,-0.778343 16.9697,0.230874 6.3502,1.009217 17.9302,5.808383 17.9302,5.808383 0,-1.262691 -4.1822,-4.678303 -4.1822,-4.678303 2.2322,0.357143 8.076,1.044506 11.3796,2.026649 -0.5717,-1.414203 -3.9253,-2.835543 -6.0486,-3.965371 -2.1233,-1.129828 3.3178,-0.666363 0.083,-1.750672 -3.2344,-1.084308 -13.1823,-1.239223 -17.142,-1.860098 -6.2132,-0.974218 -8.3476,-9.072408 -11.3642,-15.657365 -3.0165,-6.584957 -5.462,-14.068117 0.7576,-17.93021 6.2196,-3.862092 22.1365,-14.6024866 31.1885,-26.263966 9.0519,-11.661479 7.3891,-35.740545 12.6269,-42.300139 5.2378,-6.559593 -0.2059,-11.044774 5.0507,-13.005709 5.2566,-1.960935 12.3744,-3.030461 15.4048,-5.177035 z"
       id="path10320"
       inkscape:connector-curvature="0"
       sodipodi:nodetypes="ccszzzzczzzzzzzzzzzzczcczczzczzzzzczccczzszzzzzcc" />
  </g>
</svg>
