<?xml version="1.0" encoding="UTF-8" standalone="no"?>
<!-- Created with Inkscape (http://www.inkscape.org/) -->

<svg
   xmlns:dc="http://purl.org/dc/elements/1.1/"
   xmlns:cc="http://creativecommons.org/ns#"
   xmlns:rdf="http://www.w3.org/1999/02/22-rdf-syntax-ns#"
   xmlns:svg="http://www.w3.org/2000/svg"
   xmlns="http://www.w3.org/2000/svg"
   xmlns:sodipodi="http://sodipodi.sourceforge.net/DTD/sodipodi-0.dtd"
   xmlns:inkscape="http://www.inkscape.org/namespaces/inkscape"
   width="82.892693mm"
   height="82.892693mm"
   viewBox="0 0 293.71426 293.71425"
   id="svg2"
   version="1.1"
   inkscape:version="0.91 r13725"
   sodipodi:docname="chickadee.svg">
  <defs
     id="defs4" />
  <sodipodi:namedview
     id="base"
     pagecolor="#ffffff"
     bordercolor="#666666"
     borderopacity="1.0"
     inkscape:pageopacity="0.0"
     inkscape:pageshadow="2"
     inkscape:zoom="1.4"
     inkscape:cx="156.81777"
     inkscape:cy="181.28966"
     inkscape:document-units="px"
     inkscape:current-layer="layer1"
     showgrid="false"
     fit-margin-top="0"
     fit-margin-left="0"
     fit-margin-right="0"
     fit-margin-bottom="0"
     inkscape:window-width="1920"
     inkscape:window-height="1017"
     inkscape:window-x="-8"
     inkscape:window-y="-8"
     inkscape:window-maximized="1" />
  <metadata
     id="metadata7">
    <rdf:RDF>
      <cc:Work
         rdf:about="">
        <dc:format>image/svg+xml</dc:format>
        <dc:type
           rdf:resource="http://purl.org/dc/dcmitype/StillImage" />
        <dc:title />
      </cc:Work>
    </rdf:RDF>
  </metadata>
  <g
     inkscape:label="Layer 1"
     inkscape:groupmode="layer"
     id="layer1"
     transform="translate(-2205.2093,-224.55765)">
    <rect
       style="fill:#829e6d;fill-opacity:1;stroke:#ffffff;stroke-width:8;stroke-linecap:round;stroke-linejoin:round;stroke-miterlimit:4;stroke-dasharray:none;stroke-dashoffset:0;stroke-opacity:0"
       id="rect4403"
       width="285.71426"
       height="285.71426"
       x="-2494.9236"
       y="228.55765"
       ry="29.94739"
       inkscape:export-filename="E:\INFO\Ornitho\app\src\main\res\mipmap-mdpi\ornitho_launcher.png"
       inkscape:export-xdpi="14.71"
       inkscape:export-ydpi="14.71"
       transform="scale(-1,1)" />
    <g
       id="g4720"
       transform="translate(33.492835,-13.955401)">
      <path
         sodipodi:nodetypes="ssssssssssscczscszzzssscsscccssscscscccsscsscsscssc"
         inkscape:connector-curvature="0"
         id="path4709"
         transform="translate(2205.2093,224.55765)"
         d="m 177.74609,94.40625 c -8.78885,-0.067 -16.09379,4.312331 -24.79492,9.97852 -9.2812,6.04393 -11.30323,14.4778 -26.11523,22.35351 -14.8119,7.87571 -35.423218,19.82293 -43.541018,27.26563 -8.1178,7.4427 -9.99365,13.64661 -23.09375,17.78906 -13.1001,4.14245 -22.604228,6.9202 -38.423828,13.22461 -15.8197003,6.3044 5.637269,13.36568 20.542968,7.54101 14.905601,-5.82467 26.963988,-11.50694 37.367188,-15.46875 10.4033,-3.96181 7.278925,0.13748 16.265625,0.35157 8.986605,0.21408 14.865005,6.0489 26.099605,9.94921 11.2346,3.90031 14.79382,3.23063 19.63672,4.81836 4.8428,1.58773 9.01609,6.18328 7.39649,9.54297 -1.6197,3.35969 -12.41602,0.78125 -12.41602,0.78125 4.1424,7.84746 21.52994,1.07517 11.99397,5.54435 -9.53597,4.46918 -6.82509,3.60877 0.90447,2.49081 7.52661,-1.08861 10.72294,-9.62138 10.72294,-9.62138 0,0 3.43737,0.22932 6.90987,2.12333 3.4725,1.89401 11.26366,6.68903 11.9986,9.93695 0.73494,3.24792 -0.35989,4.69798 -6.44767,5.78956 -6.08779,1.09157 9.97632,0.56253 5.48519,1.51831 -4.49113,0.95577 -6.98463,2.74296 -4.52356,2.67482 0,0 6.5865,1.24547 9.1808,-2.16768 2.5943,-3.41315 3.25876,-6.8685 1.10156,-10.91993 -2.1572,-4.05143 -15.30273,-11.23242 -15.30273,-11.23242 0,0 22.91252,-10.21811 29.16992,-18.97656 6.2573,-8.75845 7.44108,-21.91052 6.36328,-29.26367 -1.0778,-7.35316 0.44727,-14.80664 0.44727,-14.80664 l 5.83789,-1.08008 -5.53906,-7.11524 c 0,0 1.17529,-14.23717 -3.00391,-20.84375 -4.1792,-6.606576 -12.84571,-11.384681 -22.44531,-12.103511 -0.59998,-0.04493 -1.19142,-0.06975 -1.77735,-0.07422 z m -16.92187,8.58398 c 5.5357,2.5 2.32551,9.12134 11.91211,17.48243 9.5866,8.36109 22.98003,3.53693 23.99023,10.35546 0,0 -14.11198,7.62874 -24.24218,6.3125 -10.13021,-1.31623 -31.84017,-14.1303 -31.57227,-17.79101 6.9643,-8.03571 15.44781,-15.02009 19.91211,-16.35938 z m 1.38281,35.47266 c 0.79246,-0.0179 1.60296,0.004 2.43555,0.0723 13.3214,1.08873 6.30425,5.59393 16.78515,9.10742 10.4809,3.51348 20,1.25 20,1.25 1.25,11.07143 -1.201,22.9 -7.5,29.64258 -6.2989,6.74258 -14.66833,11.44009 -20.17773,14.28711 -5.5094,2.84702 -13.03516,4.28515 -13.03516,4.28515 0,0 -2.74612,-5.82856 -10.35742,-8.57226 -7.6114,-2.7437 -16.65382,0.86166 -26.60742,-3.39258 -9.9537,-4.25423 -20.53516,-9.64258 -20.53516,-9.64258 -5.535692,-10.17857 -2.68476,-15.93175 18.92774,-21.78516 20.26172,-5.48757 28.17756,-14.98349 40.06445,-15.25195 z"
         style="fill:#000000;fill-opacity:1;fill-rule:evenodd;stroke:#000000;stroke-width:1px;stroke-linecap:round;stroke-linejoin:round;stroke-opacity:1" />
      <rect
         transform="matrix(0.89510068,0.44586408,-0.44586408,0.89510068,0,0)"
         ry="3.5714417"
         y="-673.96582"
         x="2281.3533"
         height="12.064592"
         width="63.448517"
         id="rect4718"
         style="fill:#000000;fill-opacity:1;stroke:#000000;stroke-width:1;stroke-linecap:round;stroke-linejoin:round;stroke-miterlimit:4;stroke-dasharray:none;stroke-dashoffset:0;stroke-opacity:1" />
    </g>
  </g>
</svg>
