<?xml version="1.0" encoding="UTF-8" standalone="no"?>
<!-- Created with Inkscape (http://www.inkscape.org/) -->

<svg
   xmlns:dc="http://purl.org/dc/elements/1.1/"
   xmlns:cc="http://creativecommons.org/ns#"
   xmlns:rdf="http://www.w3.org/1999/02/22-rdf-syntax-ns#"
   xmlns:svg="http://www.w3.org/2000/svg"
   xmlns="http://www.w3.org/2000/svg"
   xmlns:sodipodi="http://sodipodi.sourceforge.net/DTD/sodipodi-0.dtd"
   xmlns:inkscape="http://www.inkscape.org/namespaces/inkscape"
   width="82.892693mm"
   height="82.892693mm"
   viewBox="0 0 293.71426 293.71425"
   id="svg2"
   version="1.1"
   inkscape:version="0.91 r13725"
   sodipodi:docname="chipping_sparrow.svg">
  <defs
     id="defs4" />
  <sodipodi:namedview
     id="base"
     pagecolor="#ffffff"
     bordercolor="#666666"
     borderopacity="1.0"
     inkscape:pageopacity="0.0"
     inkscape:pageshadow="2"
     inkscape:zoom="1.4"
     inkscape:cx="15.780748"
     inkscape:cy="201.25647"
     inkscape:document-units="px"
     inkscape:current-layer="layer1"
     showgrid="false"
     fit-margin-top="0"
     fit-margin-left="0"
     fit-margin-right="0"
     fit-margin-bottom="0"
     inkscape:window-width="1920"
     inkscape:window-height="1017"
     inkscape:window-x="-8"
     inkscape:window-y="-8"
     inkscape:window-maximized="1" />
  <metadata
     id="metadata7">
    <rdf:RDF>
      <cc:Work
         rdf:about="">
        <dc:format>image/svg+xml</dc:format>
        <dc:type
           rdf:resource="http://purl.org/dc/dcmitype/StillImage" />
        <dc:title></dc:title>
      </cc:Work>
    </rdf:RDF>
  </metadata>
  <g
     inkscape:label="Layer 1"
     inkscape:groupmode="layer"
     id="layer1"
     transform="translate(-2205.2093,555.62592)">
    <rect
       style="fill:#829e6d;fill-opacity:1;stroke:#ffffff;stroke-width:8;stroke-linecap:round;stroke-linejoin:round;stroke-miterlimit:4;stroke-dasharray:none;stroke-dashoffset:0;stroke-opacity:0"
       id="rect4399"
       width="285.71426"
       height="285.71426"
       x="-2494.9236"
       y="-551.62592"
       ry="29.94739"
       inkscape:export-filename="E:\INFO\Ornitho\app\src\main\res\mipmap-mdpi\ornitho_launcher.png"
       inkscape:export-xdpi="14.71"
       inkscape:export-ydpi="14.71"
       transform="scale(-1,1)" />
    <path
       style="fill:#000000;fill-opacity:1;fill-rule:evenodd;stroke:#000000;stroke-width:0.58462715px;stroke-linecap:round;stroke-linejoin:round;stroke-opacity:1"
       d="m 2424.0655,-498.69997 c -11.5828,0.2706 -15.9217,12.19356 -22.8952,15.60337 -7.6949,3.76256 -8.8277,18.76799 -21.0626,26.94195 -12.2348,8.17396 -39.3552,36.88752 -51.2759,48.85291 -11.9206,11.96538 -23.7674,28.48605 -33.4116,37.33963 -9.6442,8.85359 7.5652,1.86958 1.5631,6.79972 -6.002,4.93014 -37.4307,21.75192 -51.8217,32.33262 -13.5141,9.9361 4.2109,9.93371 13.757,4.21115 0.4876,-0.61529 1.077,-1.05691 1.7448,-1.1841 -0.5397,0.41824 -1.1255,0.81285 -1.7448,1.1841 -2.9081,3.66995 -2.0389,13.73156 9.4957,2.9494 13.4684,-12.58985 44.6254,-33.42683 47.2908,-34.88352 2.6654,-1.45669 17.3786,-8.06138 28.5086,-4.8049 11.13,3.25647 27.6035,11.09144 36.2686,12.6574 0,0 4.6215,5.69722 1.441,5.7515 -3.1805,0.0543 -11.4299,3.06293 -10.6992,9.53559 3.654,-4.5935 17.0848,-8.75733 22.096,-8.65294 0,0 -5.4798,3.47759 -4.0182,9.42826 3.132,-6.68146 13.8259,-8.24949 22.9249,-10.08825 9.0991,-1.83876 25.3548,1.54606 25.3548,1.54606 -2.8187,-5.63747 -10.2985,-4.73814 -13.8415,-4.45892 -3.5431,0.27923 -21.0135,-9.27981 -21.0135,-9.27981 0,0 28.7067,-13.74562 37.616,-26.32307 8.9093,-12.57745 15.5869,-35.58127 15.5018,-44.43966 -0.085,-8.85838 -3.2257,-19.41445 -3.6471,-26.19061 -0.4214,-6.77615 -0.018,-14.79952 -0.018,-14.79952 0,0 11.5848,-3.76778 11.6891,-4.81175 0.1045,-1.04398 -10.9556,-6.0598 -14.7138,-7.52137 0.4175,-1.67036 -6.6996,-14.78358 -21.251,-17.38352 -1.3642,-0.24374 -2.6395,-0.33972 -3.8378,-0.31172 z m -3.5808,15.94821 c 7.924,-0.026 25.0616,1.54685 25.0248,4.42924 -0.037,2.88238 -9.7024,8.21207 -7.5294,8.48965 2.173,0.27758 11.221,1.4022 11.221,1.4022 0,0 -0.651,6.09794 -0.4431,14.76411 0.2079,8.66618 4.7376,24.37697 1.771,36.9103 -2.9665,12.53334 -10.3,29.52211 -21.9977,39.27279 -11.6976,9.75068 -43.2511,25.38426 -51.9702,21.5547 -8.7189,-3.82956 -53.8929,-14.16229 -34.6916,-20.95865 19.2012,-6.79637 72.937,-15.51077 91.0157,-32.3155 18.0787,-16.80473 5.3924,-33.9951 -3.292,-35.82326 -8.6844,-1.82816 -20.329,-5.35518 -31.9923,-10.78134 -11.6633,-5.42616 -2.6541,-14.37512 0.4419,-20.29981 3.096,-5.92469 14.5179,-6.61841 22.4419,-6.64443 z m 7.2348,5.34272 a 3.9589807,3.368418 0 0 0 -3.7122,2.20948 c -0.087,-0.004 -0.1606,-0.01 -0.2478,-0.0137 -6.164,-0.28515 -16.3589,2.73583 -20.4277,-0.016 -4.0688,-2.75182 -7.1011,2.14734 -1.1612,5.66129 3.2345,1.9135 12.8399,0.10363 20.7028,-2.76213 0.3533,-0.12876 0.7823,-0.23058 1.2458,-0.31858 a 3.9589807,3.368418 0 0 0 3.6003,1.97654 3.9589807,3.368418 0 0 0 3.7532,-2.30653 c 2.6904,0.0842 4.9795,0.2866 5.2936,0.31857 1.4827,0.15092 0.6966,-1.91896 -0.5218,-1.85436 -0.6315,0.0335 -2.3352,-0.0807 -4.661,-0.23636 a 3.9589807,3.368418 0 0 0 -3.864,-2.65823 z m -30.1186,122.95668 c 0,0 9.0795,5.31589 10.0391,6.05409 -6.6438,-1.62405 -7.6557,0.072 -11.294,-0.14844 -3.6383,-0.22049 -7.1616,0.88572 -9.45,-3.39586 1.7717,0.0738 9.3023,-1.25484 10.7049,-2.50979 z"
       id="path4232"
       inkscape:connector-curvature="0" />
  </g>
</svg>
