<?xml version="1.0" encoding="UTF-8" standalone="no"?>
<!-- Created with Inkscape (http://www.inkscape.org/) -->

<svg
   xmlns:dc="http://purl.org/dc/elements/1.1/"
   xmlns:cc="http://creativecommons.org/ns#"
   xmlns:rdf="http://www.w3.org/1999/02/22-rdf-syntax-ns#"
   xmlns:svg="http://www.w3.org/2000/svg"
   xmlns="http://www.w3.org/2000/svg"
   xmlns:sodipodi="http://sodipodi.sourceforge.net/DTD/sodipodi-0.dtd"
   xmlns:inkscape="http://www.inkscape.org/namespaces/inkscape"
   width="82.892693mm"
   height="82.892693mm"
   viewBox="0 0 293.71426 293.71425"
   id="svg2"
   version="1.1"
   inkscape:version="0.91 r13725"
   sodipodi:docname="cuckoo.svg">
  <defs
     id="defs4" />
  <sodipodi:namedview
     id="base"
     pagecolor="#ffffff"
     bordercolor="#666666"
     borderopacity="1.0"
     inkscape:pageopacity="0.0"
     inkscape:pageshadow="2"
     inkscape:zoom="0.98994949"
     inkscape:cx="323.57721"
     inkscape:cy="103.49902"
     inkscape:document-units="px"
     inkscape:current-layer="layer1"
     showgrid="false"
     fit-margin-top="0"
     fit-margin-left="0"
     fit-margin-right="0"
     fit-margin-bottom="0"
     inkscape:window-width="1920"
     inkscape:window-height="1017"
     inkscape:window-x="-8"
     inkscape:window-y="-8"
     inkscape:window-maximized="1" />
  <metadata
     id="metadata7">
    <rdf:RDF>
      <cc:Work
         rdf:about="">
        <dc:format>image/svg+xml</dc:format>
        <dc:type
           rdf:resource="http://purl.org/dc/dcmitype/StillImage" />
        <dc:title />
      </cc:Work>
    </rdf:RDF>
  </metadata>
  <g
     inkscape:label="Layer 1"
     inkscape:groupmode="layer"
     id="layer1"
     transform="translate(-903.50383,555.62591)">
    <rect
       inkscape:export-ydpi="14.71"
       inkscape:export-xdpi="14.71"
       inkscape:export-filename="E:\INFO\Ornitho\app\src\main\res\mipmap-mdpi\ornitho_launcher.png"
       ry="29.94739"
       y="-551.62592"
       x="907.50372"
       height="285.71426"
       width="285.71426"
       id="rect4369"
       style="fill:#829e6d;fill-opacity:1;stroke:#ffffff;stroke-width:8;stroke-linecap:round;stroke-linejoin:round;stroke-miterlimit:4;stroke-dasharray:none;stroke-dashoffset:0;stroke-opacity:0" />
    <path
       style="fill:#000000;fill-opacity:1;fill-rule:evenodd;stroke:#000000;stroke-width:0.86119556;stroke-linecap:round;stroke-linejoin:round;stroke-miterlimit:4;stroke-dasharray:none;stroke-opacity:1"
       d="m 1063.958,-530.94482 c -3.2501,-0.0112 -7.1278,0.54292 -11.7178,2.14458 -14.6881,5.12527 -12.0856,19.84278 -15.7605,26.75676 -3.6748,6.914 -18.2598,9.35037 -18.9606,29.18057 -0.7007,19.83021 -1.8827,36.80972 1.402,66.97225 3.2846,30.16253 -11.5137,83.4921 -13.4848,102.81447 -1.9711,19.32236 12.9899,22.50856 17.25,5.02252 4.26,-17.48604 7.2265,-40.66744 12.1484,-56.88853 4.9219,-16.22108 31.461,-67.18126 35.5352,-91.87963 4.0742,-24.69838 -1.6724,-38.63604 0.031,-50.79035 1.7035,-12.15431 4.6623,-19.50127 9.0594,-21.87555 4.3965,-2.37404 16.0011,-5.21788 16.0035,-5.21847 -1.9223,-4.69044 -15.4202,-2.52392 -18.2793,-3.07221 -1.9656,-0.37697 -6.0764,-3.14123 -13.2267,-3.16641 z m 24.0235,5.98294 c 1.1793,-0.01 2.1272,0.0821 2.7713,0.29352 0,0 -12.3524,1.81721 -16.1601,7.32689 -3.8077,5.50968 -6.1311,15.20177 -6.6297,23.67026 -0.4987,8.4685 1.8701,17.01719 1.8275,25.79971 -0.044,8.7825 0.466,16.31343 -2.6096,26.23029 -3.0757,9.91686 -21.4461,47.70723 -28.3895,47.42416 -6.9436,-0.28306 -7.2555,-45.38909 -7.7068,-54.54667 -0.4512,-9.1576 -7.3998,-14.72713 -7.2613,-26.87284 0.1307,-11.51237 7.9748,-19.68781 13.1055,-23.03026 10.5438,-6.86875 10.5381,-13.3206 17.2995,-17.52835 5.9165,-3.68179 25.4989,-8.70228 33.7532,-8.76671 z m -66.1118,165.92143 c 0.1496,-0.004 0.2986,-10e-4 0.4466,0.01 0.9288,0.0704 1.8034,0.43871 2.5608,1.07818 0.877,-0.46592 1.7859,-0.67626 2.6677,-0.6173 3.4645,0.24843 5.7025,4.51297 4.999,9.52529 -0.7034,5.0127 -4.0825,8.87524 -7.5472,8.6271 -0.9289,-0.0704 -1.8036,-0.43871 -2.5609,-1.07818 -0.877,0.46565 -1.786,0.6757 -2.6678,0.61645 -3.4644,-0.24844 -5.7025,-4.51297 -4.9989,-9.52528 0.6687,-4.76356 3.7691,-8.53412 7.1007,-8.63551 z m -4.5373,23.8368 c 0.1499,-0.004 0.2992,-0.001 0.4474,0.01 0.9575,0.0725 1.8571,0.46146 2.6299,1.13706 0.7107,-0.2908 1.4331,-0.41531 2.137,-0.36836 3.4648,0.24779 5.7033,4.51251 4.9998,9.52528 -0.7038,5.01242 -4.0827,8.87449 -7.5473,8.62626 -0.9578,-0.0724 -1.8577,-0.46129 -2.6307,-1.13705 -0.7107,0.29079 -1.4332,0.41532 -2.1369,0.36836 -3.4645,-0.24843 -5.7026,-4.51297 -4.999,-9.52529 0.6686,-4.76309 3.7685,-8.53349 7.0998,-8.6355 z m -4.4599,25.14371 c 0.15,-0.004 0.2992,-0.001 0.4475,0.01 0.9183,0.0694 1.7839,0.43004 2.5357,1.05632 0.4908,-0.12366 0.9822,-0.17102 1.464,-0.1413 3.4685,0.23921 5.7093,4.34483 5.005,9.17039 -0.7046,4.82542 -4.0872,8.54355 -7.5557,8.30498 -0.672,-0.0486 -1.3174,-0.24712 -1.9116,-0.58787 -0.6944,0.27648 -1.3989,0.39437 -2.0857,0.34903 -3.4645,-0.24844 -5.7026,-4.51298 -4.999,-9.5253 0.6686,-4.76309 3.7685,-8.53349 7.0998,-8.63551 z"
       id="path4212"
       inkscape:connector-curvature="0"
       sodipodi:nodetypes="ssssssssssscssscsscsssssssccccccccccccccccccscccccccccsc" />
  </g>
</svg>
