<?xml version="1.0" encoding="UTF-8" standalone="no"?>
<!-- Created with Inkscape (http://www.inkscape.org/) -->

<svg
   xmlns:dc="http://purl.org/dc/elements/1.1/"
   xmlns:cc="http://creativecommons.org/ns#"
   xmlns:rdf="http://www.w3.org/1999/02/22-rdf-syntax-ns#"
   xmlns:svg="http://www.w3.org/2000/svg"
   xmlns="http://www.w3.org/2000/svg"
   xmlns:sodipodi="http://sodipodi.sourceforge.net/DTD/sodipodi-0.dtd"
   xmlns:inkscape="http://www.inkscape.org/namespaces/inkscape"
   width="82.892693mm"
   height="82.892693mm"
   viewBox="0 0 293.71426 293.71425"
   id="svg2"
   version="1.1"
   inkscape:version="0.91 r13725"
   sodipodi:docname="duck.svg">
  <defs
     id="defs4" />
  <sodipodi:namedview
     id="base"
     pagecolor="#ffffff"
     bordercolor="#666666"
     borderopacity="1.0"
     inkscape:pageopacity="0.0"
     inkscape:pageshadow="2"
     inkscape:zoom="0.98994949"
     inkscape:cx="158.5383"
     inkscape:cy="147.70445"
     inkscape:document-units="px"
     inkscape:current-layer="layer1"
     showgrid="false"
     fit-margin-top="0"
     fit-margin-left="0"
     fit-margin-right="0"
     fit-margin-bottom="0"
     inkscape:window-width="1920"
     inkscape:window-height="1017"
     inkscape:window-x="-8"
     inkscape:window-y="-8"
     inkscape:window-maximized="1" />
  <metadata
     id="metadata7">
    <rdf:RDF>
      <cc:Work
         rdf:about="">
        <dc:format>image/svg+xml</dc:format>
        <dc:type
           rdf:resource="http://purl.org/dc/dcmitype/StillImage" />
        <dc:title />
      </cc:Work>
    </rdf:RDF>
  </metadata>
  <g
     inkscape:label="Layer 1"
     inkscape:groupmode="layer"
     id="layer1"
     transform="translate(-903.50385,-224.55766)">
    <rect
       inkscape:export-ydpi="14.71"
       inkscape:export-xdpi="14.71"
       inkscape:export-filename="E:\INFO\Ornitho\app\src\main\res\mipmap-mdpi\ornitho_launcher.png"
       ry="29.94739"
       y="228.55766"
       x="907.50372"
       height="285.71426"
       width="285.71426"
       id="rect4373"
       style="fill:#829e6d;fill-opacity:1;stroke:#ffffff;stroke-width:8;stroke-linecap:round;stroke-linejoin:round;stroke-miterlimit:4;stroke-dasharray:none;stroke-dashoffset:0;stroke-opacity:0" />
    <path
       style="fill:#000000;fill-opacity:1;fill-rule:evenodd;stroke:#000000;stroke-width:0.60311097;stroke-linecap:round;stroke-linejoin:round;stroke-miterlimit:4;stroke-dasharray:none;stroke-opacity:1"
       d="m 1111.0485,280.92615 c 15.3324,-6.9e-4 14.3967,12.73204 22.4454,18.20757 8.7307,5.93962 21.6942,10.06997 20.592,14.47467 -0.5212,2.08254 -2.9668,0.26532 -9.9898,0.0647 -7.0229,-0.20028 -21.151,-7.91973 -27.3171,-3.16682 -5.4511,4.2017 -7.1325,12.6312 -5.1776,18.27262 -4.3261,0.67741 -9.7029,1.62606 -12.1091,2.48264 -4.3473,1.54761 -7.6748,4.42083 -7.6748,4.42083 -0.5959,0.35 -1.1606,0.72017 -1.067,1.40482 l 0.2702,1.97731 c 0.094,0.68472 0.7429,1.26546 1.4048,1.06697 0,0 5.4436,-4.13953 9.8194,-5.62467 2.5828,-0.8766 7.7708,-1.48117 11.5982,-1.83125 5.5648,7.37187 22.7256,26.13004 22.6147,36.57018 -0.1218,11.47098 -4.0526,28.90487 -20.9607,40.84853 -16.908,11.94367 -24.9336,12.9872 -47.3534,18.3485 0,0 0.9712,5.60559 2.1742,9.94003 1.203,4.33444 5.3868,15.9285 5.3868,15.9285 6.336,-1.46224 7.8166,-4.69387 14.593,-3.43915 6.7764,1.25463 16.9198,3.54805 10.8367,7.28205 -6.0831,3.73407 -13.2792,4.3596 -20.8729,3.26551 -7.5935,-1.09409 -13.4618,-2.00005 -14.8122,-12.45585 -1.3506,-10.45588 -3.9927,-12.76456 -4.8457,-20.07536 0,0 -10.0647,0.32656 -26.147,-2.89985 -16.0822,-3.22649 -30.9836,1.35115 -48.78524,-2.92089 -17.8016,-4.27197 -23.4339,-6.44698 -34.8009,-7.59918 -12.0136,-1.21779 4.4401,-3.14508 9.4359,-5.82565 -3.0462,-5.23947 -2.1977,-9.20826 2.9567,-10.28848 5.1543,-1.0803 -0.6418,0.65287 -0.9193,3.68625 -0.2777,3.03337 3.6185,7.71579 9.4516,0.0319 5.8331,-7.68401 17.7186,-11.75352 -17.513,-6.89996 -17.8271,2.45591 2.4832,-4.78851 14.2988,-8.7291 11.8157,-3.9405 45.07634,-19.12966 58.03784,-25.23264 26.2379,-12.35403 45.5987,-14.98273 56.2135,-12.15765 10.6148,2.82515 2.7443,-12.39618 4.2219,-29.0355 1.4775,-16.63933 -0.089,-37.30774 19.7301,-39.80534 1.5484,-0.19513 2.9646,-0.28642 4.264,-0.28648 z m -8.2784,83.42648 c -3.7253,0.0202 -8.2263,1.07009 -13.6915,3.63966 -22.5667,10.60981 -56.0738,22.62794 -76.2762,26.31894 -20.20234,3.691 -12.2993,13.12001 -14.86524,17.05865 -2.5658,3.93864 -16.8038,9.94346 -6.8234,10.72237 5.2117,0.40679 22.09154,0.13897 34.74714,0.84699 11.5799,0.64781 26.5325,2.76213 38.2391,2.80848 11.7067,0.046 50.293,-12.58562 55.5621,-22.17613 5.2692,-9.5905 4.0895,-17.35536 1.0967,-24.12562 -2.268,-5.13056 -6.3322,-15.15566 -17.9887,-15.09334 z m -108.17664,42.9373 c -2.9345,-0.0296 -7.8615,0.46802 -11.3997,0.18065 -7.0766,-0.57466 -21.2754,5.43242 -30.7055,6.09238 -9.4301,0.65996 9.0552,2.07756 16.9369,2.19332 7.8815,0.11583 15.7498,-0.68972 24.613,-5.48306 4.4316,-2.39671 3.4897,-2.95368 0.5553,-2.98329 z"
       id="path5370"
       inkscape:connector-curvature="0" />
  </g>
</svg>
