<?xml version="1.0" encoding="UTF-8" standalone="no"?>
<!-- Created with Inkscape (http://www.inkscape.org/) -->

<svg
   xmlns:dc="http://purl.org/dc/elements/1.1/"
   xmlns:cc="http://creativecommons.org/ns#"
   xmlns:rdf="http://www.w3.org/1999/02/22-rdf-syntax-ns#"
   xmlns:svg="http://www.w3.org/2000/svg"
   xmlns="http://www.w3.org/2000/svg"
   xmlns:sodipodi="http://sodipodi.sourceforge.net/DTD/sodipodi-0.dtd"
   xmlns:inkscape="http://www.inkscape.org/namespaces/inkscape"
   width="82.892693mm"
   height="82.892693mm"
   viewBox="0 0 293.71426 293.71425"
   id="svg2"
   version="1.1"
   inkscape:version="0.91 r13725"
   sodipodi:docname="finch.svg">
  <defs
     id="defs4" />
  <sodipodi:namedview
     id="base"
     pagecolor="#ffffff"
     bordercolor="#666666"
     borderopacity="1.0"
     inkscape:pageopacity="0.0"
     inkscape:pageshadow="2"
     inkscape:zoom="0.70000001"
     inkscape:cx="271.69269"
     inkscape:cy="270.57023"
     inkscape:document-units="px"
     inkscape:current-layer="layer1"
     showgrid="false"
     fit-margin-top="0"
     fit-margin-left="0"
     fit-margin-right="0"
     fit-margin-bottom="0"
     inkscape:window-width="1920"
     inkscape:window-height="1017"
     inkscape:window-x="-8"
     inkscape:window-y="-8"
     inkscape:window-maximized="1" />
  <metadata
     id="metadata7">
    <rdf:RDF>
      <cc:Work
         rdf:about="">
        <dc:format>image/svg+xml</dc:format>
        <dc:type
           rdf:resource="http://purl.org/dc/dcmitype/StillImage" />
        <dc:title />
      </cc:Work>
    </rdf:RDF>
  </metadata>
  <g
     inkscape:label="Layer 1"
     inkscape:groupmode="layer"
     id="layer1"
     transform="translate(-2205.2094,-614.64954)">
    <rect
       style="fill:#829e6d;fill-opacity:1;stroke:#ffffff;stroke-width:8;stroke-linecap:round;stroke-linejoin:round;stroke-miterlimit:4;stroke-dasharray:none;stroke-dashoffset:0;stroke-opacity:0"
       id="rect4407"
       width="285.71426"
       height="285.71426"
       x="2209.2092"
       y="618.64954"
       ry="29.94739"
       inkscape:export-filename="E:\INFO\Ornitho\app\src\main\res\mipmap-mdpi\ornitho_launcher.png"
       inkscape:export-xdpi="14.71"
       inkscape:export-ydpi="14.71" />
    <path
       style="fill:#000000;fill-opacity:1;fill-rule:evenodd;stroke:#000000;stroke-width:1;stroke-linecap:round;stroke-linejoin:round;stroke-miterlimit:4;stroke-dasharray:none;stroke-opacity:1"
       d="m 2427.0076,660.58019 c -16.5376,0.081 -32.69,14.29515 -41.4999,27.0294 -10.8431,15.67295 -27.1182,22.13085 -45.4696,43.23854 -18.3512,21.10758 -49.087,67.05045 -61.7826,77.47355 -12.6956,10.42318 -26.4604,18.56938 -37.1795,25.49436 -10.7191,6.92487 -2.8147,7.94189 4.8733,6.54116 7.6879,-1.40083 23.7898,-12.59866 37.0079,-18.11119 13.2181,-5.51244 23.7207,-3.01797 38.1564,-3.75455 9.7914,-0.49967 23.9678,-0.65614 27.5622,1.52089 3.5945,2.17704 1.6012,6.72858 0.9019,10.83209 -0.6993,4.1035 -3.781,16.92638 -0.2315,21.47236 3.5495,4.54608 7.3041,0.20782 7.3041,0.20782 0,0 -5.397,-0.96724 -5.557,-5.43142 -0.16,-4.46418 2.4098,-17.00564 6.2703,-16.54287 3.8605,0.46278 3.7842,4.05695 3.6191,6.61047 -0.165,2.55343 -0.3633,7.38629 -0.3633,7.38629 0,0 4.9293,-3.00342 5.8047,-6.34272 0.8753,-3.3394 -0.7734,-7.49317 -4.1372,-9.6911 -3.3639,-2.19792 -5.2107,-6.53804 -5.2107,-6.53804 0,0 16.7606,3.88593 23.4733,3.55258 6.7127,-0.33334 13.1154,-3.09361 13.1154,-3.09361 6.241,4.85414 13.1728,6.84864 12.2372,14.62109 -0.498,4.13679 -0.4895,18.14028 1.7899,23.19931 2.0032,4.44612 6.749,0.70973 6.749,0.70973 0,0 -4.0473,-0.93239 -3.9691,-5.07435 0.078,-4.14196 0.2699,-18.47841 3.3514,-19.65385 3.0816,-1.17554 6.0107,3.08287 7.1325,6.95718 1.1219,3.87432 -2.3084,11.53685 -2.3084,11.53685 0,0 6.604,-6.89072 5.9007,-12.54684 -0.7033,-5.65612 -3.9245,-9.39602 -9.5194,-11.30589 -5.5948,-1.90977 -11.1636,-8.05024 -16.0177,-11.97971 0,0 27.0193,-18.82434 36.8313,-31.54522 9.8122,-12.72077 17.4495,-27.40589 18.4446,-39.17905 0.995,-11.77306 -3.7782,-21.31453 -3.8369,-26.90066 -0.059,-5.58613 0.2821,-7.84399 1.0333,-10.7333 3.2361,0.17336 13.5562,0.83214 16.7922,0.42764 -0.809,-1.84916 -6.7024,-10.90568 -11.5565,-15.75982 -1.2713,-1.61802 1.8305,-23.28238 -18.2863,-32.23388 -3.7719,-1.67834 -7.6087,-2.41199 -11.4251,-2.39324 z m -0.7634,2.46918 c 7.9888,-0.0205 17.3212,2.69497 14.9071,8.53938 -3.3586,8.13146 -1.0736,13.05471 -8.437,18.26084 -0.1285,0.0908 -0.2479,0.1799 -0.362,0.26775 a 4.6619288,3.9264196 0 0 0 -1.6424,-0.25702 4.6619288,3.9264196 0 0 0 -4.6619,3.92664 4.6619288,3.9264196 0 0 0 4.6619,3.92624 4.6619288,3.9264196 0 0 0 4.4165,-2.68062 c 3.673,1.2181 8.636,2.34327 10.3011,4.52509 -1.1557,6.58773 1.3783,15.40979 1.9646,24.15483 0.5865,8.74505 5.2424,18.16069 2.7742,27.96892 -2.4683,9.80814 -10.7128,25.74972 -18.7235,34.44117 -8.0106,8.69146 -27.2087,28.49329 -42.9931,32.59192 -15.7843,4.09852 -31.0738,-2.11213 -48.0826,-3.65762 -25.2067,-2.29046 -57.8121,3.21407 -39.7538,-3.97046 29.5328,-11.74973 65.9792,-24.44405 93.4994,-34.78759 27.5203,-10.34354 44.6518,-18.32233 47.7319,-27.50683 3.08,-9.18449 1.7972,-17.43298 -3.6984,-18.60716 -5.4955,-1.17427 6.8099,5.12111 -8.668,11.55744 -6.5892,2.73997 -25.7149,-2.74904 -43.6872,-3.34164 -24.2448,-0.79954 -51.887,5.97667 -46.2293,-2.09026 9.8518,-14.04693 31.7755,-28.38104 40.6821,-37.6774 8.9066,-9.29635 10.4367,-12.30739 17.1051,-19.87865 6.6683,-7.57136 14.0556,-11.52122 20.9187,-14.44685 1.9302,-0.82277 4.8506,-1.24992 7.9766,-1.25812 z"
       id="path5947"
       inkscape:connector-curvature="0" />
  </g>
</svg>
