<?xml version="1.0" encoding="UTF-8" standalone="no"?>
<!-- Created with Inkscape (http://www.inkscape.org/) -->

<svg
   xmlns:dc="http://purl.org/dc/elements/1.1/"
   xmlns:cc="http://creativecommons.org/ns#"
   xmlns:rdf="http://www.w3.org/1999/02/22-rdf-syntax-ns#"
   xmlns:svg="http://www.w3.org/2000/svg"
   xmlns="http://www.w3.org/2000/svg"
   xmlns:sodipodi="http://sodipodi.sourceforge.net/DTD/sodipodi-0.dtd"
   xmlns:inkscape="http://www.inkscape.org/namespaces/inkscape"
   width="82.892693mm"
   height="82.892693mm"
   viewBox="0 0 293.71426 293.71425"
   id="svg2"
   version="1.1"
   inkscape:version="0.91 r13725"
   sodipodi:docname="flycatcher.svg">
  <defs
     id="defs4" />
  <sodipodi:namedview
     id="base"
     pagecolor="#ffffff"
     bordercolor="#666666"
     borderopacity="1.0"
     inkscape:pageopacity="0.0"
     inkscape:pageshadow="2"
     inkscape:zoom="1.979899"
     inkscape:cx="119.61152"
     inkscape:cy="146.28726"
     inkscape:document-units="px"
     inkscape:current-layer="layer1"
     showgrid="false"
     fit-margin-top="0"
     fit-margin-left="0"
     fit-margin-right="0"
     fit-margin-bottom="0"
     inkscape:window-width="1920"
     inkscape:window-height="1017"
     inkscape:window-x="-8"
     inkscape:window-y="-8"
     inkscape:window-maximized="1" />
  <metadata
     id="metadata7">
    <rdf:RDF>
      <cc:Work
         rdf:about="">
        <dc:format>image/svg+xml</dc:format>
        <dc:type
           rdf:resource="http://purl.org/dc/dcmitype/StillImage" />
        <dc:title />
      </cc:Work>
    </rdf:RDF>
  </metadata>
  <g
     inkscape:label="Layer 1"
     inkscape:groupmode="layer"
     id="layer1"
     transform="translate(-2205.2093,555.62592)">
    <rect
       style="fill:#829e6d;fill-opacity:1;stroke:#ffffff;stroke-width:8;stroke-linecap:round;stroke-linejoin:round;stroke-miterlimit:4;stroke-dasharray:none;stroke-dashoffset:0;stroke-opacity:0"
       id="rect4399"
       width="285.71426"
       height="285.71426"
       x="-2494.9236"
       y="-551.62592"
       ry="29.94739"
       inkscape:export-filename="E:\INFO\Ornitho\app\src\main\res\mipmap-mdpi\ornitho_launcher.png"
       inkscape:export-xdpi="14.71"
       inkscape:export-ydpi="14.71"
       transform="scale(-1,1)" />
    <path
       style="fill:#000000;fill-opacity:1;fill-rule:evenodd;stroke:#000000;stroke-width:1.20883977;stroke-linecap:round;stroke-linejoin:round;stroke-miterlimit:4;stroke-dasharray:none;stroke-opacity:1"
       d="m 2395.6302,-522.46227 c -23.852,-0.21743 -28.7369,22.59869 -41.956,36.79091 -13.6456,14.65004 -30.3174,24.54261 -46.3389,65.47883 -16.0214,40.93622 -42.5887,89.34668 -53.5344,106.78086 -10.9458,17.43416 -1.9512,27.22447 10.0736,7.19558 12.0249,-20.02888 20.0424,-32.68071 27.1989,-42.16616 7.1565,-9.48546 14.4145,-8.91801 27.631,-21.87402 13.2165,-12.95601 25.9038,-10.7931 30.3651,-12.95174 0,0 2.7728,2.55132 6.2023,5.7774 -0.657,1.33783 -1.1041,2.69219 -1.3096,3.86419 -0.6152,3.50896 0.4548,6.46751 2.5901,8.34699 2.1353,1.87947 8.2029,1.43942 8.2029,1.43942 0,0 -5.0878,-0.78132 -6.381,-3.53837 -0.7532,-1.60564 -1.3111,-4.52812 0.1015,-7.07596 3.7218,3.54958 7.5267,7.27196 9.3016,9.31893 4.0513,4.67235 -1.7239,9.54443 1.5835,14.39117 3.3073,4.84673 10.7929,7.77089 14.6784,3.74143 0,0 -11.8491,-0.2983 -9.7856,-10.36171 2.0635,-10.06342 10.4815,-8.0293 12.8077,-5.32409 2.3262,2.70521 0.4321,8.92227 0.4321,8.92227 0,0 4.8717,-6.36961 1.5827,-12.95174 -2.4384,-4.87948 -7.3846,-2.70533 -12.1593,-2.5861 0.032,-2.36551 -0.2068,-6.05289 -1.7157,-8.83964 -2.4068,-4.4453 -9.3356,-6.97094 -13.612,-5.55626 -0.9341,0.309 -1.7893,0.80408 -2.5704,1.41347 -0.3479,-0.40279 -0.5957,-0.69336 -0.5957,-0.69336 0,0 25.3517,-6.7317 34.9705,-18.99594 9.6189,-12.26423 27.5175,-28.20521 32.6671,-40.15143 5.1495,-11.94622 -1.7587,-20.23738 2.1587,-27.19889 3.9174,-6.96151 2.0867,-11.18441 7.1956,-15.97385 5.1089,-4.78943 19.8593,-7.48284 19.8593,-7.48284 -1.0074,-4.17338 -17.1251,-4.60544 -23.0254,-6.47627 0,0 -8.3366,-21.37701 -34.2505,-23.16942 -0.8098,-0.056 -1.5986,-0.0867 -2.3681,-0.0937 z m 9.4401,24.2555 c 0.663,-0.008 1.3356,0.0192 2.0069,0.0834 5.3707,0.51448 10.7499,3.83238 9.0442,7.38132 -1.8145,3.77566 -4.9618,6.03218 -10.3325,5.51768 -5.3708,-0.51448 -10.0675,-4.90027 -9.836,-7.66857 0.2872,-3.43333 4.4766,-5.25638 9.1174,-5.31386 z m 0.8012,1.81798 c -3.3004,-0.09 -6.0058,1.70515 -6.1961,4.11131 -0.2005,2.53187 2.4478,4.80698 5.9152,5.0817 3.4677,0.27467 6.4413,-1.55554 6.6415,-4.08771 0.2005,-2.53187 -2.4478,-4.80698 -5.9151,-5.08169 -0.1481,-0.0117 -0.2964,-0.0196 -0.4447,-0.0236 z m 18.9676,38.23585 c 1.2879,12.63146 -7.4324,22.08279 -17.0953,34.39528 -9.6629,12.31249 -24.9829,31.02598 -47.624,35.41208 -22.6412,4.3861 -25.0456,-0.0984 -44.9774,16.89228 -10.6645,9.09082 -11.0682,-0.59132 1.0514,-12.78963 10.532,-10.60022 27.3562,-19.80726 41.4839,-27.71123 14.1276,-7.90397 40.4658,-21.15649 48.6408,-29.91721 8.1751,-8.76072 17.2327,-28.91302 18.5206,-16.28157 z m -19.0699,-0.0306 c 2.1479,0.13965 0.8772,5.70993 -3.0119,8.78219 -5.1854,4.09634 -21.3315,5.99739 -31.3535,5.11946 -11.5827,-1.01463 -16.0259,-4.44634 -7.9259,-4.8141 15.1087,-0.68596 32.9529,-1.30775 38.9741,-7.12318 1.5052,-1.45386 2.6012,-2.01092 3.3172,-1.96437 z m -71.3514,19.15491 c 0.7651,0.0328 1.9913,0.40376 3.7225,1.22773 12.3108,5.85932 42.4229,4.22278 51.8975,0.61072 9.4745,-3.61206 -4.9812,7.94457 -27.9844,9.2599 -19.7683,1.13037 -32.3119,-11.29894 -27.6356,-11.09835 z m 32.386,60.16576 c 5.4559,-0.0734 8.2146,6.11684 9.341,9.62035 -1.4004,-0.0382 -2.7735,-0.29822 -4.05,-1.01366 -2.9819,-1.6712 -6.4713,-4.9297 -9.1844,-7.72682 0.6846,-0.26824 1.4479,-0.50076 2.3029,-0.68942 0.5537,-0.12219 1.0839,-0.18363 1.5905,-0.19045 z"
       id="path6514"
       inkscape:connector-curvature="0"
       sodipodi:nodetypes="sssssssccsscscsscsscscssccssssccsssssssscccccccsssssssssssssssssssscscss" />
  </g>
</svg>
