<?xml version="1.0" encoding="UTF-8" standalone="no"?>
<!-- Created with Inkscape (http://www.inkscape.org/) -->

<svg
   xmlns:dc="http://purl.org/dc/elements/1.1/"
   xmlns:cc="http://creativecommons.org/ns#"
   xmlns:rdf="http://www.w3.org/1999/02/22-rdf-syntax-ns#"
   xmlns:svg="http://www.w3.org/2000/svg"
   xmlns="http://www.w3.org/2000/svg"
   xmlns:sodipodi="http://sodipodi.sourceforge.net/DTD/sodipodi-0.dtd"
   xmlns:inkscape="http://www.inkscape.org/namespaces/inkscape"
   width="82.892693mm"
   height="82.892693mm"
   viewBox="0 0 293.71426 293.71425"
   id="svg2"
   version="1.1"
   inkscape:version="0.91 r13725"
   sodipodi:docname="grackle.svg">
  <defs
     id="defs4" />
  <sodipodi:namedview
     id="base"
     pagecolor="#ffffff"
     bordercolor="#666666"
     borderopacity="1.0"
     inkscape:pageopacity="0.0"
     inkscape:pageshadow="2"
     inkscape:zoom="1.979899"
     inkscape:cx="180.64877"
     inkscape:cy="169.47636"
     inkscape:document-units="px"
     inkscape:current-layer="layer1"
     showgrid="false"
     fit-margin-top="0"
     fit-margin-left="0"
     fit-margin-right="0"
     fit-margin-bottom="0"
     inkscape:window-width="1920"
     inkscape:window-height="1017"
     inkscape:window-x="-8"
     inkscape:window-y="-8"
     inkscape:window-maximized="1" />
  <metadata
     id="metadata7">
    <rdf:RDF>
      <cc:Work
         rdf:about="">
        <dc:format>image/svg+xml</dc:format>
        <dc:type
           rdf:resource="http://purl.org/dc/dcmitype/StillImage" />
        <dc:title />
      </cc:Work>
    </rdf:RDF>
  </metadata>
  <g
     inkscape:label="Layer 1"
     inkscape:groupmode="layer"
     id="layer1"
     transform="translate(-1771.3075,165.53407)">
    <rect
       style="fill:#829e6d;fill-opacity:1;stroke:#ffffff;stroke-width:8;stroke-linecap:round;stroke-linejoin:round;stroke-miterlimit:4;stroke-dasharray:none;stroke-dashoffset:0;stroke-opacity:0"
       id="rect4391"
       width="285.71426"
       height="285.71426"
       x="1775.3074"
       y="-161.53407"
       ry="29.94739"
       inkscape:export-filename="E:\INFO\Ornitho\app\src\main\res\mipmap-mdpi\ornitho_launcher.png"
       inkscape:export-xdpi="14.71"
       inkscape:export-ydpi="14.71" />
    <path
       style="fill:#000000;fill-opacity:1;fill-rule:evenodd;stroke:#000000;stroke-width:1px;stroke-linecap:round;stroke-linejoin:round;stroke-opacity:1"
       d="m 2032.7376,-121.84019 c -1.4733,-0.66965 -12.9206,2.70578 -21.8571,4.31249 -8.9365,1.60671 -18.1173,-0.68555 -28.9032,5.40046 -10.7859,6.08602 -14.9176,23.465054 -26.2522,33.247108 -5.1072,4.407592 -21.296,23.769714 -34.1491,40.708113 -15.6727,20.654092 -28.6603,39.5486962 -39.1085,46.4885904 -19.0168,12.6312936 -75.1706,47.1017196 -78.0299,57.8138056 -2.8592,10.712086 1.5824,17.160216 11.8179,18.123917 10.2355,0.9637 21.6225,0.157339 35.343,-7.355788 13.7205,-7.513127 30.2385,-35.637184 55.0222,-50.029096 24.7838,-14.391911 24.5476,-22.6763934 42.4778,-21.4137027 0,0 -1.8811,6.8131937 3.4451,13.8276817 5.3262,7.014489 18.0447,23.650651 18.0447,23.650651 0,0 -7.3842,9.668157 -3.4847,6.951599 3.8994,-2.716558 3.6638,-4.561546 9.8483,-4.411989 6.1845,0.149558 18.8454,4.816087 17.1466,1.955314 -1.6989,-2.860774 -10.2167,-4.09445 -10.2167,-4.09445 0,0 13.4489,4.119831 10.5917,0.548401 -2.8572,-3.57143 -13.6591,-1.69915 -19.8303,-5.844263 -6.1712,-4.145113 -14.2628,-16.428107 -14.5203,-19.116117 -0.2575,-2.68801 0.5803,-6.712361 0.5446,-11.6557364 -0.036,-4.9433753 4.1267,-5.6746697 13.4706,-7.06362952 0.3788,7.57614412 -1.8073,15.75135292 4.3544,23.05212492 6.1617,7.300771 19.4696,22.052477 19.4696,22.052477 0,0 -7.0444,5.9027 -2.6114,4.152012 4.433,-1.750687 4.8372,-2.623558 9.527,-3.109678 4.6898,-0.48612 11.0777,4.751176 11.0777,4.751176 0.3788,-2.272843 -6.8501,-5.71428 -6.8501,-5.71428 l 9.5487,2.807015 c -0.2525,-2.146574 -6.1114,-4.152317 -13.2137,-5.090373 -3.1708,-0.418796 -4.7692,-3.79392 -8.1956,-7.167352 -4.2484,-4.182661 -10.9806,-10.276574 -11.2163,-17.378334 -0.2357,-7.101761 0.1949,-13.7489629 3.7411,-23.1059639 3.5462,-9.3570011 12.4342,-16.8853661 17.4746,-27.5612781 5.0404,-10.675912 11.1091,-24.72182 9.6428,-35.021665 -1.4663,-10.299845 -12.1087,-14.521443 -12.9185,-22.373731 -0.8098,-7.852288 4.0459,-16.522659 8.2794,-19.137779 4.2334,-2.61513 20.713,-12.21559 20.4898,-13.19773 z"
       id="path7081"
       inkscape:connector-curvature="0"
       sodipodi:nodetypes="czzssszzzzczczzzczzzzczczzcccsszzzzzzc" />
  </g>
</svg>
