<?xml version="1.0" encoding="UTF-8" standalone="no"?>
<!-- Created with Inkscape (http://www.inkscape.org/) -->

<svg
   xmlns:dc="http://purl.org/dc/elements/1.1/"
   xmlns:cc="http://creativecommons.org/ns#"
   xmlns:rdf="http://www.w3.org/1999/02/22-rdf-syntax-ns#"
   xmlns:svg="http://www.w3.org/2000/svg"
   xmlns="http://www.w3.org/2000/svg"
   xmlns:sodipodi="http://sodipodi.sourceforge.net/DTD/sodipodi-0.dtd"
   xmlns:inkscape="http://www.inkscape.org/namespaces/inkscape"
   width="82.892693mm"
   height="82.892693mm"
   viewBox="0 0 293.71426 293.71425"
   id="svg2"
   version="1.1"
   inkscape:version="0.91 r13725"
   sodipodi:docname="groups.svg">
  <defs
     id="defs4" />
  <sodipodi:namedview
     id="base"
     pagecolor="#ffffff"
     bordercolor="#666666"
     borderopacity="1.0"
     inkscape:pageopacity="0.0"
     inkscape:pageshadow="2"
     inkscape:zoom="1.979899"
     inkscape:cx="164.4421"
     inkscape:cy="138.79765"
     inkscape:document-units="px"
     inkscape:current-layer="layer1"
     showgrid="false"
     fit-margin-top="0"
     fit-margin-left="0"
     fit-margin-right="0"
     fit-margin-bottom="0"
     inkscape:window-width="1920"
     inkscape:window-height="1017"
     inkscape:window-x="-8"
     inkscape:window-y="-8"
     inkscape:window-maximized="1" />
  <metadata
     id="metadata7">
    <rdf:RDF>
      <cc:Work
         rdf:about="">
        <dc:format>image/svg+xml</dc:format>
        <dc:type
           rdf:resource="http://purl.org/dc/dcmitype/StillImage" />
        <dc:title />
      </cc:Work>
    </rdf:RDF>
  </metadata>
  <g
     inkscape:label="Layer 1"
     inkscape:groupmode="layer"
     id="layer1"
     transform="translate(-35.700124,-224.55765)">
    <rect
       style="fill:#829e6d;fill-opacity:1;stroke:#ffffff;stroke-width:8;stroke-linecap:round;stroke-linejoin:round;stroke-miterlimit:4;stroke-dasharray:none;stroke-dashoffset:0;stroke-opacity:0"
       id="rect4221"
       width="285.71426"
       height="285.71426"
       x="39.700001"
       y="228.55765"
       ry="29.94739"
       inkscape:export-filename="E:\INFO\Ornitho\app\src\main\res\mipmap-mdpi\ornitho_launcher.png"
       inkscape:export-xdpi="14.71"
       inkscape:export-ydpi="14.71" />
    <path
       style="fill:#000000;fill-opacity:1;fill-rule:evenodd;stroke:#000000;stroke-width:0.46;stroke-linecap:round;stroke-linejoin:round;stroke-opacity:1;stroke-miterlimit:4;stroke-dasharray:none"
       d="M 172.27539 25.888672 C 169.15196 25.888672 158.75391 30.224609 158.75391 30.224609 C 156.78117 28.909479 144.95857 25.920591 135.02344 30.087891 C 125.08829 34.255191 116.22279 45.073698 114.12109 50.611328 C 112.0194 56.148958 105.7575 63.048146 98.611328 72.291016 C 91.465158 81.533896 77.027673 91.586655 71.876953 102.04688 C 66.726233 112.5071 61.526768 116.77103 52.347656 124.83203 C 43.168538 132.89304 34.056943 141.38008 25.496094 148.19531 C 16.935238 155.01055 22.94541 156.72464 29.447266 151.45117 C 35.94913 146.1777 45.716066 138.82075 52.115234 133.78125 C 58.514453 128.74175 93.03125 122.09961 93.03125 122.09961 C 93.03125 122.09961 100.81687 136.41893 101.75 139.94336 C 101.86351 140.37211 101.84773 140.81331 101.75391 141.26758 C 102.80739 140.39006 103.96606 139.49078 105.19531 138.57617 C 104.97396 138.25768 104.74239 137.94197 104.54102 137.61719 C 101.75055 133.11659 96.867188 123.90234 96.867188 123.90234 C 97.622757 122.79804 110.35298 122.5065 110.52734 123.78516 C 110.99231 125.06382 110.42313 125.74192 116.17773 126.4043 C 117.63001 126.57146 120.00874 126.86681 122.73242 127.24609 C 124.09512 126.44693 125.45191 125.66456 126.82031 124.88477 C 126.12731 124.75158 124.06836 124.36719 124.06836 124.36719 C 124.06836 124.36719 139.47212 118.57995 146.03906 108.67383 C 152.606 98.767698 161.70618 83.808479 163.70703 71.011719 C 165.70785 58.214969 163.54778 58.567773 164.83789 53.908203 C 166.12801 49.248643 163.9964 44.604251 162.87695 43.269531 C 166.98671 42.365381 174.84194 39.992041 176.73242 39.087891 C 174.10215 38.183731 162.70719 39.378361 160.64258 39.712891 C 158.57798 40.047421 156.28271 38.722963 158.44531 35.970703 C 160.60787 33.218453 167.7546 28.107952 172.27539 25.888672 z M 152.63086 30.138672 C 154.04235 30.168542 155.32768 30.364119 156.46094 30.730469 C 160.08738 31.902799 155.05263 35.683103 153.50586 38.595703 C 151.95908 41.508313 151.69585 42.690517 154.27148 42.335938 C 156.84716 41.981358 161.8162 44.988475 158.92969 48.046875 C 156.04323 51.105275 148.57278 53.919851 147.65039 57.337891 C 146.728 60.755941 144.36917 60.138691 136.45703 60.087891 C 128.54489 60.037041 123.76313 57.337387 121.59961 53.273438 C 119.43606 49.209487 121.5967 43.630866 124.16797 41.228516 C 126.73925 38.826166 135.87748 34.392688 141.76367 32.267578 C 145.81041 30.806568 149.5256 30.072972 152.63086 30.138672 z M 144.07617 37.601562 C 143.86254 37.603463 143.61922 37.620956 143.33594 37.660156 C 141.06968 37.973736 140.58181 39.741316 138.17578 41.103516 C 135.49429 42.621656 128.33181 47.931872 125.33398 48.632812 C 123.42802 49.078472 127.65722 51.991887 130.80078 51.591797 C 133.94435 51.191687 133.55415 47.446393 137.41797 45.345703 C 141.28178 43.245053 142.77845 43.673846 144.48633 43.291016 C 146.19421 42.908176 147.80677 41.477715 148.80078 40.578125 C 149.79479 39.678545 151.42947 39.143797 151.06055 38.154297 C 150.86474 37.629127 148.92559 38.382906 147.03516 38.378906 C 145.5727 38.375526 145.57157 37.588462 144.07617 37.601562 z M 148.66406 62.798828 C 148.8388 62.848428 149.28501 63.389794 150.1582 64.621094 C 153.01502 68.649564 156.71785 75.198767 157.04883 81.554688 C 156.04721 81.781567 154.7087 82.994527 153.66406 84.623047 C 152.51262 86.419727 151.9836 88.304941 152.36719 89.238281 C 151.41437 89.644901 150.27197 90.761854 149.36328 92.177734 C 147.94262 94.393864 147.51435 96.654902 148.40625 97.226562 C 149.28603 97.787082 151.12259 96.500368 152.53906 94.330078 C 148.34809 101.45301 142.8641 109.33052 138.48633 113.0332 C 132.93754 117.7263 126.5795 122.33746 118.18359 121.5 C 109.78769 120.66253 102.82071 121.94913 98.867188 120.43164 C 94.913667 118.91415 90.736919 120.55405 87.443359 121.25391 C 84.149809 121.95379 67.101835 120.79755 75.359375 117.71875 C 83.616915 114.63995 96.823393 110.00695 107.9082 104.40234 C 118.99302 98.797734 132.64664 91.891046 139.47266 85.910156 C 146.29871 79.929266 149.05141 76.070507 150.07617 71.935547 C 150.87675 68.705107 148.03994 62.621708 148.66406 62.798828 z M 141.78711 72.138672 C 142.96645 72.145602 143.91024 72.332509 144.52734 72.755859 C 148.47682 75.465259 141.98182 77.723704 135.22852 79.496094 C 128.47524 81.268494 110.27696 79.103682 116.74609 78.101562 C 122.20442 77.256022 135.41863 72.101272 141.78711 72.138672 z M 153.65625 77.101562 C 152.64679 77.187823 151.19015 78.446078 150.0625 80.205078 C 148.64184 82.421218 148.21162 84.682236 149.10352 85.253906 C 149.99535 85.825526 151.87062 84.491451 153.29102 82.275391 C 154.71113 80.059811 155.13934 77.800586 154.24805 77.228516 C 154.0864 77.124856 153.88674 77.081962 153.65625 77.101562 z M 110.13281 84.957031 C 114.48981 85.005591 120.66657 86.017104 125.58008 86.240234 C 132.56818 86.557574 115.2436 92.417984 108.14258 92.052734 C 101.04155 91.687504 102.58985 87.073359 105.81836 85.542969 C 106.6255 85.160379 107.82717 84.992138 109.28516 84.960938 C 109.55854 84.954937 109.84234 84.953031 110.13281 84.957031 z M 149.00586 86.75 C 147.99639 86.83626 146.53977 88.094516 145.41211 89.853516 C 143.99145 92.069656 143.56318 94.330664 144.45508 94.902344 C 145.34691 95.473964 147.22021 94.139878 148.64062 91.923828 C 150.06128 89.707688 150.4915 87.44667 149.59961 86.875 C 149.43768 86.77153 149.23666 86.73 149.00586 86.75 z M 156.05469 87.837891 C 155.91181 88.184511 155.75878 88.528777 155.58203 88.867188 C 154.84996 90.268878 154.01987 91.775522 153.125 93.326172 C 153.90966 91.812372 154.20246 90.396133 153.89062 89.632812 C 154.55786 89.347743 155.32889 88.708001 156.05469 87.837891 z M 144.06055 88.212891 C 143.03101 88.227681 141.47357 89.109349 140.10547 90.449219 C 138.22522 92.290589 137.30035 94.395304 138.04102 95.152344 C 138.78233 95.908854 140.90867 95.030883 142.78906 93.189453 C 144.66931 91.348083 145.59224 89.241415 144.85156 88.484375 C 144.67211 88.300975 144.40321 88.207891 144.06055 88.212891 z M 137.66797 89.957031 C 136.63848 89.971311 135.07947 90.851106 133.71094 92.191406 C 131.82982 94.033646 130.90617 96.140314 131.64844 96.896484 C 132.38975 97.652984 134.51609 96.775024 136.39648 94.933594 C 138.27745 93.091714 139.20054 90.983243 138.45898 90.226562 C 138.27953 90.043162 138.01063 89.952031 137.66797 89.957031 z M 129.87891 93.443359 C 128.84937 93.458159 127.29192 94.339817 125.92383 95.679688 C 124.04271 97.521928 123.11906 99.628596 123.86133 100.38477 C 124.60264 101.14127 126.72703 100.26135 128.60742 98.419922 C 130.48838 96.578032 131.41342 94.471514 130.67188 93.714844 C 130.49242 93.531444 130.22157 93.438359 129.87891 93.443359 z M 145.10742 95.537109 C 144.07788 95.551899 142.52044 96.431614 141.15234 97.771484 C 139.2721 99.612854 138.34722 101.71952 139.08789 102.47656 C 139.82921 103.23306 141.95555 102.35315 143.83594 100.51172 C 145.71619 98.670349 146.63912 96.563691 145.89844 95.806641 C 145.71899 95.623241 145.45008 95.532109 145.10742 95.537109 z M 137.66797 98.908203 C 136.63873 98.922473 135.08125 99.802758 133.71289 101.14258 C 131.83193 102.98447 130.90689 105.09098 131.64844 105.84766 C 132.38975 106.60416 134.51609 105.72423 136.39648 103.88281 C 138.27745 102.04092 139.20054 99.934414 138.45898 99.177734 C 138.27938 98.994834 138.01049 98.903203 137.66797 98.908203 z M 119.06836 101 C 118.03883 101.01479 116.48138 101.8945 115.11328 103.23438 C 113.23303 105.07575 112.31011 107.1824 113.05078 107.93945 C 113.79209 108.69595 115.91647 107.81604 117.79688 105.97461 C 119.67712 104.13323 120.60005 102.02853 119.85938 101.27148 C 119.67994 101.08808 119.41102 100.995 119.06836 101 z M 129.18164 105.18555 C 128.1524 105.19982 126.59491 106.08009 125.22656 107.41992 C 123.34559 109.2618 122.42251 111.36833 123.16406 112.125 C 123.90537 112.8815 126.02976 112.00159 127.91016 110.16016 C 129.7904 108.31879 130.71333 106.21212 129.97266 105.45508 C 129.79322 105.27168 129.52431 105.18055 129.18164 105.18555 z M 102.50586 110.95703 C 101.82257 110.96666 101.0854 111.05565 100.35156 111.2168 C 97.780533 111.78185 95.879842 113.07863 96.107422 114.11328 C 96.335412 115.1476 98.603348 115.52799 101.17383 114.96289 C 103.74393 114.39798 105.64429 113.10289 105.41797 112.06836 C 105.26294 111.3636 104.13699 110.93353 102.50586 110.95703 z M 113.625 111.11719 C 112.59441 111.10849 111.16352 111.57315 109.80078 112.35938 C 107.52102 113.67484 106.10134 115.48495 106.63086 116.40234 C 107.15997 117.3201 109.43867 116.9971 111.71875 115.68164 C 113.9985 114.36619 115.41624 112.55606 114.88672 111.63867 C 114.69367 111.30376 114.25421 111.12319 113.625 111.11719 z "
       transform="translate(35.700124,224.55765)"
       id="path11607" />
    <path
       style="fill:#000000;fill-opacity:1;fill-rule:evenodd;stroke:#000000;stroke-width:0.2887432;stroke-linecap:round;stroke-linejoin:round;stroke-miterlimit:4;stroke-dasharray:none;stroke-opacity:1"
       d="m 272.17957,398.8092 c 4.61215,-0.0515 9.47413,0.71041 14.62102,3.16377 10.98011,5.2338 14.73102,15.53291 14.73102,15.53291 0,0 8.51432,2.12223 8.14966,8.17448 0,0 -10.40601,-0.37678 -13.54165,-1.32472 0,0 -6.52499,6.66303 -15.6501,12.59191 -9.17178,5.9591 -18.26261,14.28648 -24.49642,16.88415 -12.53216,5.22221 -28.24947,7.52706 -28.24947,7.52706 0,0 -1.72711,6.85449 1.83343,7.01443 3.56046,0.15995 31.02544,6.12448 36.2654,4.91484 5.24005,-1.20964 7.02904,4.74098 6.08118,6.27227 -0.75682,-2.56751 -2.45936,-3.44502 -4.33911,-3.74633 -1.81615,-0.85221 -2.09873,0.23002 -1.79441,0.43142 0.92303,2.10372 -1.41652,5.27746 -2.38054,5.27746 0.58347,-2.55215 2.17127,-4.86237 -1.79613,-5.13309 -3.9674,-0.27071 -4.08875,3.04946 -3.57833,5.89329 -3.35428,-3.1355 1.4337,-5.07193 -2.72664,-5.90795 -6.65631,-1.33756 -27.37697,-4.39448 -30.75403,-3.7999 -6.30918,1.11077 -7.80442,-7.23112 -7.87722,-10.58538 l -18.14967,-0.20584 c 0,0 10.12317,12.12622 12.94546,13.96851 2.82238,1.8423 5.56827,6.09567 2.13569,11.59316 -0.0378,-6.19692 -0.5771,-6.9317 -5.00215,-12.91675 3.20835,4.81263 7.41931,20.01019 -0.60186,21.68732 2.8632,-3.13323 2.26177,-8.23623 1.72857,-13.01374 0.42035,-1.30202 -0.18649,-1.67122 0,0 -1.1384,3.5259 -5.50905,4.94352 -6.68054,4.83701 2.47921,-2.55215 3.51878,-4.1944 3.312,-6.56214 -0.2067,-2.36773 -1.51209,-5.1159 -3.50606,-5.36262 -1.99397,-0.24671 -5.63513,-0.72972 -7.02062,6.56214 -0.65635,-12.25034 5.4892,-6.5619 5.6977,-9.86182 0.20832,-3.29992 -9.81404,-12.06574 -9.81404,-12.06574 0,0 -9.65358,-6.15932 -11.24688,-11.41326 -1.59322,-5.25392 -8.18292,-9.59219 -12.7808,-11.99525 -4.59788,-2.40306 -6.95736,-8.77349 -18.97473,-5.98127 -12.01719,2.79222 -24.89957,5.51525 -9.48736,0.41225 15.41221,-5.10299 12.25199,-6.71886 2.06238,-8.04307 -10.18952,-1.32421 -43.397397,-7.55716 -33.20547,-7.01274 10.19201,0.54442 21.47155,0.24451 41.07255,-1.37943 13.76734,-1.14061 17.12351,0.0343 25.33848,-3.46717 7.3778,-3.1447 26.75346,-3.92118 36.60771,-6.9163 9.85426,-2.99514 23.82082,-2.60125 26.91572,-2.46786 5.19304,0.22383 10.66101,0.0868 19.38751,-1.54691 4.63604,-0.86792 9.54177,-1.97072 14.76875,-2.0291 z m -6.38945,77.43619 c -0.59369,-1.21262 1.08125,-0.54573 1.79441,-0.43142 6.91302,3.24371 5.27743,8.85503 2.96023,11.65237 0.51867,-4.65209 -0.50638,-8.40912 -4.75464,-11.22095 z m 9.31024,-70.68287 c -4.72121,0.0744 -7.12178,3.93576 -4.44851,10.35415 2.67343,6.41837 11.01294,3.84904 11.08393,2.11481 0.0309,-0.75231 -1.05006,-1.62003 -2.28283,-2.36183 -0.79849,0.76633 -1.87803,1.19705 -3.00363,1.1984 -2.35777,2.2e-4 -4.26932,-1.84582 -4.26906,-4.12305 -2.6e-4,-2.27721 1.91129,-4.12325 4.26906,-4.12304 2.35743,9e-5 4.26863,1.84603 4.26846,4.12304 -1.7e-4,0.10673 -0.009,0.2134 -0.0146,0.31976 1.44239,0.85018 2.86999,1.68556 3.65723,2.12272 3.30452,1.97477 8.47177,6.82072 11.81248,2.26088 3.34078,-4.55983 -5.67432,-3.83021 -9.69819,-5.32314 -4.02395,-1.49293 -6.65373,-6.63711 -11.37493,-6.5627 z m -74.80486,8.96965 c -1.51002,0.0109 0.88504,6.31491 5.45061,10.23065 5.72941,4.91385 15.22184,4.19574 10.51885,1.44371 -4.70298,-2.75203 -9.49028,-5.59192 -14.02491,-10.31242 -0.92114,-0.95885 -1.55961,-1.3647 -1.94455,-1.36194 z m 18.44523,0.31919 c -2.11841,0.20139 3.3548,6.94439 10.62036,10.63331 8.27573,4.20183 16.25402,-1.90087 7.63133,-3.19704 -8.62278,-1.29617 -11.967,-5.06133 -16.91235,-7.11538 -0.46366,-0.19256 -0.83124,-0.29513 -1.11047,-0.31976 -0.0842,-0.007 -0.16054,-0.007 -0.22887,-8.6e-4 z m 73.65992,8.71531 c -0.13983,-0.003 -0.29091,-0.002 -0.45404,0.002 -5.21813,0.1233 -9.03985,-0.15361 -14.97114,1.67494 -5.93129,1.82855 -27.00656,14.83456 -49.24653,15.00224 -22.23989,0.16768 -30.80121,6.26221 -40.10432,5.2972 -9.3031,-0.96501 -0.41295,8.5587 7.73456,11.67098 8.14759,3.11227 19.33698,2.41337 31.46572,1.2232 12.12892,-1.19016 28.40064,-6.74294 36.48602,-12.53043 8.08537,-5.7875 15.8769,-11.34709 21.4144,-15.25997 5.3644,-3.79059 12.00945,-6.99535 7.67533,-7.07985 z"
       id="path11033"
       inkscape:connector-curvature="0"
       sodipodi:nodetypes="sscccsscssccccscssccsccccccsscscssssssssssssccccssscccccccssssssssssssssscsssssssscc" />
    <path
       style="fill:#000000;fill-opacity:1;fill-rule:evenodd;stroke:#000000;stroke-width:0.90186399px;stroke-linecap:round;stroke-linejoin:round;stroke-opacity:1"
       d="M 189.39648 93.917969 C 181.47013 93.857569 174.8824 97.807838 167.03516 102.91797 C 158.66478 108.36878 156.84083 115.97532 143.48242 123.07812 C 130.1241 130.18095 111.53599 140.95566 104.21484 147.66797 C 96.893698 154.38027 95.201229 159.97501 83.386719 163.71094 C 71.572209 167.44687 63.001502 169.95295 48.734375 175.63867 C 34.467157 181.32438 53.818805 187.69251 67.261719 182.43945 C 80.704539 177.18639 91.578665 172.06129 100.96094 168.48828 C 110.3433 164.91526 107.52608 168.61161 115.63086 168.80469 C 123.73556 168.99777 129.03784 174.25979 139.16992 177.77734 C 143.79459 179.38289 146.88466 180.10206 149.37305 180.57422 C 151.39588 180.27063 153.4866 179.98691 155.62305 179.69336 C 158.37654 179.31502 161.12454 178.92696 163.76172 178.52344 C 157.09546 176.6262 149.27315 179.41456 140.69922 175.75 C 131.72234 171.91326 122.17969 167.05469 122.17969 167.05469 C 117.18725 157.87501 119.75846 152.68523 139.25 147.40625 C 157.52331 142.45721 164.66245 133.89445 175.38281 133.65234 C 176.0975 133.63624 176.8292 133.6556 177.58008 133.7168 C 189.59418 134.69868 183.26445 138.761 192.7168 141.92969 C 202.16914 145.09837 210.75391 143.05859 210.75391 143.05859 C 211.88124 153.04351 209.67107 163.71013 203.99023 169.79102 C 202.67607 171.19775 201.25583 172.49361 199.79688 173.70508 C 200.94236 173.73182 201.92694 173.76453 202.49609 173.78906 C 203.25011 173.82156 204.02497 173.82613 204.79102 173.83984 C 205.89617 172.83188 206.8356 171.8233 207.54102 170.83594 C 213.18425 162.93701 214.25133 151.0749 213.2793 144.44336 C 212.30727 137.81181 213.68164 131.08984 213.68164 131.08984 L 218.94727 130.11719 L 213.95117 123.69922 C 213.95117 123.69922 215.01126 110.85863 211.24219 104.90039 C 207.47312 98.942162 199.65753 94.634618 191 93.986328 C 190.4589 93.945828 189.92491 93.921969 189.39648 93.917969 z M 174.13672 101.66016 C 179.12917 103.91482 176.2331 109.88717 184.87891 117.42773 C 193.52472 124.9683 205.60457 120.61624 206.51562 126.76562 C 206.51562 126.76562 193.7884 133.64605 184.65234 132.45898 C 175.51627 131.27192 155.93612 119.71553 156.17773 116.41406 C 162.45858 109.16695 170.11053 102.86802 174.13672 101.66016 z "
       transform="translate(35.700124,224.55765)"
       id="path4709" />
  </g>
</svg>
