<?xml version="1.0" encoding="UTF-8" standalone="no"?>
<!-- Created with Inkscape (http://www.inkscape.org/) -->

<svg
   xmlns:dc="http://purl.org/dc/elements/1.1/"
   xmlns:cc="http://creativecommons.org/ns#"
   xmlns:rdf="http://www.w3.org/1999/02/22-rdf-syntax-ns#"
   xmlns:svg="http://www.w3.org/2000/svg"
   xmlns="http://www.w3.org/2000/svg"
   xmlns:sodipodi="http://sodipodi.sourceforge.net/DTD/sodipodi-0.dtd"
   xmlns:inkscape="http://www.inkscape.org/namespaces/inkscape"
   width="82.892693mm"
   height="82.892693mm"
   viewBox="0 0 293.71426 293.71425"
   id="svg2"
   version="1.1"
   inkscape:version="0.91 r13725"
   sodipodi:docname="henslow_sparrow.svg">
  <defs
     id="defs4" />
  <sodipodi:namedview
     id="base"
     pagecolor="#ffffff"
     bordercolor="#666666"
     borderopacity="1.0"
     inkscape:pageopacity="0.0"
     inkscape:pageshadow="2"
     inkscape:zoom="0.70000001"
     inkscape:cx="193.09963"
     inkscape:cy="205.41052"
     inkscape:document-units="px"
     inkscape:current-layer="layer1"
     showgrid="false"
     fit-margin-top="0"
     fit-margin-left="0"
     fit-margin-right="0"
     fit-margin-bottom="0"
     inkscape:window-width="1920"
     inkscape:window-height="1017"
     inkscape:window-x="-8"
     inkscape:window-y="-8"
     inkscape:window-maximized="1" />
  <metadata
     id="metadata7">
    <rdf:RDF>
      <cc:Work
         rdf:about="">
        <dc:format>image/svg+xml</dc:format>
        <dc:type
           rdf:resource="http://purl.org/dc/dcmitype/StillImage" />
        <dc:title></dc:title>
      </cc:Work>
    </rdf:RDF>
  </metadata>
  <g
     inkscape:label="Layer 1"
     inkscape:groupmode="layer"
     id="layer1"
     transform="translate(-2205.2093,555.62592)">
    <rect
       style="fill:#829e6d;fill-opacity:1;stroke:#ffffff;stroke-width:8;stroke-linecap:round;stroke-linejoin:round;stroke-miterlimit:4;stroke-dasharray:none;stroke-dashoffset:0;stroke-opacity:0"
       id="rect4399"
       width="285.71426"
       height="285.71426"
       x="-2494.9236"
       y="-551.62592"
       ry="29.94739"
       inkscape:export-filename="E:\INFO\Ornitho\app\src\main\res\mipmap-mdpi\ornitho_launcher.png"
       inkscape:export-xdpi="14.71"
       inkscape:export-ydpi="14.71"
       transform="scale(-1,1)" />
    <path
       style="fill:#000000;fill-opacity:1;fill-rule:evenodd;stroke:#000000;stroke-width:0.5050807px;stroke-linecap:round;stroke-linejoin:round;stroke-opacity:1"
       d="m 2424.4823,-498.17677 c 6.8892,0.0346 10.7672,2.08825 16.4103,4.00217 8.599,2.91644 21.4442,10.07047 22.0755,10.61163 -2.345,3.33714 -12.5392,7.90513 -17.59,9.07764 0,0 -3.2407,8.98449 -3.9568,17.15104 -0.7161,8.16655 3.3604,19.74701 -0.5357,30.08091 -3.8961,10.3339 -16.7638,33.0982 -35.7147,44.51616 -18.9508,11.41796 -36.79,17.15301 -36.79,17.15301 0,0 7.2548,4.27802 10.4874,5.51939 3.2325,1.24137 6.8618,1.80325 10.0285,2.80951 3.1668,1.00626 9.825,10.65953 7.7568,12.30937 -2.0681,1.64983 1.6665,5.29283 -0.091,6.83634 -1.7572,1.54351 -0.5576,1.807 -3.1232,6.26123 -1.8038,-11.90547 -8.2561,-23.22291 -12.6309,-20.78723 -4.3748,2.43568 2.3422,11.02466 4.0406,12.06768 1.6984,1.04303 7.1753,3.36265 7.1224,5.8617 -0.053,2.49905 -1.7243,1.71353 -1.7243,1.71353 0,0 2.2786,10.27157 -5.478,13.15774 2.0744,-10.37219 0.5238,-12.23039 -3.6441,-15.60324 -4.168,-3.37287 -7.0958,15.9278 -7.0958,15.9278 -3.0665,-8.74872 0.7527,-15.73686 0.6847,-19.78792 -0.068,-4.05106 -16.355,-23.79601 -16.355,-23.79601 -11.7348,-0.63776 -25.3661,8.41804 -28.5716,-0.63826 -3.2055,-9.0563 -24.5453,1.48144 -33.0354,7.78042 -8.4902,6.29898 -30.5638,27.06999 -38.2658,31.50539 -7.702,4.4354 -27.9163,10.43761 -10.3324,-4.08109 17.5839,-14.51871 48.2418,-44.28939 55.1031,-52.80658 6.8612,-8.5172 12.9521,-11.35835 6.3776,-10.71422 -6.5745,0.64413 -17.6853,3.54389 -0.51,-8.29142 17.1754,-11.83532 28.7384,-28.53278 43.8779,-40.05132 15.1394,-11.51853 24.7055,-23.44545 29.2878,-32.33108 4.5823,-8.88563 10.8981,-19.46417 28.2007,-23.53657 5.9477,-1.39988 10.3826,-1.93588 13.9912,-1.91772 z m -2.5441,3.33037 c -4.7158,-0.0396 -9.7028,0.64357 -14.1482,2.44451 -11.8543,4.80251 -19.9001,12.39151 -26.3135,27.12047 -1.7204,3.95111 -0.2933,6.2865 2.7937,7.73405 -1.8499,1.48793 -4.1312,3.37972 -6.86,5.76009 -7.7997,6.80388 -32.1993,22.36772 -35.2659,25.70486 4.1489,-2.16464 30.4013,-16.69709 38.693,-23.0887 3.3893,-2.61264 5.4557,-5.16178 6.7308,-7.27139 1.6721,0.40722 3.5518,0.69906 5.54,0.92434 -2.0286,3.42375 -4.4966,7.34507 -6.2592,9.34301 -3.5267,3.99773 -20.7882,13.07783 -20.7882,13.07783 5.9346,-0.95288 22.6204,-8.85314 25.3636,-13.71412 1.2559,-2.22562 2.4608,-5.55445 3.4122,-8.52718 9.0893,0.86131 19.5899,0.75978 21.6869,4.48851 4.1634,7.40305 -4.5777,23.95081 -23.4695,36.22474 -18.8918,12.27394 -62.3984,14.40205 -77.0416,25.25502 -14.6432,10.85297 -23.3593,27.58946 -10.5189,23.71216 12.8403,-3.87729 23.8908,-9.72345 26.9972,-1.49255 3.1063,8.2309 31.1944,0.23372 43.6589,-4.83871 12.4645,-5.07244 29.6318,-12.60998 39.1605,-21.85165 9.5287,-9.24167 21.6068,-29.96131 24.1186,-37.10074 2.5118,-7.13944 -0.4487,-22.00721 0.3374,-29.61825 0.786,-7.61104 5.2697,-15.14284 0,-12.90422 -5.2697,2.23862 -7.6839,-3.91422 -3.7181,-8.9494 3.9658,-5.03517 3.4497,-8.0369 3.4497,-8.0369 -2.593,-2.25482 -9.6997,-4.32967 -17.5594,-4.39578 z m -1.1453,7.42725 c 2.3943,-10e-6 4.3346,1.75907 4.3346,3.92918 0,2.17011 -1.9403,3.92918 -4.3346,3.92917 -2.3943,-2e-5 -4.3356,-2.4802 -4.3356,-4.65029 0,-2.1701 1.9413,-3.20804 4.3356,-3.20806 z m -6.5019,3.36392 c 0.5557,0.0302 -12.0845,3.94799 -13.8819,10.89278 -2.2121,8.54743 -15.4338,3.90331 -10.2821,2.07359 5.1516,-1.82972 11.6206,-10.12829 21.3762,-12.35574 1.8291,-0.41764 2.6595,-0.61761 2.7878,-0.61063 z m 16.7752,8.30029 c 2.2278,-0.0496 -5.1435,4.05743 -7.2073,8.76986 -2.2013,5.02658 -4.1232,1.74669 -1.6682,-2.48003 2.4551,-4.22671 4.4852,-5.56186 8.2974,-6.22275 0.2383,-0.0413 0.4295,-0.0638 0.5781,-0.0671 z m -12.9773,21.16505 a 3.67593,1.2570743 74.97093 0 1 2.0578,3.43593 3.67593,1.2570743 74.97093 0 1 -0.3817,3.69045 3.67593,1.2570743 74.97093 0 1 -2.1496,-3.43593 3.67593,1.2570743 74.97093 0 1 0.3818,-3.69045 3.67593,1.2570743 74.97093 0 1 0.092,0 z m 4.3297,1.44323 a 3.67593,1.2570743 74.97093 0 1 2.0578,3.43593 3.67593,1.2570743 74.97093 0 1 -0.3818,3.69045 3.67593,1.2570743 74.97093 0 1 -2.1495,-3.43594 3.67593,1.2570743 74.97093 0 1 0.3818,-3.69044 3.67593,1.2570743 74.97093 0 1 0.092,0 z m 3.2465,0.72211 a 3.67593,1.2570743 74.97093 0 1 2.0578,3.43593 3.67593,1.2570743 74.97093 0 1 0.061,0.26339 1.2627018,5.5919646 12.726292 0 1 0.3739,-0.12824 1.2627018,5.5919646 12.726292 0 1 0,5.73246 1.2627018,5.5919646 12.726292 0 1 -2.4632,5.1761 1.2627018,5.5919646 12.726292 0 1 0,-5.73247 1.2627018,5.5919646 12.726292 0 1 0.6569,-2.33403 3.67593,1.2570743 74.97093 0 1 -1.1591,-2.72368 3.67593,1.2570743 74.97093 0 1 0.3818,-3.68946 3.67593,1.2570743 74.97093 0 1 0.092,0 z m 5.9358,0.45575 a 5.5919646,1.2627018 79.620485 0 1 2.1584,5.27573 5.5919646,1.2627018 79.620485 0 1 -0.2338,5.72754 5.5919646,1.2627018 79.620485 0 1 -2.2502,-5.27277 5.5919646,1.2627018 79.620485 0 1 0.2348,-5.72754 5.5919646,1.2627018 79.620485 0 1 0.091,-0.003 z m -7.3129,6.71008 a 1.2627018,5.5919646 51.53421 0 1 0.4281,0.13614 1.2627018,5.5919646 51.53421 0 1 -3.5937,4.46779 1.2627018,5.5919646 51.53421 0 1 -1.5024,1.09895 1.2627018,5.5919646 48.958102 0 1 2.0223,-0.51594 1.2627018,5.5919646 48.958102 0 1 -3.3886,4.62465 1.2627018,5.5919646 48.958102 0 1 -5.0469,2.71875 1.2627018,5.5919646 48.958102 0 1 3.3886,-4.62365 1.2627018,5.5919646 48.958102 0 1 2.0036,-1.56161 1.2627018,5.5919646 51.53421 0 1 -2.6399,0.74874 1.2627018,5.5919646 51.53421 0 1 3.5928,-4.46779 1.2627018,5.5919646 51.53421 0 1 4.7361,-2.62603 z m 7.3484,2.53724 a 1.2627018,5.5919646 12.726292 0 1 0.1292,10e-4 1.2627018,5.5919646 12.726292 0 1 0,5.73247 1.2627018,5.5919646 12.726292 0 1 -2.4633,5.1761 1.2627018,5.5919646 12.726292 0 1 0,-5.73247 1.2627018,5.5919646 12.726292 0 1 2.335,-5.17708 z m 5.4533,2.0223 a 1.2627018,5.5919646 6.90266 0 1 0.581,5.70386 1.2627018,5.5919646 6.90266 0 1 -1.098,4.51021 1.2627018,5.5919646 20.212893 0 1 -1.0664,4.29812 1.2627018,5.5919646 20.212893 0 1 -3.1173,4.81109 1.2627018,5.5919646 20.212893 0 1 0.7478,-5.68413 1.2627018,5.5919646 20.212893 0 1 1.9611,-3.94101 1.2627018,5.5919646 6.90266 0 1 0.066,-4.29812 1.2627018,5.5919646 6.90266 0 1 1.9257,-5.40002 z m -16.2406,6.82352 a 1.2627018,5.5919646 48.958102 0 1 0.4331,0.11739 1.2627018,5.5919646 48.958102 0 1 -3.3886,4.62465 1.2627018,5.5919646 48.958102 0 1 -5.0469,2.71875 1.2627018,5.5919646 48.958102 0 1 3.3886,-4.62366 1.2627018,5.5919646 48.958102 0 1 4.6128,-2.83713 z m 6.1695,0.0473 a 1.2627018,5.5919646 40.424964 0 1 0.2634,0.0779 1.2627018,5.5919646 40.424964 0 1 -2.6645,5.07547 1.2627018,5.5919646 40.424964 0 1 -4.5871,3.4379 1.2627018,5.5919646 40.424964 0 1 2.6645,-5.07547 1.2627018,5.5919646 40.424964 0 1 4.3237,-3.51583 z m -13.2899,10.71816 a 1.2627018,5.5919646 61.444666 0 1 0.6224,0.22098 1.2627018,5.5919646 61.444666 0 1 -4.308,3.78218 1.2627018,5.5919646 61.444666 0 1 -5.5154,1.56358 1.2627018,5.5919646 61.444666 0 1 4.308,-3.78219 1.2627018,5.5919646 61.444666 0 1 4.893,-1.78455 z m -1.4304,7.60285 a 1.2627018,5.5919646 35.031847 0 1 0.2693,0.0523 1.2627018,5.5919646 35.031847 0 1 -2.1762,5.30433 1.2627018,5.5919646 35.031847 0 1 -4.2439,3.8542 1.2627018,5.5919646 35.031847 0 1 2.1762,-5.30433 1.2627018,5.5919646 35.031847 0 1 3.9746,-3.90648 z m -6.3135,0 a 1.2627018,5.5919646 35.031847 0 1 0.2693,0.0523 1.2627018,5.5919646 35.031847 0 1 -2.1752,5.30433 1.2627018,5.5919646 35.031847 0 1 -4.2449,3.8542 1.2627018,5.5919646 35.031847 0 1 2.1762,-5.30433 1.2627018,5.5919646 35.031847 0 1 3.9746,-3.90648 z m -10.2822,5.95245 a 1.2627018,5.5919646 35.031847 0 1 0.2694,0.0533 1.2627018,5.5919646 35.031847 0 1 -2.1753,5.30335 1.2627018,5.5919646 35.031847 0 1 -4.2438,3.8542 1.2627018,5.5919646 35.031847 0 1 2.1752,-5.30433 1.2627018,5.5919646 35.031847 0 1 3.9745,-3.90649 z m -13.3895,2.39519 a 1.2627018,5.5919646 54.830653 0 1 0.4192,0.1608 1.2627018,5.5919646 54.830653 0 1 -3.8433,4.25372 1.2627018,5.5919646 54.830653 0 1 -5.2984,2.18902 1.2627018,5.5919646 54.830653 0 1 3.8433,-4.25373 1.2627018,5.5919646 54.830653 0 1 4.8792,-2.34981 z m -13.0749,2.87067 a 1.2627018,5.5919646 67.221885 0 1 0.8661,0.29299 1.2627018,5.5919646 67.221885 0 1 -4.6671,3.32939 1.2627018,5.5919646 67.221885 0 1 -5.6446,1.0003 1.2627018,5.5919646 67.221885 0 1 4.667,-3.32841 1.2627018,5.5919646 67.221885 0 1 4.7786,-1.29427 z m 3.2475,6.67457 a 1.2627018,5.5919646 67.221885 0 1 0.8652,0.29299 1.2627018,5.5919646 67.221885 0 1 -4.6671,3.32938 1.2627018,5.5919646 67.221885 0 1 -5.6447,1.0003 1.2627018,5.5919646 67.221885 0 1 4.6671,-3.32939 1.2627018,5.5919646 67.221885 0 1 4.7795,-1.29328 z m -12.8076,0 a 1.2627018,5.5919646 67.221885 0 1 0.8652,0.29299 1.2627018,5.5919646 67.221885 0 1 -4.6671,3.32938 1.2627018,5.5919646 67.221885 0 1 -5.6447,1.0003 1.2627018,5.5919646 67.221885 0 1 4.6671,-3.32939 1.2627018,5.5919646 67.221885 0 1 4.7795,-1.29328 z m -8.4778,6.49403 a 1.2627018,5.5919646 67.221885 0 1 0.8651,0.29299 1.2627018,5.5919646 67.221885 0 1 -4.6671,3.32939 1.2627018,5.5919646 67.221885 0 1 -5.6446,1.00029 1.2627018,5.5919646 67.221885 0 1 4.6671,-3.32938 1.2627018,5.5919646 67.221885 0 1 4.7795,-1.29329 z"
       id="path4154"
       inkscape:connector-curvature="0" />
  </g>
</svg>
