<?xml version="1.0" encoding="UTF-8" standalone="no"?>
<!-- Created with Inkscape (http://www.inkscape.org/) -->

<svg
   xmlns:dc="http://purl.org/dc/elements/1.1/"
   xmlns:cc="http://creativecommons.org/ns#"
   xmlns:rdf="http://www.w3.org/1999/02/22-rdf-syntax-ns#"
   xmlns:svg="http://www.w3.org/2000/svg"
   xmlns="http://www.w3.org/2000/svg"
   xmlns:sodipodi="http://sodipodi.sourceforge.net/DTD/sodipodi-0.dtd"
   xmlns:inkscape="http://www.inkscape.org/namespaces/inkscape"
   width="82.892693mm"
   height="82.892693mm"
   viewBox="0 0 293.71426 293.71425"
   id="svg2"
   version="1.1"
   inkscape:version="0.91 r13725"
   sodipodi:docname="heron.svg">
  <defs
     id="defs4" />
  <sodipodi:namedview
     id="base"
     pagecolor="#ffffff"
     bordercolor="#666666"
     borderopacity="1.0"
     inkscape:pageopacity="0.0"
     inkscape:pageshadow="2"
     inkscape:zoom="1.979899"
     inkscape:cx="257.91058"
     inkscape:cy="101.1065"
     inkscape:document-units="px"
     inkscape:current-layer="layer1"
     showgrid="false"
     fit-margin-top="0"
     fit-margin-left="0"
     fit-margin-right="0"
     fit-margin-bottom="0"
     inkscape:window-width="1920"
     inkscape:window-height="1017"
     inkscape:window-x="-8"
     inkscape:window-y="-8"
     inkscape:window-maximized="1" />
  <metadata
     id="metadata7">
    <rdf:RDF>
      <cc:Work
         rdf:about="">
        <dc:format>image/svg+xml</dc:format>
        <dc:type
           rdf:resource="http://purl.org/dc/dcmitype/StillImage" />
        <dc:title />
      </cc:Work>
    </rdf:RDF>
  </metadata>
  <g
     inkscape:label="Layer 1"
     inkscape:groupmode="layer"
     id="layer1"
     transform="translate(-469.60197,-614.64951)">
    <rect
       style="fill:#829e6d;fill-opacity:1;stroke:#ffffff;stroke-width:8;stroke-linecap:round;stroke-linejoin:round;stroke-miterlimit:4;stroke-dasharray:none;stroke-dashoffset:0;stroke-opacity:0"
       id="rect4367"
       width="285.71426"
       height="285.71426"
       x="473.60184"
       y="618.64954"
       ry="29.94739"
       inkscape:export-filename="E:\INFO\Ornitho\app\src\main\res\mipmap-mdpi\ornitho_launcher.png"
       inkscape:export-xdpi="14.71"
       inkscape:export-ydpi="14.71" />
    <path
       style="fill:#000000;fill-opacity:1;fill-rule:evenodd;stroke:#000000;stroke-width:1px;stroke-linecap:round;stroke-linejoin:round;stroke-opacity:1"
       d="m 687.90456,683.57057 c -1.13642,-2.39911 -22.19899,-7.5954 -31.08193,-12.03454 -8.88294,-4.43914 -14.83931,-8.3788 -21.71021,-7.30502 -6.8709,1.07378 -14.35732,6.17666 -16.07515,14.13406 -1.71783,7.9574 2.45301,18.56305 8.27928,23.67231 5.82627,5.10926 12.23009,2.00499 14.95667,7.60833 2.72658,5.60334 0.72285,13.7694 -6.04976,16.86494 -6.77261,3.09554 -7.84312,-12.74604 -26.436,-8.27557 -18.59288,4.47047 -42.714,40.50023 -52.00544,60.19435 -9.29144,19.69412 -17.52466,59.00819 -9.54197,45.8517 7.98268,-13.15648 14.63817,-19.31198 20.73967,-21.97698 6.1015,-2.665 27.57922,-16.06399 27.57922,-16.06399 2.02031,3.6618 0.17936,14.29581 -0.44008,21.28064 -0.31604,3.5636 -2.35725,10.1655 -2.81201,16.12838 -0.4366,5.72466 0.70769,10.8109 0.6512,14.38477 -0.11532,7.29645 0.62763,20.92625 0.62763,20.92625 l 4.11612,0 c 0,0 -0.856,-14.70201 -0.6493,-21.15776 0.0983,-3.06972 1.14105,-7.13967 1.48539,-11.24826 0.37983,-4.53196 0.0741,-9.11094 0.4266,-12.44637 0.67214,-6.35926 3.86729,-20.91605 3.86729,-20.91605 0,0 -0.44253,13.74888 0.16588,24.58158 0.11995,2.13558 -0.77353,5.4601 -0.6635,9.08679 0.15532,5.1193 1.30755,10.966 1.42692,16.0088 0.22501,9.50609 0.36929,16.09127 0.36929,16.09127 l 3.92857,0 c 0,0 -0.18333,-9.94674 -0.31382,-16.73463 -0.0615,-3.20005 0.80966,-9.22797 0.71734,-15.51501 -0.10352,-7.04891 -1.15855,-14.39108 -0.96987,-17.79772 0.35696,-6.44507 0.78245,-12.0082 2.35206,-25.33548 1.56962,-13.32729 17.09978,-25.7925 25.81889,-32.29387 8.71911,-6.50136 16.72831,-14.99089 18.46311,-25.06127 1.7348,-10.07038 -2.35681,-23.99415 -7.53961,-29.81618 -5.1828,-5.82203 -15.87671,-3.65641 -16.21936,-10.38932 -0.34265,-6.73291 5.69649,-4.9915 14.10868,-6.20513 8.41218,-1.21363 39.49397,5.45306 42.4282,3.75898 z"
       id="path4144"
       inkscape:connector-curvature="0"
       sodipodi:nodetypes="czzzzzzzzzzcsssccssscsssccssszzzzzzc" />
  </g>
</svg>
