<?xml version="1.0" encoding="UTF-8" standalone="no"?>
<!-- Created with Inkscape (http://www.inkscape.org/) -->

<svg
   xmlns:dc="http://purl.org/dc/elements/1.1/"
   xmlns:cc="http://creativecommons.org/ns#"
   xmlns:rdf="http://www.w3.org/1999/02/22-rdf-syntax-ns#"
   xmlns:svg="http://www.w3.org/2000/svg"
   xmlns="http://www.w3.org/2000/svg"
   xmlns:sodipodi="http://sodipodi.sourceforge.net/DTD/sodipodi-0.dtd"
   xmlns:inkscape="http://www.inkscape.org/namespaces/inkscape"
   width="82.892693mm"
   height="82.892693mm"
   viewBox="0 0 293.71426 293.71426"
   id="svg4148"
   version="1.1"
   inkscape:version="0.91 r13725"
   sodipodi:docname="hooded_warbler.svg">
  <defs
     id="defs4150" />
  <sodipodi:namedview
     id="base"
     pagecolor="#ffffff"
     bordercolor="#666666"
     borderopacity="1.0"
     inkscape:pageopacity="0.0"
     inkscape:pageshadow="2"
     inkscape:zoom="1.4"
     inkscape:cx="116.06848"
     inkscape:cy="193.80132"
     inkscape:document-units="px"
     inkscape:current-layer="layer1"
     showgrid="false"
     fit-margin-top="0"
     fit-margin-left="0"
     fit-margin-right="0"
     fit-margin-bottom="0"
     inkscape:window-width="1920"
     inkscape:window-height="1017"
     inkscape:window-x="-8"
     inkscape:window-y="-8"
     inkscape:window-maximized="1" />
  <metadata
     id="metadata4153">
    <rdf:RDF>
      <cc:Work
         rdf:about="">
        <dc:format>image/svg+xml</dc:format>
        <dc:type
           rdf:resource="http://purl.org/dc/dcmitype/StillImage" />
        <dc:title></dc:title>
      </cc:Work>
    </rdf:RDF>
  </metadata>
  <g
     inkscape:label="Layer 1"
     inkscape:groupmode="layer"
     id="layer1"
     transform="translate(972.6565,40.969395)">
    <rect
       inkscape:export-ydpi="14.71"
       inkscape:export-xdpi="14.71"
       inkscape:export-filename="E:\INFO\Ornitho\app\src\main\res\mipmap-mdpi\ornitho_launcher.png"
       ry="29.94739"
       y="-36.969395"
       x="-968.65649"
       height="285.71426"
       width="285.71426"
       id="rect4197"
       style="fill:#829e6d;fill-opacity:1;stroke:#ffffff;stroke-width:8;stroke-linecap:round;stroke-linejoin:round;stroke-miterlimit:4;stroke-dasharray:none;stroke-dashoffset:0;stroke-opacity:0" />
    <path
       style="fill:#000000;fill-opacity:1;fill-rule:evenodd;stroke:#000000;stroke-width:1;stroke-linecap:round;stroke-linejoin:round;stroke-opacity:1;stroke-miterlimit:4;stroke-dasharray:none"
       d="m -797.66064,-7.0642382 c -22.10845,0.05941 -35.03435,14.0555704 -47.3787,24.9074362 -14.63034,12.861472 -30.2225,35.703124 -38.33841,43.739761 -8.11591,8.036623 -16.20626,7.516412 -30.59835,7.74006 -14.39208,0.223648 -9.72869,6.587779 8.02685,8.76466 17.75553,2.176881 14.73879,2.580742 -3.88952,2.394414 -18.6283,-0.186329 -9.0689,4.963481 1.67051,6.370246 10.73943,1.406763 9.78687,8.239928 13.9906,13.069028 4.20373,4.829113 4.08049,18.686993 13.85973,29.880003 9.77925,11.193 24.30049,14.58085 24.30049,14.58085 -2.29098,8.14578 -11.43391,18.96517 -13.08853,44.67524 3.69105,-9.41853 7.4032,-17.88012 7.4032,-17.88012 0,0 -0.57197,16.51229 0.57355,20.83973 2.92738,-6.49115 5.27047,-21.85874 5.27047,-21.85874 1.52734,4.20016 3.29929,21.21281 3.29929,21.21281 3.05465,-22.27359 -2.19842,-29.51308 -1.83758,-33.88927 0.36084,-4.37617 3.90346,-10.25976 3.90346,-10.25976 0,0 14.12297,7.9929 29.0336,8.68112 14.91065,0.68823 27.49674,-3.34661 27.49674,-3.34661 0,0 10.23573,13.28582 11.1201,18.13627 0.88437,4.85046 1.00748,18.24127 -3.95635,33.26004 4.96383,-4.45473 8.72011,-15.47179 8.72011,-15.47179 0,0 -2.23491,19.03118 -6.56235,30.3589 9.80038,-7.50939 10.41847,-28.76356 10.41847,-28.76356 l 4.61341,22.66616 c 1.52733,-14.12782 -0.91639,-36.13734 -3.24358,-39.65255 -2.32719,-3.5152 -9.37957,-12.39763 -13.32518,-21.6889 0,0 21.23012,-8.36571 33.47998,-25.01881 12.24986,-16.6531 13.54158,-30.049506 14.21891,-41.938368 0.67733,-11.888878 -6.91425,-21.360491 -5.03941,-27.360318 1.87486,-5.99984 -4.49926,-17.999851 -4.49926,-17.999851 5.03992,-2.879957 17.27917,-4.499421 18.89915,-8.639357 -5.39993,-6.119929 -20.70053,-5.04219 -20.70053,-5.04219 0,0 -3.97659,-24.2150862 -34.56025,-30.9575002 -4.77869,-1.053501 -9.18646,-1.520035 -13.28062,-1.509034 z m 26.06844,14.0434949 c 9.39896,-0.019936 19.29226,19.5252233 15.65276,21.1237163 -3.7569,1.650041 -11.36771,5.307229 -21.5998,6.659794 -10.23209,1.352567 -2.71825,7.390284 7.3809,5.401356 10.09914,-1.988942 -3.80184,17.560865 -14.76181,18.899134 -10.95997,1.338268 -30.44138,-1.920988 -36.35884,-12.601291 -5.91747,-10.680302 6.31131,-17.072842 14.58084,-24.837826 8.26952,-7.764977 24.54415,-13.2169719 34.19831,-14.5808466 0.30168,-0.042622 0.60445,-0.063394 0.90764,-0.064036 z m -19.71769,18.0861513 a 7.6294849,7.2694886 0 0 0 -7.62871,7.266752 7.6294849,7.2694886 0 0 0 7.62871,7.269543 7.6294849,7.2694886 0 0 0 7.63149,-7.269543 7.6294849,7.2694886 0 0 0 -7.63149,-7.266752 z m -45.25157,38.730982 c 0.9919,0.100029 2.2029,1.025968 3.79486,3.043135 10.1885,12.909785 16.67549,32.473049 30.54545,42.765285 13.86994,10.29223 35.1115,3.8154 45.05667,-8.90943 9.94515,-12.724858 10.77581,-35.906308 12.21984,-20.875936 1.44402,15.030387 -7.10221,36.478746 -20.36642,49.386116 -13.26419,12.90738 -33.58335,18.43777 -51.92807,18.8351 -18.34471,0.39734 -34.67407,-7.42577 -48.36429,-14.50846 -13.69024,-7.08269 -15.96589,-23.99433 -23.42069,-35.637737 -4.06614,-6.350773 1.37891,-13.142114 6.35076,-8.035198 5.13563,5.275141 14.31875,4.645622 23.94132,1.926676 17.86128,-5.046874 16.81426,-28.52969 22.17057,-27.989551 z"
       id="path4177"
       inkscape:connector-curvature="0" />
  </g>
</svg>
