<?xml version="1.0" encoding="UTF-8" standalone="no"?>
<!-- Created with Inkscape (http://www.inkscape.org/) -->

<svg
   xmlns:dc="http://purl.org/dc/elements/1.1/"
   xmlns:cc="http://creativecommons.org/ns#"
   xmlns:rdf="http://www.w3.org/1999/02/22-rdf-syntax-ns#"
   xmlns:svg="http://www.w3.org/2000/svg"
   xmlns="http://www.w3.org/2000/svg"
   xmlns:sodipodi="http://sodipodi.sourceforge.net/DTD/sodipodi-0.dtd"
   xmlns:inkscape="http://www.inkscape.org/namespaces/inkscape"
   width="82.892693mm"
   height="82.892693mm"
   viewBox="0 0 293.71426 293.71425"
   id="svg2"
   version="1.1"
   inkscape:version="0.91 r13725"
   sodipodi:docname="house_sparrow.svg">
  <defs
     id="defs4" />
  <sodipodi:namedview
     id="base"
     pagecolor="#ffffff"
     bordercolor="#666666"
     borderopacity="1.0"
     inkscape:pageopacity="0.0"
     inkscape:pageshadow="2"
     inkscape:zoom="1.4"
     inkscape:cx="-9.621414"
     inkscape:cy="165.91379"
     inkscape:document-units="px"
     inkscape:current-layer="layer1"
     showgrid="false"
     fit-margin-top="0"
     fit-margin-left="0"
     fit-margin-right="0"
     fit-margin-bottom="0"
     inkscape:window-width="1920"
     inkscape:window-height="1017"
     inkscape:window-x="-8"
     inkscape:window-y="-8"
     inkscape:window-maximized="1" />
  <metadata
     id="metadata7">
    <rdf:RDF>
      <cc:Work
         rdf:about="">
        <dc:format>image/svg+xml</dc:format>
        <dc:type
           rdf:resource="http://purl.org/dc/dcmitype/StillImage" />
        <dc:title />
      </cc:Work>
    </rdf:RDF>
  </metadata>
  <g
     inkscape:label="Layer 1"
     inkscape:groupmode="layer"
     id="layer1"
     transform="translate(-3073.0131,-224.55765)">
    <rect
       style="fill:#829e6d;fill-opacity:1;stroke:#ffffff;stroke-width:8;stroke-linecap:round;stroke-linejoin:round;stroke-miterlimit:4;stroke-dasharray:none;stroke-dashoffset:0;stroke-opacity:0"
       id="rect4423"
       width="285.71426"
       height="285.71426"
       x="3077.0129"
       y="228.55765"
       ry="29.94739"
       inkscape:export-filename="E:\INFO\Ornitho\app\src\main\res\mipmap-mdpi\ornitho_launcher.png"
       inkscape:export-xdpi="14.71"
       inkscape:export-ydpi="14.71" />
    <path
       style="fill:#000000;fill-opacity:1;fill-rule:evenodd;stroke:#000000;stroke-width:1;stroke-linecap:round;stroke-linejoin:round;stroke-miterlimit:4;stroke-dasharray:none;stroke-opacity:1"
       d="m 3257.9518,255.82028 c 15.5342,-0.0563 24.9155,15.6083 24.9155,15.6083 0,0 17.8298,10.69791 19.8267,15.1196 l -20.1113,7.27409 c 0,0 -3.7136,11.77966 -2.8527,16.97398 0.8608,5.19432 5.9621,6.99992 5.562,17.25859 -0.4001,10.25866 -4.5334,31.08036 -13.1218,47.21208 -8.5885,16.13173 -44.7874,36.08694 -44.7874,36.08694 0,0 10.4019,7.94095 15.4042,11.41085 5.0023,3.46991 16.8307,1.99661 20.1113,10.12681 0,0 -13.2607,-6.67739 -22.536,-4.13567 -9.2752,2.54173 -13.5506,7.13103 -16.546,9.8411 0.7132,-10.55501 11.3773,-8.08816 10.2702,-14.54818 -1.107,-6.46002 -11.9811,-11.69657 -11.9811,-11.69657 -2.2822,-0.85581 -14.2634,0.85571 -16.2603,3.85105 0,0 12.5213,-1.77722 16.5449,-0.42801 4.0236,1.3492 4.9928,6.84717 4.9928,6.84717 0,0 -8.8355,-5.03494 -16.8317,-0.85604 -7.9962,4.17891 -9.1284,13.12293 -9.1284,13.12293 -2.1395,-4.8496 1.5686,-11.28904 1.5686,-13.40864 0,-2.1196 -3.423,-4.56368 -3.423,-4.56368 0,0 -6.9054,3.96165 -11.5532,15.11961 -4.6478,11.15795 -9.0162,47.83399 -12.1235,53.48783 -3.1072,5.65384 -9.4618,-6.6415 -12.6949,-6.56146 -3.233,0.08 -12.2926,10.10542 -13.2652,2.71041 -0.5346,-4.06486 7.1976,-17.44059 11.7484,-32.50506 3.7284,-12.34163 4.3834,-26.61444 4.5119,-31.11068 0,0 -7.2365,2.88466 -14.1257,6.59345 -6.7913,3.65602 -13.2252,8.15701 -14.8295,5.38773 -0.978,-1.68817 2.2316,-10.45757 11.3557,-16.00874 4.9603,-3.01789 14.6616,-30.65727 31.3666,-64.53686 11.6978,-23.72432 35.8768,-39.74597 39.4361,-50.25012 3.5592,-10.50416 2.3659,-27.10803 25.5321,-39.79569 4.7056,-2.57718 9.0651,-3.61276 13.0247,-3.62712 z m 14.7755,7.11303 c -0.1684,-0.009 -0.331,-1.5e-4 -0.4876,0.0287 -2.5071,0.46135 0.7151,2.5364 -2.4214,2.82403 -3.1366,0.28763 -7.4279,-2.5698 -12.5063,-1.6139 -5.0784,0.95591 -14.5491,3.88392 -13.8168,7.36235 0.4551,2.16188 7.2309,1.95875 12.4919,2.40925 3.3217,0.28443 5.6065,-1.10685 7.679,-1.2995 2.6684,-0.24803 5.1698,1.8481 7.8268,3.12519 2.7954,1.34366 5.425,1.60006 7.4031,0.90899 1.7995,-0.62866 3.2455,-4.61814 1.6139,-7.06008 -1.5296,-2.28933 -5.257,-6.54249 -7.7826,-6.68502 z m -3.2565,65.07078 c -4.8148,0.0722 1.5134,18.34896 -13.7947,32.98051 -15.8944,15.19194 -52.251,35.03817 -56.3527,42.18398 -4.1018,7.14581 -11.5519,21.47504 -4.8836,14.73019 6.6683,-6.74485 19.7844,-7.79523 29.6965,-9.13066 9.9121,-1.33543 29.2456,-17.16835 39.6666,-27.58727 10.421,-10.41892 9.691,-15.49232 13.0336,-25.70641 3.3426,-10.21409 5.3814,-19.95161 -4.524,-26.32307 -1.2382,-0.79644 -2.1539,-1.15758 -2.8417,-1.14727 z m -30.7003,11.18802 c -1.2159,-0.0372 -2.6777,0.0949 -4.3994,0.41699 -24.9468,4.66725 -45.0797,3.92517 -49.351,8.13012 -4.2713,4.20496 -7.6144,13.76432 -13.4197,24.73676 -5.4916,10.37948 -9.8909,19.29664 -3.6966,18.76658 12.7426,-1.09039 18.0899,4.92295 31.9502,-8.98616 6.2079,-6.22973 23.6337,-15.79992 33.3865,-24.6794 10.5194,-9.5775 14.041,-18.12412 5.53,-18.38489 z"
       id="path7643"
       inkscape:connector-curvature="0" />
  </g>
</svg>
