<?xml version="1.0" encoding="UTF-8" standalone="no"?>
<!-- Created with Inkscape (http://www.inkscape.org/) -->

<svg
   xmlns:dc="http://purl.org/dc/elements/1.1/"
   xmlns:cc="http://creativecommons.org/ns#"
   xmlns:rdf="http://www.w3.org/1999/02/22-rdf-syntax-ns#"
   xmlns:svg="http://www.w3.org/2000/svg"
   xmlns="http://www.w3.org/2000/svg"
   xmlns:sodipodi="http://sodipodi.sourceforge.net/DTD/sodipodi-0.dtd"
   xmlns:inkscape="http://www.inkscape.org/namespaces/inkscape"
   width="82.892693mm"
   height="82.892693mm"
   viewBox="0 0 293.71426 293.71425"
   id="svg2"
   version="1.1"
   inkscape:version="0.91 r13725"
   sodipodi:docname="jay.svg">
  <defs
     id="defs4" />
  <sodipodi:namedview
     id="base"
     pagecolor="#ffffff"
     bordercolor="#666666"
     borderopacity="1.0"
     inkscape:pageopacity="0.0"
     inkscape:pageshadow="2"
     inkscape:zoom="1.4"
     inkscape:cx="6.1157074"
     inkscape:cy="270.62912"
     inkscape:document-units="px"
     inkscape:current-layer="layer1"
     showgrid="false"
     fit-margin-top="0"
     fit-margin-left="0"
     fit-margin-right="0"
     fit-margin-bottom="0"
     inkscape:window-width="1920"
     inkscape:window-height="1017"
     inkscape:window-x="-8"
     inkscape:window-y="-8"
     inkscape:window-maximized="1" />
  <metadata
     id="metadata7">
    <rdf:RDF>
      <cc:Work
         rdf:about="">
        <dc:format>image/svg+xml</dc:format>
        <dc:type
           rdf:resource="http://purl.org/dc/dcmitype/StillImage" />
        <dc:title />
      </cc:Work>
    </rdf:RDF>
  </metadata>
  <g
     inkscape:label="Layer 1"
     inkscape:groupmode="layer"
     id="layer1"
     transform="translate(-3510.156,159.81979)">
    <rect
       style="fill:#829e6d;fill-opacity:1;stroke:#ffffff;stroke-width:8;stroke-linecap:round;stroke-linejoin:round;stroke-miterlimit:4;stroke-dasharray:none;stroke-dashoffset:0;stroke-opacity:0"
       id="rect4410"
       width="285.71426"
       height="285.71426"
       x="3514.1558"
       y="-155.81979"
       ry="29.94739"
       inkscape:export-filename="E:\INFO\Ornitho\app\src\main\res\mipmap-mdpi\ornitho_launcher.png"
       inkscape:export-xdpi="14.71"
       inkscape:export-ydpi="14.71" />
    <path
       style="fill:#000000;fill-opacity:1;fill-rule:evenodd;stroke:#000000;stroke-width:1.10239208px;stroke-linecap:round;stroke-linejoin:round;stroke-opacity:1"
       d="m 3710.4653,-112.38282 c -5.403,0.21182 -5.6228,16.267015 -10.8667,25.723195 -2.0635,3.721059 -11.3514,10.056639 -15.6919,17.959085 -4.3403,7.902448 -19.0704,13.152277 -35.6016,34.385164 -17.9171,23.012908 -30.3618,36.1736072 -41.5766,48.888498 -13.4865,15.29064 9.4521,2.538676 -3.8971,14.197608 -13.3493,11.65892 -42.0949,36.495207 -48.4407,45.518881 -6.3457,9.023685 4.9981,17.632596 21.994,7.794265 16.9958,-9.838342 27.3844,-24.059553 41.4797,-36.331579 14.0953,-12.272016 18.9198,-13.468994 27.1442,-14.475345 4.3887,-0.53702 17.1732,-0.01292 17.1732,-0.01292 0,0 2.7484,9.880806 2.7323,11.984203 -0.034,4.510029 -5.1497,4.732238 -3.4794,11.831335 0,0 1.8559,-5.061336 6.8211,-7.794254 4.9653,-2.732918 11.8313,0.137799 11.8313,0.137799 -0.5568,-1.531178 -5.7531,-3.567704 -5.7531,-3.567704 2.6449,-0.278399 9.6545,2.710771 9.6545,2.710771 -0.1392,-3.758353 -13.5059,-3.457058 -14.6196,-8.468179 -1.5311,-5.289531 22.9023,-5.277636 25.0558,-4.594737 2.1534,0.682887 3.3225,0.867472 3.7571,3.619373 0.4347,2.751901 -2.5045,3.342177 -1.8086,5.430141 0,0 1.5885,-2.111665 8.0763,-3.466505 3.6336,-0.758798 15.4163,0.08397 15.4163,0.08397 0.4176,-1.113581 -7.4024,-3.289946 -7.4024,-3.289946 0,0 6.7386,-0.148128 9.801,1.52225 -0.4176,-4.593536 -15.0352,-5.430152 -15.0352,-5.430152 0,0 24.5431,-24.5741931 29.7904,-38.8356298 5.2473,-14.2614482 6.9362,-24.4381582 4.8704,-33.5475982 -2.0658,-9.109441 0.075,-13.766981 0.075,-13.766981 0,0 18.8628,0.30146 19.4534,-0.387568 -0.5906,-2.066985 -16.7857,-11.398556 -16.7857,-11.398556 -3.9371,-20.374569 -9.4945,-16.310421 -24.8318,-38.045444 -4.3136,-6.11298 -7.2217,-8.45633 -9.3359,-8.37344 z m 4.1792,32.908121 c 0.9392,-0.01282 1.9855,0.03894 3.1479,0.165789 9.2986,1.0148 12.0276,6.278707 12.4643,11.954064 0.086,1.111805 -1.977,1.049474 -3.6021,0.195933 -1.5833,-0.831562 -3.3162,-2.870071 -5.456,-3.294257 -2.1399,-0.424186 -2.9274,0.724899 -4.5302,1.151914 -1.4281,0.38051 -2.9046,0.493231 -2.9454,0.654545 -0.053,0.209363 1.2811,0.496468 2.9799,1.782774 1.0805,0.818248 1.8499,2.358979 3.8088,2.547129 1.959,0.188152 4.278,-0.539557 5.4431,0.219617 1.1651,0.759175 2.3736,1.495239 2.1445,2.926076 -0.2292,1.430831 0.338,3.041374 1.322,4.510759 0.984,1.469412 6.5911,2.60632 7.7275,4.039242 1.1365,1.432911 0.3705,6.532434 1.7569,14.514105 1.3865,7.981682 -1.3107,26.191358 -7.1181,34.8007092 -5.8073,8.609351 -15.0941,20.7486728 -23.0211,28.2875568 -7.927,7.538884 -18.2416,4.869949 -25.9579,4.980144 -7.7164,0.110184 -16.3267,4.142911 -16.8847,0.462917 -0.3671,-2.42136 -6.9548,-2.092682 -17.9569,-1.929186 -11.0021,0.163495 -14.5853,5.803035 -11.25,-1.259572 3.3354,-7.062606 12.0374,-13.267089 19.1562,-17.203346 7.1188,-3.9362558 17.8939,-5.9009058 30.5893,-8.8944958 12.6953,-2.99359 21.998,-4.298138 32.6067,-12.3911402 10.6075,-8.093013 16.6385,-18.458177 13.67,-26.720088 -2.9684,-8.261921 -19.1939,-12.342932 -23.2988,-18.475837 -2.9338,-4.383152 -1.9131,-7.261978 -1.6234,-9.314351 0.2897,-2.052372 3.4921,-1.558309 3.4105,-2.443779 -0.081,-0.88547 -2.6325,10e-4 -3.6194,-4.196411 -0.8635,-3.672738 0.462,-6.981072 7.0364,-7.070811 z m -44.0935,53.044006 c 0.1003,-0.03259 0.223,-0.03236 0.3682,0.0043 2.3234,0.586649 3.7701,3.167724 9.915,7.180618 6.145,4.012884 26.7609,9.9396632 23.3957,11.1229602 -3.365,1.183297 -9.5021,-0.865554 -20.8938,-5.5313402 -10.6797,-4.37416 -14.2899,-12.287769 -12.7851,-12.776548 z m -26.0914,1.974395 c 2.0117,0.211174 2.4873,5.74742 0.844,8.270101 -2.1911,3.363575 -8.0358,2.712447 -10.2359,5.117944 -2.2,2.4054852 4.9544,1.4238932 2.4589,5.7100382 -2.4956,4.286155 -6.932,2.573677 -7.973,5.41292103 -1.041,2.83924397 9.126,3.74964297 6.1041,7.57894557 -3.0219,3.8293022 -23.6009,3.0506382 -19.0959,-1.5739186 4.5049,-4.624556 21.4352,-22.9548012 25.3959,-28.6428242 0.9902,-1.421998 1.8313,-1.943583 2.5019,-1.873207 z m -39.4019,78.633714 a 2.1061883,22.362037 50.879383 0 1 0.4629,0.08398 2.1061883,22.362037 50.879383 0 1 -16.1117,15.805976 2.1061883,22.362037 50.879383 0 1 -18.5986,12.397601 2.1061883,22.362037 50.879383 0 1 16.1118,-15.805976 2.1061883,22.362037 50.879383 0 1 18.1356,-12.481581 z"
       id="path5795"
       inkscape:connector-curvature="0" />
  </g>
</svg>
