<?xml version="1.0" encoding="UTF-8" standalone="no"?>
<!-- Created with Inkscape (http://www.inkscape.org/) -->

<svg
   xmlns:dc="http://purl.org/dc/elements/1.1/"
   xmlns:cc="http://creativecommons.org/ns#"
   xmlns:rdf="http://www.w3.org/1999/02/22-rdf-syntax-ns#"
   xmlns:svg="http://www.w3.org/2000/svg"
   xmlns="http://www.w3.org/2000/svg"
   xmlns:sodipodi="http://sodipodi.sourceforge.net/DTD/sodipodi-0.dtd"
   xmlns:inkscape="http://www.inkscape.org/namespaces/inkscape"
   width="82.892693mm"
   height="82.892693mm"
   viewBox="0 0 293.71426 293.71425"
   id="svg2"
   version="1.1"
   inkscape:version="0.91 r13725"
   sodipodi:docname="meadowlark.svg">
  <defs
     id="defs4" />
  <sodipodi:namedview
     id="base"
     pagecolor="#ffffff"
     bordercolor="#666666"
     borderopacity="1.0"
     inkscape:pageopacity="0.0"
     inkscape:pageshadow="2"
     inkscape:zoom="2.8"
     inkscape:cx="144.60783"
     inkscape:cy="153.81655"
     inkscape:document-units="px"
     inkscape:current-layer="layer1"
     showgrid="false"
     fit-margin-top="0"
     fit-margin-left="0"
     fit-margin-right="0"
     fit-margin-bottom="0"
     inkscape:window-width="1920"
     inkscape:window-height="1017"
     inkscape:window-x="-8"
     inkscape:window-y="-8"
     inkscape:window-maximized="1" />
  <metadata
     id="metadata7">
    <rdf:RDF>
      <cc:Work
         rdf:about="">
        <dc:format>image/svg+xml</dc:format>
        <dc:type
           rdf:resource="http://purl.org/dc/dcmitype/StillImage" />
        <dc:title />
      </cc:Work>
    </rdf:RDF>
  </metadata>
  <g
     inkscape:label="Layer 1"
     inkscape:groupmode="layer"
     id="layer1"
     transform="translate(-2639.1112,-224.55765)">
    <rect
       inkscape:export-ydpi="14.71"
       inkscape:export-xdpi="14.71"
       inkscape:export-filename="E:\INFO\Ornitho\app\src\main\res\mipmap-mdpi\ornitho_launcher.png"
       ry="29.94739"
       y="228.55765"
       x="-2928.8252"
       height="285.71426"
       width="285.71426"
       id="rect4413"
       style="fill:#829e6d;fill-opacity:1;stroke:#ffffff;stroke-width:8;stroke-linecap:round;stroke-linejoin:round;stroke-miterlimit:4;stroke-dasharray:none;stroke-dashoffset:0;stroke-opacity:0"
       transform="scale(-1,1)" />
    <path
       style="fill:#000000;fill-opacity:1;fill-rule:evenodd;stroke:#000000;stroke-width:0.22738007;stroke-linecap:round;stroke-linejoin:round;stroke-miterlimit:4;stroke-dasharray:none;stroke-opacity:1"
       d="m 2869.5005,250.9046 c 1.1181,0.005 2.042,0.10348 2.7019,0.31665 0,0 -20.497,7.17202 -24.1263,13.31949 -3.6294,6.14747 -3.8236,15.67337 0.8123,14.43331 4.6358,-1.24007 26.7225,15.95968 26.7225,15.95968 l -24.0224,-6.95908 c 10.1063,14.70007 2.8395,17.67944 10.7956,23.54317 7.9563,5.86373 8.4127,8.58523 11.135,18.4844 2.7223,9.89917 -5.4015,43.56726 -18.8126,63.68151 -13.4111,20.11425 -51.8954,32.55533 -51.8954,32.55533 0,0 12.8693,13.03703 19.7713,21.04775 6.9022,8.01072 7.7961,18.09302 5.1649,26.64873 -2.6311,8.55581 -6.273,17.01526 -15.0435,17.98971 5.5221,-3.89789 10.218,-25.95217 9.2436,-32.44874 0,0 -9.5866,11.20588 -12.6725,17.21512 0,-3.89789 6.9466,-19.34947 6.9466,-19.34947 -3.8978,0.97448 -7.1317,5.79108 -7.1317,5.79108 0,0 -2.0107,-7.36838 4.5049,-10.32447 6.5157,-2.9561 -18.1615,-24.89457 -18.1615,-24.89457 -6.1717,1.78656 -21.233,3.893 -24.1565,3.893 0,0 12.5913,19.49428 17.034,19.48407 4.4427,-0.0106 10.4479,-0.10977 12.9878,4.86291 2.5397,4.9727 1.8472,13.23842 -3.5124,12.91361 0.4872,-5.84693 -5.6193,-10.7002 -5.6193,-10.7002 0,0 8.7097,25.93393 2.3755,30.64391 1.7865,-4.38517 -7.0808,-22.45378 -7.0808,-22.45378 0,0 -10.2507,10.89415 -1.1555,22.10075 -9.9269,-1.67401 -9.495,-17.22318 -6.3524,-24.17028 3.1426,-6.94713 -7.3075,-22.63922 -16.7276,-33.19615 -36.2184,23.06283 -44.0469,44.53852 -51.1485,50.58279 -7.1015,6.04415 -1.178,-7.33735 -3.7633,-7.83272 -2.5853,-0.49526 -17.6494,10.14837 -9.6885,-2.79377 7.9608,-12.94217 4.4153,-7.89525 15.2797,-27.07247 10.8645,-19.17721 7.0202,-32.86296 23.0405,-63.61179 16.0202,-30.74882 29.299,-50.31634 35.5312,-54.73064 13.7741,-9.75613 8.4053,-9.86515 16.9283,-19.64484 8.523,-9.77969 5.2145,-29.53378 18.0829,-42.56093 12.8685,-13.02715 34.0778,-7.60169 34.0778,-7.60169 2.7712,-0.71056 20.1074,-5.16209 27.9344,-5.12138 z m -39.3444,8.8958 c -5.0549,-0.0721 -11.418,1.3295 -16.4459,5.03567 -7.4646,5.50231 -9.2567,18.44772 -8.9523,20.91408 0.7594,6.15114 8.899,13.28678 15.4952,16.52147 6.5962,3.2347 20.4246,6.94622 28.8241,16.33007 8.3993,9.38383 6.8642,-5.15444 6.5393,-7.10341 -0.3248,-1.94898 -1.9958,-11.36938 -4.0648,-16.06405 -2.0691,-4.69467 -2.4314,-8.18936 -9.9515,-8.93177 -7.5201,-0.74241 -6.4246,-1.10209 -9.204,-7.58881 -2.7793,-6.48673 8.2794,-16.01522 4.247,-17.90662 -1.55,-0.72702 -3.8392,-1.1689 -6.4871,-1.20663 z m -5.7404,5.14093 a 4.4696061,3.4326269 0 0 1 4.4695,3.4329 4.4696061,3.4326269 0 0 1 -4.4695,3.43246 4.4696061,3.4326269 0 0 1 -4.4695,-3.43246 4.4696061,3.4326269 0 0 1 4.4695,-3.4329 z m 4.7852,51.53755 c -4.4465,0.21683 -6.769,26.2868 -15.9703,43.04367 -10.9053,19.85999 -12.2114,41.36386 -36.7499,59.74411 -24.5386,18.38024 39.9349,0.59005 55.1761,-11.16827 15.2411,-11.75833 25.5535,-24.52968 32.9684,-46.68708 7.7951,-23.29388 6.2278,-34.81133 1.6635,-41.031 -4.5642,-6.21968 -4.1051,18.45435 -13.4611,32.62949 -9.3561,14.17513 -20.7679,20.41502 -16.8462,3.06474 3.9217,-17.35028 2.5337,-24.31212 -4.0346,-36.8329 -1.0263,-1.95638 -1.9225,-2.80292 -2.7459,-2.76276 z"
       id="path5820"
       inkscape:connector-curvature="0" />
  </g>
</svg>
