<?xml version="1.0" encoding="UTF-8" standalone="no"?>
<!-- Created with Inkscape (http://www.inkscape.org/) -->

<svg
   xmlns:dc="http://purl.org/dc/elements/1.1/"
   xmlns:cc="http://creativecommons.org/ns#"
   xmlns:rdf="http://www.w3.org/1999/02/22-rdf-syntax-ns#"
   xmlns:svg="http://www.w3.org/2000/svg"
   xmlns="http://www.w3.org/2000/svg"
   xmlns:sodipodi="http://sodipodi.sourceforge.net/DTD/sodipodi-0.dtd"
   xmlns:inkscape="http://www.inkscape.org/namespaces/inkscape"
   width="82.892693mm"
   height="82.892693mm"
   viewBox="0 0 293.71426 293.71426"
   id="svg4148"
   version="1.1"
   inkscape:version="0.91 r13725"
   sodipodi:docname="nashville_warbler.svg">
  <defs
     id="defs4150" />
  <sodipodi:namedview
     id="base"
     pagecolor="#ffffff"
     bordercolor="#666666"
     borderopacity="1.0"
     inkscape:pageopacity="0.0"
     inkscape:pageshadow="2"
     inkscape:zoom="0.98994949"
     inkscape:cx="-101.03055"
     inkscape:cy="151.40044"
     inkscape:document-units="px"
     inkscape:current-layer="layer1"
     showgrid="false"
     fit-margin-top="0"
     fit-margin-left="0"
     fit-margin-right="0"
     fit-margin-bottom="0"
     inkscape:window-width="1920"
     inkscape:window-height="1017"
     inkscape:window-x="-8"
     inkscape:window-y="-8"
     inkscape:window-maximized="1" />
  <metadata
     id="metadata4153">
    <rdf:RDF>
      <cc:Work
         rdf:about="">
        <dc:format>image/svg+xml</dc:format>
        <dc:type
           rdf:resource="http://purl.org/dc/dcmitype/StillImage" />
        <dc:title></dc:title>
      </cc:Work>
    </rdf:RDF>
  </metadata>
  <g
     inkscape:label="Layer 1"
     inkscape:groupmode="layer"
     id="layer1"
     transform="translate(972.6565,40.969395)">
    <rect
       inkscape:export-ydpi="14.71"
       inkscape:export-xdpi="14.71"
       inkscape:export-filename="E:\INFO\Ornitho\app\src\main\res\mipmap-mdpi\ornitho_launcher.png"
       ry="29.94739"
       y="-36.969395"
       x="-968.65649"
       height="285.71426"
       width="285.71426"
       id="rect4197"
       style="fill:#829e6d;fill-opacity:1;stroke:#ffffff;stroke-width:8;stroke-linecap:round;stroke-linejoin:round;stroke-miterlimit:4;stroke-dasharray:none;stroke-dashoffset:0;stroke-opacity:0" />
    <path
       style="fill:#000000;fill-opacity:1;fill-rule:evenodd;stroke:#000000;stroke-width:0.71544081px;stroke-linecap:round;stroke-linejoin:round;stroke-opacity:1"
       d="m -753.46515,4.5232796 c 9.83904,-0.179258 17.32568,6.7142434 17.32568,6.7142434 0,0 10.98474,-2.4036334 13.47601,-0.870545 -3.83273,2.171874 -10.2695,5.690389 -12.12198,9.331471 1.27757,-0.44715 9.83751,-2.212396 13.22307,-1.381974 l -10.71484,6.015572 c 6.50435,17.525581 4.85404,24.245763 6.86936,37.324493 2.01531,13.078729 -0.58842,26.350536 -13.18954,44.26509 -12.60113,17.91458 -14.27377,29.45106 -54.7452,38.84621 0,0 22.36701,7.77523 32.46033,10.07766 5.88101,1.34153 16.22859,3.35915 21.36681,15.25761 -4.54276,-4.31347 -8.48415,-6.24688 -10.2677,-6.97556 -0.61926,-0.32698 -1.02564,-0.38007 -1.02564,-0.38007 0,0 0.38077,0.11662 1.02564,0.38007 1.19174,0.62928 3.22419,2.33415 5.02625,7.0608 0,0 -12.81604,-10.29919 -16.44256,-9.42231 -3.62651,0.87688 -10.59707,10.04012 -2.93163,20.13296 -19.1636,-3.57721 -2.40504,-19.65566 -3.55485,-21.31651 l -39.91657,-15.45324 c 0,0 -3.30059,4.58217 -3.27398,8.97096 0.0266,4.38879 6.94524,28.37193 8.60626,31.82175 1.66102,3.4498 11.3624,6.56533 7.65744,18.95779 -0.38326,-4.08824 -2.45653,-8.63561 -2.45653,-8.63561 1.66085,4.59927 1.48199,9.71196 -0.17885,12.01159 0.51102,-5.49357 -1.83019,-13.75298 -5.13106,-14.24174 -3.30086,-0.48878 -7.51951,-0.67612 -5.34763,9.4167 -9.45404,-9.45404 0.0804,-12.08523 0.2082,-13.36281 -2.17189,-22.99632 -14.46213,-43.93553 -11.2682,-47.76826 0,0 -4.50634,-0.27343 -16.24274,1.29954 -11.73639,1.57297 -37.76099,9.5071 -50.49726,15.36661 -12.73629,5.85951 -28.61784,17.59074 -36.6957,24.50663 -7.63715,6.53861 -10.66403,2.7264 -4.55674,-2.21897 6.1073,-4.94539 39.10546,-33.64875 47.60616,-41.44666 8.50071,-7.79792 6.88777,-5.83085 -0.85657,-1.39455 -7.74434,4.43628 -13.60847,2.34546 -5.81854,-2.04013 7.78992,-4.38559 22.32858,-14.17348 23.34545,-19.56423 1.01686,-5.39075 27.00474,-30.039833 38.80706,-42.226376 11.80233,-12.186538 18.63653,-21.407628 27.46344,-26.379085 8.8269,-4.971458 9.71075,-11.278819 15.03683,-25.638494 5.32607,-14.3596724 17.89128,-16.8613694 27.73032,-17.0406254 z m -7.75527,9.1931344 c -3.26524,0.101953 -6.46552,4.618497 -6.46552,8.372894 0,4.290737 1.83119,7.021997 6.59408,6.865158 4.76288,-0.156841 8.221,-4.381188 9.84709,-8.671926 1.52055,-4.012274 -4.82097,-4.846929 -8.5825,-6.324385 -0.45999,-0.180676 -0.92668,-0.256305 -1.39315,-0.241741 z m -0.0518,4.555346 a 4.2683965,3.8167059 0 0 1 4.26888,3.817548 4.2683965,3.8167059 0 0 1 -4.26888,3.81615 4.2683965,3.8167059 0 0 1 -4.26889,-3.81615 4.2683965,3.8167059 0 0 1 4.26889,-3.817548 z m 23.55644,8.312807 c -0.11114,-0.0033 -0.22468,0.004 -0.33955,0.02097 -3.67625,0.5431 -6.43901,0.04267 -9.93653,0 -3.49751,-0.04267 -4.50723,9.367822 -7.76923,15.718738 -3.26201,6.350916 14.26578,7.801099 8.90527,25.413521 -5.36049,17.612413 -29.67771,25.0338 -51.18336,35.474394 -21.50565,10.44062 -44.89551,17.7668 -58.17848,31.25723 -13.28295,13.49041 13.46429,6.47866 22.76556,4.87812 9.30127,-1.60054 18.45125,-4.82368 25.475,-4.1557 7.02376,0.66796 11.36896,6.48403 20.0547,2.89111 8.68573,-3.59294 25.01142,-5.15402 35.05101,-20.23637 10.0396,-15.08234 17.7643,-25.432354 21.3207,-39.567216 3.5564,-14.134869 0.35694,-24.995485 -0.36191,-33.606152 -0.69639,-8.341583 -2.35771,-17.987698 -5.80318,-18.088636 z"
       id="path4154"
       inkscape:connector-curvature="0" />
  </g>
</svg>
