<?xml version="1.0" encoding="UTF-8" standalone="no"?>
<!-- Created with Inkscape (http://www.inkscape.org/) -->

<svg
   xmlns:dc="http://purl.org/dc/elements/1.1/"
   xmlns:cc="http://creativecommons.org/ns#"
   xmlns:rdf="http://www.w3.org/1999/02/22-rdf-syntax-ns#"
   xmlns:svg="http://www.w3.org/2000/svg"
   xmlns="http://www.w3.org/2000/svg"
   xmlns:sodipodi="http://sodipodi.sourceforge.net/DTD/sodipodi-0.dtd"
   xmlns:inkscape="http://www.inkscape.org/namespaces/inkscape"
   width="82.892693mm"
   height="82.892693mm"
   viewBox="0 0 293.71426 293.71425"
   id="svg2"
   version="1.1"
   inkscape:version="0.91 r13725"
   sodipodi:docname="nuthatch.svg">
  <defs
     id="defs4" />
  <sodipodi:namedview
     id="base"
     pagecolor="#ffffff"
     bordercolor="#666666"
     borderopacity="1.0"
     inkscape:pageopacity="0.0"
     inkscape:pageshadow="2"
     inkscape:zoom="1.4"
     inkscape:cx="64.51587"
     inkscape:cy="163.24495"
     inkscape:document-units="px"
     inkscape:current-layer="layer1"
     showgrid="false"
     fit-margin-top="0"
     fit-margin-left="0"
     fit-margin-right="0"
     fit-margin-bottom="0"
     inkscape:window-width="1920"
     inkscape:window-height="1017"
     inkscape:window-x="-8"
     inkscape:window-y="-8"
     inkscape:window-maximized="1" />
  <metadata
     id="metadata7">
    <rdf:RDF>
      <cc:Work
         rdf:about="">
        <dc:format>image/svg+xml</dc:format>
        <dc:type
           rdf:resource="http://purl.org/dc/dcmitype/StillImage" />
        <dc:title />
      </cc:Work>
    </rdf:RDF>
  </metadata>
  <g
     inkscape:label="Layer 1"
     inkscape:groupmode="layer"
     id="layer1"
     transform="translate(-2205.2093,165.53407)">
    <rect
       inkscape:export-ydpi="14.71"
       inkscape:export-xdpi="14.71"
       inkscape:export-filename="E:\INFO\Ornitho\app\src\main\res\mipmap-mdpi\ornitho_launcher.png"
       ry="29.94739"
       y="-161.53407"
       x="-2494.9236"
       height="285.71426"
       width="285.71426"
       id="rect4401"
       style="fill:#829e6d;fill-opacity:1;stroke:#ffffff;stroke-width:8;stroke-linecap:round;stroke-linejoin:round;stroke-miterlimit:4;stroke-dasharray:none;stroke-dashoffset:0;stroke-opacity:0"
       transform="scale(-1,1)" />
    <path
       style="fill:#000000;fill-opacity:1;fill-rule:evenodd;stroke:#000000;stroke-width:1px;stroke-linecap:round;stroke-linejoin:round;stroke-opacity:1"
       d="m 2300.0987,-119.8221 c 2.9579,0.17027 5.6488,3.73118 7.3438,8.84375 4.1674,12.569422 8.9189,-3.9023 11.4297,10 2.5108,13.902292 19.9325,42.832692 29.9824,70.720702 4.5161,12.53184 7.4177,29.0969798 14.3516,37.2070298 6.934,8.1100502 15.8628,10.1405802 24.4941,16.9121102 8.6313,6.77153 9.8363,17.55082 17.9473,20.33985 8.111,2.78902 25.332,4.13262 25.332,5.90039 -1.2627,1.76776 -14.5574,1.3177 -27.6289,2.12109 -5.004,0.30755 -10.4665,4.49758 -16.5703,7.84961 -9.8408,5.4042 -20.7784,11.2027 -29.8731,14.30664 -14.7358,5.0292 -23.1201,9.1428 -34.2851,7.85742 -11.1649,-1.28537 -27.8346,-15.3515 -36.4297,-34.46484 -8.5951,-19.11334 -10.2506,-31.38449 -12.8574,-48.9277402 -2.6067,-17.5432398 23.9263,-58.8844748 27.8574,-70.3574178 3.9311,-11.472942 -1.9781,-24.594372 -5.8926,-33.392584 -3.9145,-8.7982 -1.027,-12.63162 2.7168,-14.46875 0.702,-0.34446 1.3995,-0.48656 2.082,-0.44726 z m -7.455,85.953122 c -1.5208,-0.07015 -7.925,0.51341 -13.0586,14.32032 -5.867,15.7793198 -0.6119,41.4203 5.1797,54.64257 5.7917,13.22227 9.5452,24.12291 20.3574,33.39258 10.8122,9.26967 21.1996,13.73326 34.2851,9.10742 13.0855,-4.62583 34.2767,-13.09154 44.4649,-19.10742 10.1883,-6.01587 11.6777,-9.00591 11.9629,-13.75 0.2852,-4.74409 -2.7422,-8.23711 -8.2129,-12.5 -5.4707,-4.26289 -14.925,-9.12942 -21.25,-9.10742 -6.3251,0.022 -7.5796,-10.52397 -16.25,-9.64258 -8.6703,0.8814 -18.3121,19.90179 -21.6074,27.5 -3.2954,7.59821 -13.2749,12.82786 -21.25,10 -7.9751,-2.82785 -13.1909,-13.96365 -16.9649,-22.85742 -3.774,-8.89377 -3.939,-22.6784302 -3.2148,-34.6425802 0.7243,-11.9641498 5.8925,-27.3222598 5.8925,-27.3222598 0,0 -0.1167,-0.02319 -0.3339,-0.03321 z"
       id="path5285"
       inkscape:connector-curvature="0" />
    <ellipse
       style="fill:#000000;fill-opacity:1;stroke:#000000;stroke-width:0.91882062;stroke-linecap:round;stroke-linejoin:round;stroke-miterlimit:4;stroke-dasharray:none;stroke-dashoffset:0;stroke-opacity:1"
       id="path5290"
       cx="2376.1021"
       cy="36.573048"
       rx="4.1477327"
       ry="3.4334469" />
  </g>
</svg>
