<?xml version="1.0" encoding="UTF-8" standalone="no"?>
<!-- Created with Inkscape (http://www.inkscape.org/) -->

<svg
   xmlns:dc="http://purl.org/dc/elements/1.1/"
   xmlns:cc="http://creativecommons.org/ns#"
   xmlns:rdf="http://www.w3.org/1999/02/22-rdf-syntax-ns#"
   xmlns:svg="http://www.w3.org/2000/svg"
   xmlns="http://www.w3.org/2000/svg"
   xmlns:sodipodi="http://sodipodi.sourceforge.net/DTD/sodipodi-0.dtd"
   xmlns:inkscape="http://www.inkscape.org/namespaces/inkscape"
   width="82.892693mm"
   height="82.892693mm"
   viewBox="0 0 293.71426 293.71425"
   id="svg2"
   version="1.1"
   inkscape:version="0.91 r13725"
   sodipodi:docname="owl.svg">
  <defs
     id="defs4" />
  <sodipodi:namedview
     id="base"
     pagecolor="#ffffff"
     bordercolor="#666666"
     borderopacity="1.0"
     inkscape:pageopacity="0.0"
     inkscape:pageshadow="2"
     inkscape:zoom="1.4"
     inkscape:cx="-51.695882"
     inkscape:cy="87.78583"
     inkscape:document-units="px"
     inkscape:current-layer="layer1"
     showgrid="false"
     fit-margin-top="0"
     fit-margin-left="0"
     fit-margin-right="0"
     fit-margin-bottom="0"
     inkscape:window-width="1920"
     inkscape:window-height="1017"
     inkscape:window-x="-8"
     inkscape:window-y="-8"
     inkscape:window-maximized="1" />
  <metadata
     id="metadata7">
    <rdf:RDF>
      <cc:Work
         rdf:about="">
        <dc:format>image/svg+xml</dc:format>
        <dc:type
           rdf:resource="http://purl.org/dc/dcmitype/StillImage" />
        <dc:title />
      </cc:Work>
    </rdf:RDF>
  </metadata>
  <g
     inkscape:label="Layer 1"
     inkscape:groupmode="layer"
     id="layer1"
     transform="translate(-3510.156,-620.36383)">
    <rect
       inkscape:export-ydpi="14.71"
       inkscape:export-xdpi="14.71"
       inkscape:export-filename="E:\INFO\Ornitho\app\src\main\res\mipmap-mdpi\ornitho_launcher.png"
       ry="29.94739"
       y="624.36383"
       x="3514.1558"
       height="285.71426"
       width="285.71426"
       id="rect4422"
       style="fill:#829e6d;fill-opacity:1;stroke:#ffffff;stroke-width:8;stroke-linecap:round;stroke-linejoin:round;stroke-miterlimit:4;stroke-dasharray:none;stroke-dashoffset:0;stroke-opacity:0" />
    <path
       style="fill:#000000;fill-opacity:1;fill-rule:evenodd;stroke:#000000;stroke-width:1px;stroke-linecap:round;stroke-linejoin:round;stroke-opacity:1"
       d="m 3642.281,653.14618 c -2.8106,-0.0393 -4.7161,0.58481 -4.3223,2.12891 1.0503,4.1176 9.7224,8.08108 10.7325,14.39453 0.2065,1.51413 -14.0528,28.31571 -18.9278,45.60156 -4.875,17.28584 -13.7241,9.65082 -23.1211,30.16016 -4.7327,10.32939 -9.4531,25.04769 -10.7265,46.59766 -1.2734,21.54997 4.0703,23.51875 3.4043,41.5371 -0.6543,17.70526 8.142,14.87508 8.4101,25.94336 0.268,11.06828 11.3934,21.91184 24.545,21.78711 13.1516,-0.12473 36.4128,-5.89308 43.4375,-20.96093 4.2064,-9.02279 20.6211,-36.60206 31.3847,-65.60157 7.2114,-19.42895 10.4248,-40.1919 11.168,-53.84961 0.7751,-14.24352 -9.7939,-28.08487 -9.3692,-39.92578 0.6086,-16.96366 -5.7148,-22.7561 -5.5312,-24.84961 0.3157,-3.59955 10.6454,-8.07145 14.3223,-16.44336 3.6769,-8.37192 -11.7747,-1.96974 -21.0137,1.41797 -9.239,3.38772 -15.6043,-0.24996 -21.2734,-1.00586 -5.6691,-0.75589 -13.3657,1.2448 -17.9961,-2.40429 -3.2422,-2.55498 -10.4387,-4.46178 -15.1231,-4.52735 z m 15.5625,19.20313 c 0.4482,-0.0223 2.7588,2.56415 4.7559,4.72851 -3.3942,-0.16544 -5.5886,0.62841 -5.8086,2.90821 -0.2415,2.50369 1.542,5.87199 5.5215,6.25586 3.9794,0.38389 7.6452,-1.41232 7.8867,-3.91602 0.2183,-2.26308 -2.0793,-4.34604 -5.461,-5.00977 -0.991,-2.05823 -2.3055,-4.54154 -1.7539,-4.39843 1.5439,0.40055 3.0743,0.99734 4.5293,1.75976 5.7781,3.02778 4.1609,9.79776 9.5059,10.63867 5.3449,0.84092 5.1436,-3.95287 10.5352,-7.01757 1.7859,-1.01506 4.0622,-1.4611 6.3417,-1.37305 0.601,0.0233 -2.0823,2.55763 -3.8144,4.40625 -3.4883,-0.11965 -6.3752,1.84137 -6.6191,4.36914 -0.2566,2.65999 2.4561,4.4584 6.1875,4.81836 3.7314,0.35997 6.1281,-2.29508 6.3847,-4.95508 0.2162,-2.24132 -1.1237,-3.43009 -3.7812,-3.96484 2.8278,-1.56915 6.3952,-3.67685 6.8808,-3.44922 2.3952,1.12287 4.2143,2.99567 4.5742,5.55469 0.8929,6.34969 -3.2554,19.54024 -7.8261,20.24218 -4.5709,0.7019 -2.0254,-4.20395 -10.5957,-2.8457 -8.5703,1.35827 -7.2667,6.97929 -11.2989,6.54102 -4.0324,-0.43832 -4.0766,-5.95641 -10.0234,-9.47461 -5.947,-3.51822 -7.2133,2.71585 -11.9277,-0.94727 -4.7143,-3.66312 -5.9432,-17.80939 -1.6016,-21.89648 2.0276,-1.90873 4.6262,-2.83637 7.4082,-2.97461 z m 4.7363,5.46679 a 5.4716379,3.8310703 5.5101084 0 1 0.9297,0.0332 5.4716379,3.8310703 5.5101084 0 1 5.0801,4.33984 5.4716379,3.8310703 5.5101084 0 1 -5.8145,3.28711 5.4716379,3.8310703 5.5101084 0 1 -5.0801,-4.33789 5.4716379,3.8310703 5.5101084 0 1 4.8828,-3.32227 z m 0.5762,1.72852 a 1.7351258,1.7351258 0 0 0 -1.7207,1.56836 1.7351258,1.7351258 0 0 0 1.5606,1.89258 1.7351258,1.7351258 0 0 0 1.8945,-1.56055 1.7351258,1.7351258 0 0 0 -1.5606,-1.89258 1.7351258,1.7351258 0 0 0 -0.1738,-0.008 z m 25.9473,2.58594 a 5.4716379,3.8310703 5.5101084 0 1 0.9316,0.0332 5.4716379,3.8310703 5.5101084 0 1 5.0781,4.33789 5.4716379,3.8310703 5.5101084 0 1 -5.8125,3.28906 5.4716379,3.8310703 5.5101084 0 1 -5.08,-4.33984 5.4716379,3.8310703 5.5101084 0 1 4.8828,-3.32031 z m 0.6015,1.45898 a 1.7351258,1.7351258 0 0 0 -1.7207,1.57031 1.7351258,1.7351258 0 0 0 1.5606,1.89258 1.7351258,1.7351258 0 0 0 1.8945,-1.56054 1.7351258,1.7351258 0 0 0 -1.5605,-1.89454 1.7351258,1.7351258 0 0 0 -0.1739,-0.008 z m -12.7421,4.40821 c -1.5154,-0.13433 -2.1471,3.11049 -3.3672,5.9375 -0.9187,2.12878 -2.373,3.24822 -2.1582,5.42187 0.2147,2.17366 2.6271,3.82337 3.2109,7.17383 1.3327,-2.92688 4.0697,-4.43453 4.5996,-6.55078 0.53,-2.11625 -0.3172,-3.58661 -0.416,-5.80664 -0.1371,-3.07912 -0.3254,-6.03885 -1.8691,-6.17578 z m 4.8359,32.36718 c 16.2237,-0.27383 8.1938,13.67576 2.2754,42.04883 -6.5307,31.30824 -19.2689,21.94442 -15.8516,-5.27734 3.4174,-27.22175 -16.0179,-32.68329 7.7324,-36.23047 2.2266,-0.33255 4.1655,-0.51269 5.8438,-0.54102 z"
       id="path4797"
       inkscape:connector-curvature="0" />
  </g>
</svg>
