<?xml version="1.0" encoding="UTF-8" standalone="no"?>
<!-- Created with Inkscape (http://www.inkscape.org/) -->

<svg
   xmlns:dc="http://purl.org/dc/elements/1.1/"
   xmlns:cc="http://creativecommons.org/ns#"
   xmlns:rdf="http://www.w3.org/1999/02/22-rdf-syntax-ns#"
   xmlns:svg="http://www.w3.org/2000/svg"
   xmlns="http://www.w3.org/2000/svg"
   xmlns:sodipodi="http://sodipodi.sourceforge.net/DTD/sodipodi-0.dtd"
   xmlns:inkscape="http://www.inkscape.org/namespaces/inkscape"
   width="82.892693mm"
   height="82.892693mm"
   viewBox="0 0 293.71426 293.71425"
   id="svg2"
   version="1.1"
   inkscape:version="0.91 r13725"
   sodipodi:docname="pipit.svg">
  <defs
     id="defs4" />
  <sodipodi:namedview
     id="base"
     pagecolor="#ffffff"
     bordercolor="#666666"
     borderopacity="1.0"
     inkscape:pageopacity="0.0"
     inkscape:pageshadow="2"
     inkscape:zoom="1.979899"
     inkscape:cx="96.050559"
     inkscape:cy="176.97677"
     inkscape:document-units="px"
     inkscape:current-layer="layer1"
     showgrid="false"
     fit-margin-top="0"
     fit-margin-left="0"
     fit-margin-right="0"
     fit-margin-bottom="0"
     inkscape:window-width="1920"
     inkscape:window-height="1017"
     inkscape:window-x="-8"
     inkscape:window-y="-8"
     inkscape:window-maximized="1" />
  <metadata
     id="metadata7">
    <rdf:RDF>
      <cc:Work
         rdf:about="">
        <dc:format>image/svg+xml</dc:format>
        <dc:type
           rdf:resource="http://purl.org/dc/dcmitype/StillImage" />
        <dc:title />
      </cc:Work>
    </rdf:RDF>
  </metadata>
  <g
     inkscape:label="Layer 1"
     inkscape:groupmode="layer"
     id="layer1"
     transform="translate(-1771.3075,555.62592)">
    <rect
       inkscape:export-ydpi="14.71"
       inkscape:export-xdpi="14.71"
       inkscape:export-filename="E:\INFO\Ornitho\app\src\main\res\mipmap-mdpi\ornitho_launcher.png"
       ry="29.94739"
       y="-551.62592"
       x="1775.3074"
       height="285.71426"
       width="285.71426"
       id="rect4389"
       style="fill:#829e6d;fill-opacity:1;stroke:#ffffff;stroke-width:8;stroke-linecap:round;stroke-linejoin:round;stroke-miterlimit:4;stroke-dasharray:none;stroke-dashoffset:0;stroke-opacity:0" />
    <path
       style="fill:#000000;fill-opacity:1;fill-rule:evenodd;stroke:#000000;stroke-width:0.62809151px;stroke-linecap:round;stroke-linejoin:round;stroke-opacity:1"
       d="m 1997.8711,-491.07063 c 16.3913,0.18736 18.7967,8.16813 22.5242,10.07154 0,0 15.7818,0.47568 16.6543,2.45839 -0.4759,0.79309 -13.5693,1.10168 -17.6061,5.63074 -4.037,4.52907 -5.7892,13.72142 -4.9169,18.08339 0.8724,4.36196 4.3901,18.47795 1.5862,32.04003 -2.8039,13.56208 -16.3923,34.11446 -33.468,45.04718 -17.0757,10.93271 -37.7517,12.68941 -37.7517,12.68941 0,0 21.2223,17.52889 26.965,20.3823 5.7427,2.85341 17.2189,-0.84889 21.6945,0.55468 4.4756,1.40359 -3.1785,0.43581 -5.3716,1.26881 -2.1932,0.83301 4.3015,0.19678 7.5345,1.45614 4.0332,1.57108 6.6718,5.49078 1.6158,3.18603 -5.1286,-2.33784 -13.6734,-3.3258 -21.1906,-1.23117 -7.5173,2.09463 -14.3272,4.498 -14.3688,2.08472 -0.041,-2.41326 9.6455,-1.34045 5.8834,-3.98862 -4.8377,-3.40523 -19.6599,-15.98744 -29.0038,-22.75115 -3.1243,-2.26152 -2.6751,-4.93302 -3.2608,-4.79166 l -3.1871,0.81579 c 0,0 9.984,22.60192 15.5454,29.58286 2.7766,3.48545 15.7195,6.33769 17.6677,7.18378 1.9481,0.84609 -4.3895,0.19724 -5.714,0.57034 -2.4255,0.68322 2.0229,0.96931 2.9561,1.6832 4.1342,3.16283 -6.8986,-1.5304 -15.4656,-1.03045 -8.5669,0.49994 -12.8961,5.84077 -11.5791,2.5369 1.317,-3.30388 4.5964,-2.32391 6.7409,-6.74095 2.1443,-4.41703 -9.4287,-24.65269 -15.0938,-32.727 -5.6651,-8.07431 0.2321,-7.86669 -5.9227,-10.02003 -6.1548,-2.15333 -41.8836,-10.5967 -57.9746,-8.96134 -16.0911,1.63536 -48.5426,12.94523 -56.3087,15.4643 -7.7661,2.51907 -13.7607,-2.33951 2.6964,-7.29543 7.6683,-2.30923 20.91,-7.84347 31.5763,-11.23941 12.2251,-3.89218 21.0428,-5.47329 13.7886,-4.62236 -13.3366,1.56442 28.8013,-20.61983 50.1774,-34.1218 28.0522,-17.71895 56.9288,-34.81624 61.5676,-40.42849 8.1737,-9.88885 14.6184,-23.02806 31.0096,-22.84069 z m 15.3749,38.38105 c -0.6064,0.005 -1.05,0.57348 -0.9079,1.16295 1.2422,5.47323 1.4005,11.07747 1.001,15.80288 -0.3995,4.7254 -1.386,8.60875 -2.2793,10.46656 -0.5747,1.14224 1.1638,1.97882 1.6978,0.81701 1.0896,-2.26625 2.0461,-6.23457 2.4597,-11.12532 0.4135,-4.89076 0.2543,-10.66896 -1.0415,-16.37822 -0.093,-0.43801 -0.482,-0.74983 -0.9298,-0.74586 z m -2.158,8.01061 c -0.4581,-0.0238 -0.8668,0.28603 -0.9679,0.7336 -0.3051,1.26439 -1.5164,2.69128 -3.409,4.17214 -1.8928,1.48088 -4.406,3.01161 -7.0894,4.65303 -5.3666,3.28286 -11.4397,6.98823 -14.7565,12.14106 -0.6801,1.05683 0.9055,2.0766 1.5851,1.01942 2.964,-4.60501 8.7953,-8.27472 14.1553,-11.55344 2.68,-1.63936 5.2343,-3.18614 7.266,-4.7757 2.0316,-1.58959 3.6002,-3.22667 4.08,-5.21488 0.148,-0.57659 -0.2691,-1.14423 -0.8636,-1.17523 z m 0,5.55101 c -0.031,-0.002 -0.063,-0.002 -0.094,0 -0.5314,0.0241 -0.9374,0.48297 -0.8967,1.01329 0.3245,5.30198 -0.8462,13.97044 -5.0088,20.32464 -4.1225,6.29284 -12.6295,10.8405 -24.379,15.54159 -11.7868,4.71591 -30.3475,11.90116 -44.7627,21.99179 -1.0294,0.72057 0.051,2.26475 1.0808,1.54448 14.1358,-9.89512 32.5752,-17.06335 44.381,-21.78693 11.8429,-4.73839 20.7186,-9.33145 25.2561,-16.258 4.4975,-6.86518 5.6615,-15.78326 5.3132,-21.47289 -0.022,-0.48327 -0.4064,-0.87135 -0.8895,-0.89797 z m -2.6289,1.38867 c -0.531,9.1e-4 -0.9562,0.44079 -0.9396,0.97159 0.054,3.10947 -0.4701,5.06407 -1.3471,6.54343 -0.877,1.47935 -2.1594,2.54201 -3.788,3.72561 -3.2576,2.36719 -7.7872,5.16749 -11.6922,12.63298 -0.6074,1.1208 1.0952,2.01147 1.6696,0.87345 3.7218,-7.11521 7.7717,-9.54216 11.1302,-11.98281 1.6793,-1.22032 3.2157,-2.45674 4.301,-4.28746 1.0854,-1.83072 1.6673,-4.19741 1.6095,-7.5371 0,-0.51984 -0.4235,-0.94034 -0.9434,-0.93969 z m 7.0722,7.49416 c -0.031,-0.002 -0.063,-0.002 -0.094,0 -0.4584,0.021 -0.8349,0.36911 -0.8918,0.82438 -0.7618,5.44702 -3.7814,12.49866 -7.8119,18.84765 -4.0305,6.349 -9.0893,12.01428 -13.7113,14.81781 -1.1261,0.63782 -0.1098,2.31424 0.9765,1.61072 5.0536,-3.06531 10.1863,-8.90011 14.3246,-15.41892 4.1383,-6.51882 7.2649,-13.70187 8.0892,-19.59596 0.086,-0.5513 -0.3237,-1.05595 -0.8808,-1.08568 z m -12.3901,19.19238 c -0.4585,-0.0154 -0.8614,0.30155 -0.9544,0.75076 -0.1669,0.75087 -0.9741,2.09627 -2.1714,3.50848 -1.197,1.41222 -2.7587,2.93875 -4.3659,4.33163 -1.6072,1.39286 -3.2634,2.65568 -4.6359,3.55386 -0.6861,0.44909 -1.3033,0.80754 -1.7885,1.04027 -0.4852,0.23274 -0.8762,0.31037 -0.8699,0.31037 -1.2742,-0.0182 -1.2742,1.90248 0,1.88428 0.601,0 1.087,-0.20973 1.6856,-0.49683 0.5985,-0.2871 1.2705,-0.68142 2.0045,-1.16172 1.4678,-0.96062 3.174,-2.26481 4.8383,-3.70722 1.6643,-1.44241 3.2834,-3.01924 4.5695,-4.53648 1.2862,-1.51726 2.2636,-2.92767 2.5726,-4.31813 0.1375,-0.57907 -0.2897,-1.13894 -0.8845,-1.15927 z"
       id="path8099"
       inkscape:connector-curvature="0"
       sodipodi:nodetypes="cccccsscszzssscssccczsssscsssssssssscccccsccccccccsccccccssscscccccscccsccccccsccscccccccsccccscccc" />
  </g>
</svg>
