<?xml version="1.0" encoding="UTF-8" standalone="no"?>
<!-- Created with Inkscape (http://www.inkscape.org/) -->

<svg
   xmlns:dc="http://purl.org/dc/elements/1.1/"
   xmlns:cc="http://creativecommons.org/ns#"
   xmlns:rdf="http://www.w3.org/1999/02/22-rdf-syntax-ns#"
   xmlns:svg="http://www.w3.org/2000/svg"
   xmlns="http://www.w3.org/2000/svg"
   xmlns:sodipodi="http://sodipodi.sourceforge.net/DTD/sodipodi-0.dtd"
   xmlns:inkscape="http://www.inkscape.org/namespaces/inkscape"
   width="82.892693mm"
   height="82.892693mm"
   viewBox="0 0 293.71426 293.71425"
   id="svg2"
   version="1.1"
   inkscape:version="0.91 r13725"
   sodipodi:docname="quiz.svg">
  <defs
     id="defs4" />
  <sodipodi:namedview
     id="base"
     pagecolor="#ffffff"
     bordercolor="#666666"
     borderopacity="1.0"
     inkscape:pageopacity="0.0"
     inkscape:pageshadow="2"
     inkscape:zoom="1.979899"
     inkscape:cx="153.08463"
     inkscape:cy="206.69525"
     inkscape:document-units="px"
     inkscape:current-layer="layer1"
     showgrid="false"
     fit-margin-top="0"
     fit-margin-left="0"
     fit-margin-right="0"
     fit-margin-bottom="0"
     inkscape:window-width="1280"
     inkscape:window-height="961"
     inkscape:window-x="1912"
     inkscape:window-y="57"
     inkscape:window-maximized="1" />
  <metadata
     id="metadata7">
    <rdf:RDF>
      <cc:Work
         rdf:about="">
        <dc:format>image/svg+xml</dc:format>
        <dc:type
           rdf:resource="http://purl.org/dc/dcmitype/StillImage" />
        <dc:title></dc:title>
      </cc:Work>
    </rdf:RDF>
  </metadata>
  <g
     inkscape:label="Layer 1"
     inkscape:groupmode="layer"
     id="layer1"
     transform="translate(-35.700001,-614.64954)">
    <rect
       style="fill:#829e6d;fill-opacity:1;stroke:#ffffff;stroke-width:8;stroke-linecap:round;stroke-linejoin:round;stroke-miterlimit:4;stroke-dasharray:none;stroke-dashoffset:0;stroke-opacity:0"
       id="rect4241"
       width="285.71426"
       height="285.71426"
       x="39.700001"
       y="618.64954"
       ry="29.94739"
       inkscape:export-filename="E:\INFO\Ornitho\app\src\main\res\mipmap-mdpi\ornitho_launcher.png"
       inkscape:export-xdpi="14.71"
       inkscape:export-ydpi="14.71" />
    <g
       id="g5274"
       transform="matrix(1.0486919,0,0,1.0486919,-6.54161,-34.004959)">
      <path
         sodipodi:nodetypes="czzzczzzc"
         inkscape:connector-curvature="0"
         id="path5219"
         d="m 203.63774,745.7293 c 0,0 -76.13699,2.30246 -71.21577,19.44542 4.92121,17.14296 81.36572,17.58451 82.32745,26.51653 0.96173,8.93202 -23.57938,5.31009 -21.97082,18.43523 1.60855,13.12513 67.68481,22.51834 72.2305,21.00311 0,0 -38.39039,-9.38627 -38.39039,-19.9929 0,-10.60663 39.49405,-11.6755 39.39595,-25.00133 -0.0981,-13.32583 -84.76209,-16.49185 -86.11551,-26.26391 -1.35341,-9.77206 23.73859,-14.14215 23.73859,-14.14215 z"
         style="fill:#000000;fill-opacity:1;fill-rule:evenodd;stroke:#000000;stroke-width:1px;stroke-linecap:round;stroke-linejoin:round;stroke-opacity:1" />
      <g
         transform="translate(3.5714286,-57.857143)"
         id="g5227">
        <path
           sodipodi:nodetypes="cccccccccccccccccccc"
           inkscape:connector-curvature="0"
           id="path5223"
           d="m 165.51171,817.86075 -15.93581,24.60103 4.91088,0 -8.44671,13.82083 3.9287,0 -8.54494,15.38712 5.5984,0 -8.15205,13.82083 18.85779,0 0,10.59595 15.56748,0 0,-10.59595 18.71048,0 -7.95564,-13.82083 5.79485,0 -9.42889,-15.38712 4.22335,0 -8.44671,-13.82083 5.20552,0 z"
           style="fill:#000000;fill-opacity:1;fill-rule:evenodd;stroke:#829e6d;stroke-width:2.26016545;stroke-linecap:round;stroke-linejoin:miter;stroke-miterlimit:4;stroke-dasharray:none;stroke-opacity:1" />
        <path
           style="fill:#000000;fill-opacity:1;fill-rule:evenodd;stroke:#829e6d;stroke-width:2.26016545;stroke-linecap:round;stroke-linejoin:miter;stroke-miterlimit:4;stroke-dasharray:none;stroke-opacity:1"
           d="m 91.265498,817.86075 -15.93581,24.60103 4.91088,0 -8.44671,13.82083 3.9287,0 -8.54494,15.38712 5.5984,0 -8.15205,13.82083 18.85779,0 0,10.59595 15.56748,0 0,-10.59595 18.710482,0 -7.95564,-13.82083 5.79485,0 -9.42889,-15.38712 4.22335,0 -8.44671,-13.82083 5.20552,0 z"
           id="path5225"
           inkscape:connector-curvature="0"
           sodipodi:nodetypes="cccccccccccccccccccc" />
        <path
           style="fill:#000000;fill-opacity:1;fill-rule:evenodd;stroke:#829e6d;stroke-width:3;stroke-linecap:round;stroke-linejoin:miter;stroke-miterlimit:4;stroke-dasharray:none;stroke-opacity:1"
           d="m 128.41236,793.83782 -20.48715,33.71382 6.31345,0 -10.85913,18.94038 5.05076,0 -10.985411,21.08686 7.197331,0 -10.480326,18.94038 24.243666,0 0,14.52094 20.01363,0 0,-14.52094 24.05427,0 -10.2278,-18.94038 7.44988,0 -12.12183,-21.08686 5.42956,0 -10.85913,-18.94038 6.69225,0 z"
           id="path5221"
           inkscape:connector-curvature="0"
           sodipodi:nodetypes="cccccccccccccccccccc" />
      </g>
      <g
         id="g5263">
        <g
           id="g5251"
           transform="matrix(0.90287754,0,0,0.90287754,52.295385,70.242302)">
          <path
             style="fill:#000000;fill-opacity:1;fill-rule:evenodd;stroke:#829e6d;stroke-width:1;stroke-linecap:round;stroke-linejoin:round;stroke-miterlimit:4;stroke-dasharray:none;stroke-opacity:1"
             d="m 222.45495,766.86129 2.35206,-27.24751 -8.11866,-8.86536 0.009,-4.69702 8.82397,4.99098 0.88203,-5.46176 -4.8106,-8.82394 7.97072,-2.74173 c 0,0 2.49497,17.95835 3.6977,18.45603 1.20273,0.49768 6.18872,-11.7857 6.18872,-11.7857 l 4.28571,1.4285 -4.84123,14.51663 3.24492,30.23088 z"
             id="path5253"
             inkscape:connector-curvature="0"
             sodipodi:nodetypes="cccccccczccccc" />
          <path
             style="fill:#000000;fill-opacity:1;stroke:#829e6d;stroke-width:3;stroke-linecap:round;stroke-linejoin:round;stroke-miterlimit:4;stroke-dasharray:none;stroke-dashoffset:0;stroke-opacity:1"
             d="m 198.9375,1228.8789 a 22.410097,17.990681 0 0 0 -20.84766,11.4375 22.499767,16.438852 0 0 0 -12.82812,14.8242 22.499767,16.438852 0 0 0 6.55859,11.5879 11.168792,9.1484861 0 0 0 -0.65625,3.0586 11.168792,9.1484861 0 0 0 11.16797,9.1484 11.168792,9.1484861 0 0 0 9.52344,-4.3886 11.168792,9.1484861 0 0 0 8.04883,3.3535 11.168792,9.1484861 0 0 0 8.3125,3.0566 11.168792,9.1484861 0 0 0 11.16992,-9.1484 11.168792,9.1484861 0 0 0 -0.0176,-0.4141 22.499767,16.438852 0 0 0 11.60156,-14.3593 22.499767,16.438852 0 0 0 -10.08203,-13.6954 22.410097,17.990681 0 0 0 -21.95117,-14.4609 z"
             transform="translate(35.699875,-555.62592)"
             id="path5255"
             inkscape:connector-curvature="0" />
        </g>
        <g
           transform="matrix(0.90287754,0,0,0.90287754,-6.0974723,70.242302)"
           id="g5257">
          <path
             sodipodi:nodetypes="cccccccczccccc"
             inkscape:connector-curvature="0"
             id="path5259"
             d="m 222.45495,766.86129 2.35206,-27.24751 -8.11866,-8.86536 0.009,-4.69702 8.82397,4.99098 0.88203,-5.46176 -4.8106,-8.82394 7.97072,-2.74173 c 0,0 2.49497,17.95835 3.6977,18.45603 1.20273,0.49768 6.18872,-11.7857 6.18872,-11.7857 l 4.28571,1.4285 -4.84123,14.51663 3.24492,30.23088 z"
             style="fill:#000000;fill-opacity:1;fill-rule:evenodd;stroke:#829e6d;stroke-width:1;stroke-linecap:round;stroke-linejoin:round;stroke-miterlimit:4;stroke-dasharray:none;stroke-opacity:1" />
          <path
             inkscape:connector-curvature="0"
             id="path5261"
             transform="translate(35.699875,-555.62592)"
             d="m 198.9375,1228.8789 a 22.410097,17.990681 0 0 0 -20.84766,11.4375 22.499767,16.438852 0 0 0 -12.82812,14.8242 22.499767,16.438852 0 0 0 6.55859,11.5879 11.168792,9.1484861 0 0 0 -0.65625,3.0586 11.168792,9.1484861 0 0 0 11.16797,9.1484 11.168792,9.1484861 0 0 0 9.52344,-4.3886 11.168792,9.1484861 0 0 0 8.04883,3.3535 11.168792,9.1484861 0 0 0 8.3125,3.0566 11.168792,9.1484861 0 0 0 11.16992,-9.1484 11.168792,9.1484861 0 0 0 -0.0176,-0.4141 22.499767,16.438852 0 0 0 11.60156,-14.3593 22.499767,16.438852 0 0 0 -10.08203,-13.6954 22.410097,17.990681 0 0 0 -21.95117,-14.4609 z"
             style="fill:#000000;fill-opacity:1;stroke:#829e6d;stroke-width:3;stroke-linecap:round;stroke-linejoin:round;stroke-miterlimit:4;stroke-dasharray:none;stroke-dashoffset:0;stroke-opacity:1" />
        </g>
        <g
           id="g5247"
           transform="translate(0.39016292,0.71428611)">
          <path
             sodipodi:nodetypes="cccccccczccccc"
             inkscape:connector-curvature="0"
             id="path5245"
             d="m 222.45495,766.86129 2.35206,-27.24751 -8.11866,-8.86536 0.009,-4.69702 8.82397,4.99098 0.88203,-5.46176 -4.8106,-8.82394 7.97072,-2.74173 c 0,0 2.49497,17.95835 3.6977,18.45603 1.20273,0.49768 6.18872,-11.7857 6.18872,-11.7857 l 4.28571,1.4285 -4.84123,14.51663 3.24492,30.23088 z"
             style="fill:#000000;fill-opacity:1;fill-rule:evenodd;stroke:#829e6d;stroke-width:1;stroke-linecap:round;stroke-linejoin:round;stroke-miterlimit:4;stroke-dasharray:none;stroke-opacity:1" />
          <path
             id="path5232"
             transform="translate(35.699875,-555.62592)"
             d="m 198.9375,1228.8789 a 22.410097,17.990681 0 0 0 -20.84766,11.4375 22.499767,16.438852 0 0 0 -12.82812,14.8242 22.499767,16.438852 0 0 0 6.55859,11.5879 11.168792,9.1484861 0 0 0 -0.65625,3.0586 11.168792,9.1484861 0 0 0 11.16797,9.1484 11.168792,9.1484861 0 0 0 9.52344,-4.3886 11.168792,9.1484861 0 0 0 8.04883,3.3535 11.168792,9.1484861 0 0 0 8.3125,3.0566 11.168792,9.1484861 0 0 0 11.16992,-9.1484 11.168792,9.1484861 0 0 0 -0.0176,-0.4141 22.499767,16.438852 0 0 0 11.60156,-14.3593 22.499767,16.438852 0 0 0 -10.08203,-13.6954 22.410097,17.990681 0 0 0 -21.95117,-14.4609 z"
             style="fill:#000000;fill-opacity:1;stroke:#829e6d;stroke-width:3;stroke-linecap:round;stroke-linejoin:round;stroke-miterlimit:4;stroke-dasharray:none;stroke-dashoffset:0;stroke-opacity:1"
             inkscape:connector-curvature="0" />
        </g>
      </g>
    </g>
  </g>
</svg>
