<?xml version="1.0" encoding="UTF-8" standalone="no"?>
<!-- Created with Inkscape (http://www.inkscape.org/) -->

<svg
   xmlns:dc="http://purl.org/dc/elements/1.1/"
   xmlns:cc="http://creativecommons.org/ns#"
   xmlns:rdf="http://www.w3.org/1999/02/22-rdf-syntax-ns#"
   xmlns:svg="http://www.w3.org/2000/svg"
   xmlns="http://www.w3.org/2000/svg"
   xmlns:sodipodi="http://sodipodi.sourceforge.net/DTD/sodipodi-0.dtd"
   xmlns:inkscape="http://www.inkscape.org/namespaces/inkscape"
   width="82.892693mm"
   height="82.892693mm"
   viewBox="0 0 293.71426 293.71425"
   id="svg2"
   version="1.1"
   inkscape:version="0.91 r13725"
   sodipodi:docname="rail.svg">
  <defs
     id="defs4" />
  <sodipodi:namedview
     id="base"
     pagecolor="#ffffff"
     bordercolor="#666666"
     borderopacity="1.0"
     inkscape:pageopacity="0.0"
     inkscape:pageshadow="2"
     inkscape:zoom="1.979899"
     inkscape:cx="129.21441"
     inkscape:cy="97.28815"
     inkscape:document-units="px"
     inkscape:current-layer="layer1"
     showgrid="false"
     fit-margin-top="0"
     fit-margin-left="0"
     fit-margin-right="0"
     fit-margin-bottom="0"
     inkscape:window-width="1920"
     inkscape:window-height="1017"
     inkscape:window-x="-8"
     inkscape:window-y="-8"
     inkscape:window-maximized="1" />
  <metadata
     id="metadata7">
    <rdf:RDF>
      <cc:Work
         rdf:about="">
        <dc:format>image/svg+xml</dc:format>
        <dc:type
           rdf:resource="http://purl.org/dc/dcmitype/StillImage" />
        <dc:title />
      </cc:Work>
    </rdf:RDF>
  </metadata>
  <g
     inkscape:label="Layer 1"
     inkscape:groupmode="layer"
     id="layer1"
     transform="translate(-903.50383,165.53407)">
    <rect
       style="fill:#829e6d;fill-opacity:1;stroke:#ffffff;stroke-width:8;stroke-linecap:round;stroke-linejoin:round;stroke-miterlimit:4;stroke-dasharray:none;stroke-dashoffset:0;stroke-opacity:0"
       id="rect4371"
       width="285.71426"
       height="285.71426"
       x="907.50372"
       y="-161.53407"
       ry="29.94739"
       inkscape:export-filename="E:\INFO\Ornitho\app\src\main\res\mipmap-mdpi\ornitho_launcher.png"
       inkscape:export-xdpi="14.71"
       inkscape:export-ydpi="14.71" />
    <path
       style="fill:#000000;fill-opacity:1;fill-rule:evenodd;stroke:#000000;stroke-width:1.00161469;stroke-linecap:round;stroke-linejoin:round;stroke-miterlimit:4;stroke-dasharray:none;stroke-opacity:1"
       d="m 1103.7419,-124.6188 c 1.2098,-0.0274 2.497,0.0445 3.8715,0.23182 14.6616,1.99809 24.03,19.60387 24.03,19.60387 0,0 35.9182,25.293822 35.9182,31.996889 -2.0236,-0.126474 -22.1324,-16.946874 -44.8975,-21.752844 0,0 -6.2942,2.232145 -7.7146,8.094103 -1.4205,5.861966 5.0321,18.814682 0.5057,30.479803 -4.5265,11.66512 -18.5813,23.521843 -31.7446,32.251211 -13.1633,8.729362 -46.669,19.0971916 -46.669,19.0971916 0,0 -4.4917,6.8478835 -3.4146,9.6121745 1.077,2.764292 1.6361,3.461976 1.7704,7.5884029 0.1343,4.126428 9.2331,13.65899 18.7186,29.594583 0.4726,1.080142 13.636,9.751215 19.8142,11.224149 6.1782,1.47294 8.8196,-1.212499 13.47,1.838905 -3.3629,-1.067581 -8.171,2.76044 -13.1893,1.752826 -6.8717,-1.379759 -13.4679,-7.354631 -14.7836,-7.354631 1.6816,0.560523 7.5321,6.318566 14.4785,12.568111 8.6392,7.77273 22.1418,8.741116 21.339,13.92675 -2.9699,-3.818581 -12.1896,-1.393902 -20.3531,-8.131273 -10.3647,-8.554075 -21.9015,-15.596433 -21.9015,-15.596433 0,0 1.4441,9.33845 4.0495,18.069169 2.2346,7.488377 1.1226,15.450751 -0.046,16.794649 -0.062,-2.187598 -2.2017,-11.485104 -5.1304,-20.806 -2.8792,-9.164054 -2.0472,-17.589756 -5.0462,-18.400754 -2.9989,-0.810997 -9.7753,6.2557 -11.5459,9.417522 -0.6324,-3.794186 9.6125,-14.418073 9.486,-15.556328 -9.2325,-18.970943 -21.0044,-30.196278 -18.8448,-36.1715909 2.1596,-5.97531172 4.8056,-11.2554492 4.8056,-11.2554492 0,0 -15.2464,-0.1120357 -18.212,-0.5056949 -2.9656,-0.39366 -7.4081,2.5592104 -8.5998,6.82936938 -1.1917,4.27015372 -1.7526,6.49001672 -3.7942,10.37023262 -2.04169,3.880215 -1.12362,22.388121 -1.0124,29.468399 0.11121,7.080284 1.9668,7.516873 5.3123,9.738359 3.3455,2.221486 7.554,0.772005 13.4064,0.759034 5.8524,-0.01297 8.9792,-1.012162 12.394,4.805597 -5.1854,-3.161823 -23.5243,-0.379517 -23.5243,-0.379517 6.3237,6.450118 17.9601,6.017932 25.0423,7.841742 7.0822,1.823809 9.3589,9.232658 9.3589,9.232658 -12.7738,-9.864893 -27.7186,-5.142665 -32.7569,-10.244054 -5.0384,-5.101388 -11.25551,-11.003088 -11.25551,-11.003088 0.6399,2.367652 4.17201,7.846003 6.48411,13.379969 2.2576,5.403527 3.31,10.865411 2.7476,13.052291 -0.7588,-4.553024 -12.52022,-21.120962 -12.52022,-21.120962 0,0 -3.79459,-10.623972 -2.78281,-13.406378 0,0 -12.39419,3.542046 -14.41776,5.565612 0.63236,-3.92066 13.53314,-7.715567 14.54493,-8.980297 1.51767,-6.0707 2.48292,-24.998023 2.4023,-36.5501299 -0.0382,-5.4733887 12.90076,-10.4972175 10.37126,-16.0620291 -17.45331,-3.92066 -31.53347,-12.895864 -37.31019,-21.374302 -5.77671,-8.478433 -18.37924,-11.703251 -14.92347,-16.315361 3.45582,-4.612115 17.15541,-9.081029 4.17372,-18.717674 -12.98167,-9.636649 -31.09392,-33.424062 -18.33816,-28.456026 12.75582,4.968033 22.25936,10.109452 33.51497,12.014482 11.25561,1.905022 21.20141,4.153583 32.88313,0.379514 11.6817,-3.774069 28.2035,-12.262057 48.8179,-13.026856 20.6145,-0.764807 22.7013,-6.709186 29.0889,-11.888306 5.7887,-4.69359 10.2338,-14.25842 21.9289,-14.52341 z m -76.6499,80.158517 c -0.7055,-0.02309 -1.2906,0.541242 -1.2931,1.247126 -0.1289,7.35122 1.0618,12.828846 3.9488,18.077973 0.788,1.51636 3.0519,0.271913 2.1939,-1.20605 -2.6777,-4.868708 -3.7636,-9.761206 -3.6396,-16.827908 0.022,-0.690462 -0.5196,-1.268204 -1.21,-1.291141 z m -5.1156,1.517091 c -0.657,0.0087 -1.1955,0.523724 -1.2335,1.179637 -0.8977,12.567624 0.583,25.31262 4.5415,33.757544 0.3065,0.6632948 1.106,1.3847877 2.1343,1.3244001 1.0284,-0.060384 0.6668,-0.8993347 0.2592,-1.7557601 -3.6298,-7.743614 -5.3107,-20.926109 -4.4378,-33.147186 0.063,-0.737343 -0.5238,-1.368201 -1.2637,-1.358635 z m -7.8926,4.300878 c -0.7055,-0.0337 -1.2992,0.522392 -1.3117,1.228545 -0.193,5.981734 0.283,13.365261 1.3958,19.380854 0.5564,3.007794 0.9124,5.055199 2.1842,7.694043 1.2718,2.6388445 2.9469,3.4097069 4.2764,3.4968476 1.3294,0.087141 -0.073,-1.3733437 -1.7724,-3.7267126 -1.699,-2.353364 -1.6908,-5.030986 -2.2253,-7.919993 -1.0688,-5.778009 -1.5421,-13.064586 -1.3557,-18.844829 0.032,-0.690253 -0.5011,-1.275952 -1.1913,-1.308755 z m -39.21369,1.390917 c -0.80606,-0.03582 -1.43509,0.688876 -1.28626,1.481879 0.34206,1.983929 1.12523,4.453109 2.20767,6.701233 1.08242,2.248129 2.38271,4.298905 4.24414,5.314232 0.75685,0.433594 1.41869,0.982328 2.88063,1.433952 1.46193,0.451623 -0.37317,-2.268703 -1.68143,-3.188736 -1.30825,-0.920028 -2.21403,-2.625823 -3.18678,-4.64616 -0.97275,-2.020337 -1.70705,-4.356222 -1.99736,-6.040011 -0.0924,-0.587974 -0.58602,-1.029595 -1.18061,-1.056389 z m 43.57709,0.758058 c -0.6568,0.0027 -1.2,0.51251 -1.2441,1.167897 -0.5176,6.340361 0,13.500129 2.8591,21.033908 0.579,1.588316 2.9604,0.686127 2.3416,-0.88717 -2.707,-7.13708 -3.1997,-13.889295 -2.7055,-19.943285 0.07,-0.737103 -0.5106,-1.373854 -1.2511,-1.37135 z m -19.75255,3.540863 c -0.7058,0.0141 -1.26042,0.608561 -1.22561,1.313642 0.25692,7.322044 1.15723,11.768943 4.64616,16.063005 0.5003,0.636962 1.5743,1.253091 2.7144,1.249084 1.1401,-0.0038 0.1127,-1.65648 -0.4578,-2.335795 -3.0877,-3.800207 -4.1507,-7.968452 -4.3997,-15.064326 -0.0145,-0.691119 -0.58633,-1.239733 -1.27745,-1.22561 z m -14.6584,0.127159 c -0.75521,0.007 -1.33233,0.67609 -1.22854,1.424172 0.52381,4.190485 1.55142,8.468446 5.52844,12.03405 0.7076,0.6361 1.50295,1.16368 3.12516,1.593388 1.62221,0.429703 -0.59995,-2.472691 -1.13758,-2.953006 -3.35842,-3.010988 -4.54357,-7.08072 -5.03154,-10.984502 -0.0708,-0.63859 -0.61346,-1.119961 -1.25594,-1.114102 z m 21.40665,1.896613 c -0.7061,-0.01103 -1.2815,0.563584 -1.2716,1.269621 0,3.33707 0.9268,7.140232 2.2703,10.531628 1.3434,3.391398 3.0426,6.345194 5.0031,8.004114 0.6185,0.551294 1.4377,0.771033 2.5696,0.743388 1.1319,-0.02766 0.056,-1.815967 -0.9527,-2.654669 -1.009,-0.838703 -3.0428,-3.861635 -4.2921,-7.01522 -1.2492,-3.153578 -2.0942,-6.74913 -2.0942,-9.609241 0.01,-0.690718 -0.5417,-1.258804 -1.2324,-1.269621 z m -14.00605,1.391889 c -0.70547,-0.02865 -1.29511,0.531331 -1.30287,1.237349 -0.13853,5.402274 2.01888,9.849689 5.42084,11.85994 0.65528,0.403039 1.41858,0.906456 2.83465,0.920429 1.41606,0.01396 -0.24616,-1.985577 -1.05541,-2.444371 -2.16285,-1.278045 -4.81146,-5.809806 -4.69703,-10.27242 0.0275,-0.690543 -0.50966,-1.272782 -1.20018,-1.300927 z"
       id="path8097"
       inkscape:connector-curvature="0" />
  </g>
</svg>
