<?xml version="1.0" encoding="UTF-8" standalone="no"?>
<!-- Created with Inkscape (http://www.inkscape.org/) -->

<svg
   xmlns:dc="http://purl.org/dc/elements/1.1/"
   xmlns:cc="http://creativecommons.org/ns#"
   xmlns:rdf="http://www.w3.org/1999/02/22-rdf-syntax-ns#"
   xmlns:svg="http://www.w3.org/2000/svg"
   xmlns="http://www.w3.org/2000/svg"
   xmlns:sodipodi="http://sodipodi.sourceforge.net/DTD/sodipodi-0.dtd"
   xmlns:inkscape="http://www.inkscape.org/namespaces/inkscape"
   width="82.892693mm"
   height="82.892693mm"
   viewBox="0 0 293.71426 293.71425"
   id="svg2"
   version="1.1"
   inkscape:version="0.91 r13725"
   sodipodi:docname="robin.svg">
  <defs
     id="defs4" />
  <sodipodi:namedview
     id="base"
     pagecolor="#ffffff"
     bordercolor="#666666"
     borderopacity="1.0"
     inkscape:pageopacity="0.0"
     inkscape:pageshadow="2"
     inkscape:zoom="1.979899"
     inkscape:cx="157.68655"
     inkscape:cy="172.65773"
     inkscape:document-units="px"
     inkscape:current-layer="layer1"
     showgrid="false"
     fit-margin-top="0"
     fit-margin-left="0"
     fit-margin-right="0"
     fit-margin-bottom="0"
     inkscape:window-width="1920"
     inkscape:window-height="1017"
     inkscape:window-x="-8"
     inkscape:window-y="-8"
     inkscape:window-maximized="1" />
  <metadata
     id="metadata7">
    <rdf:RDF>
      <cc:Work
         rdf:about="">
        <dc:format>image/svg+xml</dc:format>
        <dc:type
           rdf:resource="http://purl.org/dc/dcmitype/StillImage" />
        <dc:title />
      </cc:Work>
    </rdf:RDF>
  </metadata>
  <g
     inkscape:label="Layer 1"
     inkscape:groupmode="layer"
     id="layer1"
     transform="translate(-3073.013,165.53407)">
    <rect
       inkscape:export-ydpi="14.71"
       inkscape:export-xdpi="14.71"
       inkscape:export-filename="E:\INFO\Ornitho\app\src\main\res\mipmap-mdpi\ornitho_launcher.png"
       ry="29.94739"
       y="-161.53407"
       x="-3362.7271"
       height="285.71426"
       width="285.71426"
       id="rect4421"
       style="fill:#829e6d;fill-opacity:1;stroke:#ffffff;stroke-width:8;stroke-linecap:round;stroke-linejoin:round;stroke-miterlimit:4;stroke-dasharray:none;stroke-dashoffset:0;stroke-opacity:0"
       transform="scale(-1,1)" />
    <path
       style="fill:#000000;fill-opacity:1;fill-rule:evenodd;stroke:#000000;stroke-width:0.55926591px;stroke-linecap:round;stroke-linejoin:round;stroke-opacity:1"
       d="m 3282.4958,-121.1677 c -3.4693,0.047 -7.0802,0.66333 -10.5419,2.22069 -13.8469,6.22944 -14.9778,16.76679 -18.7136,29.659649 -3.7357,12.892848 -9.908,18.311716 -21.3264,29.800566 -11.4184,11.488857 -14.1147,24.622613 -20.6207,34.178576 -6.506,9.555964 -23.8986,38.060711 -43.2186,56.211686 -19.3199,18.150975 -40.0175,38.357553 -48.8669,45.337672 -8.8494,6.980114 -4.8153,11.370317 6.638,2.965642 11.4532,-8.404671 29.8406,-23.299163 41.3824,-29.659666 11.5417,-6.360502 13.6019,-6.490839 20.0549,-8.191276 6.4531,-1.700437 -8.7561,11.863875 -9.1798,14.12365 1.2711,0.988653 24.3911,-20.227417 34.8471,-21.012889 10.4559,-0.785472 15.1427,2.600805 15.1427,2.600805 0.799,1.498032 -2.8171,1.469851 6.4688,12.219741 9.2858,10.749896 18.968,26.826195 18.968,26.826195 0,0 -6.4422,3.986637 -6.0427,6.383494 3.2957,-2.097247 7.167,-5.974 12.377,-5.886491 5.2101,0.08751 14.7277,2.947068 14.7277,2.947068 0,-1.198428 -7.3065,-3.392736 -7.3065,-3.392736 0,0 7.661,1.50131 9.1591,2.799606 0.6991,-3.495411 -12.2685,-6.451215 -17.2619,-6.451215 0,0 -6.741,-9.886596 -12.1695,-17.051055 -5.4284,-7.164465 -7.4274,-9.292488 -4.9307,-17.182136 0,0 22.2288,1.175801 34.7444,-5.964045 12.5156,-7.139851 25.6056,-20.264093 30.3664,-34.4614816 4.7608,-14.1973954 2.4308,-27.8521124 0.4227,-38.8394894 -2.0081,-10.987374 -2.8266,-25.094571 -6.7789,-30.224384 -3.9523,-5.129822 -6.981,-8.152214 -6.9209,-13.840744 0.06,-5.688523 5.9322,-12.853406 5.0847,-16.101832 9.8159,-5.93191 26.3401,-12.0051 26.3401,-12.71128 -6.4969,-5.36697 -15.3942,-1.41155 -23.3034,-2.47082 0,0 -9.1335,-4.97464 -19.5416,-4.8335 z m 9.2978,7.24861 c 0.34,0.0103 0.7277,0.0708 1.183,0.20208 2.4283,0.70055 3.6391,2.92201 1.5565,3.04319 -2.0824,0.12118 -4.4152,-0.0817 -5.2105,-0.19233 -0.5856,-0.0815 -2.448,-0.11549 -3.0484,0.75597 -0.1702,-0.0226 -0.3422,-0.0347 -0.5146,-0.0361 -1.6956,0.001 -3.1494,1.01661 -3.4593,2.41619 -1.5557,-0.169 -4.7886,-0.35631 -4.2317,-1.55327 0.7198,-1.54675 1.2517,-2.24913 3.9652,-3.37526 2.1515,-0.83184 4.9449,-0.42163 6.3988,-0.42163 1.3089,0 1.8878,-0.8834 3.361,-0.8389 z m -9.5272,7.07274 c 0.2075,1.48832 1.7084,2.61097 3.4932,2.61283 1.5456,2e-5 2.9106,-0.84615 3.3655,-2.08632 1.0119,0.17887 1.9392,0.33626 2.1803,0.46642 4.0447,2.18442 1.6387,6.177348 -2.3725,4.47958 -3.5423,-1.49924 -7.3578,-1.92752 -8.2536,-3.22889 -0.5858,-0.85096 0.6691,-1.6573 1.5871,-2.24362 z m 7.0761,27.90432 c 2.4718,0.105217 3.7954,3.407649 7.1164,7.025773 4.6205,5.033902 5.2268,16.256398 6.0733,25.281657 0.8465,9.025255 4.148,22.730324 2.8247,32.908214 -1.3233,10.1778837 -3.0579,15.0543014 -11.2989,25.422565 -8.241,10.368264 -22.7094,23.087989 -43.5015,23.727291 -20.792,0.639297 -17.4407,-4.549633 -36.1556,-3.813276 -18.7151,0.736357 23.1016,-21.302287 38.4156,-30.5072986 15.314,-9.2050191 32.1628,-19.5458064 33.3321,-36.2976644 1.1692,-16.751866 -4.0025,-26.923853 -10.8751,-30.648213 -6.8727,-3.724352 5.0912,-7.631224 10.4512,-11.580734 1.5075,-1.1108 2.6505,-1.559489 3.6178,-1.518314 z"
       id="path8695"
       inkscape:connector-curvature="0"
       sodipodi:nodetypes="cssssssssscscsccsccccscsssscccccccsccccccscccccccccssssssssssss" />
  </g>
</svg>
