<?xml version="1.0" encoding="UTF-8" standalone="no"?>
<!-- Created with Inkscape (http://www.inkscape.org/) -->

<svg
   xmlns:dc="http://purl.org/dc/elements/1.1/"
   xmlns:cc="http://creativecommons.org/ns#"
   xmlns:rdf="http://www.w3.org/1999/02/22-rdf-syntax-ns#"
   xmlns:svg="http://www.w3.org/2000/svg"
   xmlns="http://www.w3.org/2000/svg"
   xmlns:sodipodi="http://sodipodi.sourceforge.net/DTD/sodipodi-0.dtd"
   xmlns:inkscape="http://www.inkscape.org/namespaces/inkscape"
   width="82.892693mm"
   height="82.892693mm"
   viewBox="0 0 293.71426 293.71425"
   id="svg2"
   version="1.1"
   inkscape:version="0.91 r13725"
   sodipodi:docname="sparrow.svg">
  <defs
     id="defs4" />
  <sodipodi:namedview
     id="base"
     pagecolor="#ffffff"
     bordercolor="#666666"
     borderopacity="1.0"
     inkscape:pageopacity="0.0"
     inkscape:pageshadow="2"
     inkscape:zoom="1.979899"
     inkscape:cx="143.82161"
     inkscape:cy="130.35768"
     inkscape:document-units="px"
     inkscape:current-layer="layer1"
     showgrid="false"
     fit-margin-top="0"
     fit-margin-left="0"
     fit-margin-right="0"
     fit-margin-bottom="0"
     inkscape:window-width="1920"
     inkscape:window-height="1017"
     inkscape:window-x="-8"
     inkscape:window-y="-8"
     inkscape:window-maximized="1" />
  <metadata
     id="metadata7">
    <rdf:RDF>
      <cc:Work
         rdf:about="">
        <dc:format>image/svg+xml</dc:format>
        <dc:type
           rdf:resource="http://purl.org/dc/dcmitype/StillImage" />
        <dc:title />
      </cc:Work>
    </rdf:RDF>
  </metadata>
  <g
     inkscape:label="Layer 1"
     inkscape:groupmode="layer"
     id="layer1"
     transform="translate(-1771.3075,-224.55765)">
    <rect
       inkscape:export-ydpi="14.71"
       inkscape:export-xdpi="14.71"
       inkscape:export-filename="E:\INFO\Ornitho\app\src\main\res\mipmap-mdpi\ornitho_launcher.png"
       ry="29.94739"
       y="228.55765"
       x="1775.3074"
       height="285.71426"
       width="285.71426"
       id="rect4393"
       style="fill:#829e6d;fill-opacity:1;stroke:#ffffff;stroke-width:8;stroke-linecap:round;stroke-linejoin:round;stroke-miterlimit:4;stroke-dasharray:none;stroke-dashoffset:0;stroke-opacity:0" />
    <path
       style="fill:#000000;fill-opacity:1;fill-rule:evenodd;stroke:#000000;stroke-width:0.29077101;stroke-linecap:round;stroke-linejoin:round;stroke-miterlimit:4;stroke-dasharray:none;stroke-opacity:1"
       d="m 1910.801,254.77161 c 13.6211,0.037 26.0426,8.35994 26.5953,14.99288 l 9.5812,9.58068 -10.6131,3.53752 c 3.9799,3.97977 1.5595,15.84897 6.3385,22.84712 4.779,6.99814 12.0256,29.8421 14.4074,43.8661 2.3816,14.02399 0.1234,31.01823 -0.5776,40.34278 -0.7011,9.32454 -7.3193,-9.47789 -7.3193,-9.47789 0,0 16.9294,61.94765 22.2366,83.12701 5.279,21.06645 -4.8485,36.64314 -12.8956,11.49909 -8.047,-25.14405 -19.4731,-72.5608 -27.8112,-86.11026 0,0 -1.3825,-1.75515 -2.7668,0.79224 -1.3845,2.54739 -2.5014,11.66808 -7.3369,16.17187 -4.8356,4.50379 -1.8751,13.35543 0.5134,15.32851 -2.1212,0.73995 -5.7147,-0.30568 -6.0682,-4.9874 -0.3906,-5.17402 2.5784,-14.07684 2.5784,-14.07684 0,0 -4.1357,7.33897 -3.5126,18.03519 -3.1154,-5.91927 -2.8169,-13.17686 0.7139,-19.19998 0,0 -8.7737,2.2108 -8.7737,8.64931 -3.7385,-4.98465 4.1568,-11.46306 9.7051,-11.1254 5.5483,0.33766 5.8254,-3.15897 8.5255,-10.01287 0,0 -17.4422,-3.16826 -24.0693,-8.53287 -6.6273,-5.3646 -12.0414,-8.61017 -15.4807,-10.45924 0,0 -5.8243,-0.15495 -6.9768,2.35001 -1.4316,3.11148 -1.5486,10.02594 0.1402,12.96317 -3.5246,-1.24832 -4.8641,-9.89889 -1.9269,-14.23131 -4.0387,0.66087 -6.5641,11.54114 -4.508,19.61853 -2.5125,-3.18545 -3.048,-7.82124 -2.316,-12.18569 0.1673,0.19549 0.3459,0.38917 0.5464,0.5787 0,0 0.027,-2.1332 0.3787,-4.22356 0.4909,-1.42372 1.1114,-2.75469 1.8338,-3.9169 -0.9865,0.34019 -1.5305,2.11259 -1.8338,3.9169 -0.4019,1.16576 -0.7153,2.39386 -0.9251,3.64486 -3.204,-3.74325 -0.5244,-8.46618 0.995,-9.77946 1.5987,-1.38185 9.8794,-1.24713 9.8794,-1.24713 0,0 -15.4735,-15.50206 -16.5086,-31.10057 -1.0352,-15.59853 4.1485,-42.45886 12.9711,-55.71673 8.8225,-13.25788 16.8944,-24.16636 31.5435,-25.35274 0.9156,-0.0741 1.8287,-0.1081 2.7368,-0.10563 z m -4.3763,3.39327 c -8.1899,-0.13969 -15.4039,7.98764 -20.3727,13.74064 -0.3971,0.4597 -0.7893,0.93645 -1.1779,1.42546 4.0427,-1.72885 10.5207,-3.1864 12.9841,-3.41315 2.7638,-0.2544 8.1489,-0.24657 11.6951,0.19479 0.815,-1.00517 2.3199,-1.95703 4.3661,-1.95703 2.416,2e-5 3.7868,2.42846 4.5211,4.11737 -1.028,1.76234 -2.1051,3.38304 -4.5211,3.38305 -1.8451,0 -3.6765,-1.37524 -4.4081,-3.20189 -3.6434,0.42877 -9.176,0.55993 -11.7286,1.20228 -3.9654,0.99788 -8.9181,6.48316 -15.023,3.68802 -0.2187,-0.10016 -0.4047,-0.2025 -0.5661,-0.30611 -4.0044,6.04231 -7.4028,13.58068 -9.7994,21.66983 -1.9233,6.4917 -4.1511,15.04241 -5.1384,23.18104 a 1.557702,4.3615656 30.169581 0 1 0.878,-1.88604 1.557702,4.3615656 30.169581 0 1 3.2779,-3.06616 1.557702,4.3615656 30.169581 0 1 0.2607,0.0784 1.557702,4.3615656 30.169581 0 1 -0.845,4.55352 1.557702,4.3615656 30.169581 0 1 -3.5387,2.98779 1.557702,4.3615656 30.169581 0 1 -0.28,-0.35551 c -0.3937,4.29636 -0.3924,8.40885 0.2453,11.95682 1.9445,10.81762 8.7159,22.81844 18.5043,29.73929 9.7885,6.92085 21.9386,15.72483 32.1626,18.28393 10.224,2.5591 26.42,0.14452 25.7991,-6.81608 -0.5184,-5.81204 -2.5447,-14.91969 -5.7796,-25.66793 a 1.557702,4.3615656 0.064124 0 1 -1.4959,3.11614 1.557702,4.3615656 0.064124 0 1 -1.5527,-4.36327 1.557702,4.3615656 0.064124 0 1 1.3165,-4.30307 c -0.1075,-0.33268 -0.2115,-0.66109 -0.3209,-0.99612 -0.3186,-0.97517 -0.6007,-1.99174 -0.8559,-3.03549 a 4.3615656,1.557702 59.830419 0 1 -0.3555,0.65196 4.3615656,1.557702 59.830419 0 1 -3.5387,-2.98778 4.3615656,1.557702 59.830419 0 1 -0.4997,-0.95921 4.3615656,1.557702 59.830419 0 1 -2.8782,-3.00596 4.3615656,1.557702 59.830419 0 1 -0.845,-4.55352 4.3615656,1.557702 59.830419 0 1 0.2606,-0.0784 4.3615656,1.557702 59.830419 0 1 3.278,3.06616 4.3615656,1.557702 59.830419 0 1 0.5004,0.95977 4.3615656,1.557702 59.830419 0 1 2.8775,3.00539 4.3615656,1.557702 59.830419 0 1 0.6248,1.23748 c -0.6993,-3.69703 -1.0753,-7.67969 -1.2193,-11.68081 a 4.3615656,1.557702 59.830419 0 1 -0.1755,0.16412 4.3615656,1.557702 59.830419 0 1 -3.5387,-2.98779 4.3615656,1.557702 59.830419 0 1 -0.8456,-4.55408 4.3615656,1.557702 59.830419 0 1 0.2607,-0.0778 4.3615656,1.557702 59.830419 0 1 3.2779,3.06616 4.3615656,1.557702 59.830419 0 1 0.9667,2.15523 c -0.079,-5.08343 0.1835,-10.09635 0.5855,-14.51129 a 4.3615656,1.557702 59.830419 0 1 -2.7766,-2.96735 4.3615656,1.557702 59.830419 0 1 -0.8456,-4.55352 4.3615656,1.557702 59.830419 0 1 0.2607,-0.0784 4.3615656,1.557702 59.830419 0 1 3.278,3.06616 4.3615656,1.557702 59.830419 0 1 0.4588,0.87231 c 0.1548,-1.33235 0.3178,-2.56818 0.4833,-3.7096 a 4.3615656,1.557702 54.465827 0 1 -2.969,-2.67089 4.3615656,1.557702 54.465827 0 1 -1.267,-4.4547 4.3615656,1.557702 54.465827 0 1 0.431,-0.11245 4.3615656,1.557702 54.465827 0 1 3.3711,2.75665 4.3615656,1.557702 54.465827 0 1 0.8985,1.4777 c 1.3611,-9.20233 -1.8957,-17.36334 -1.8957,-17.36334 -4.6995,-1.02803 -10.0561,-2.39982 -7.8571,-7.63672 2.199,-5.2369 8.7678,-4.94203 4.1856,-8.00415 -4.5823,-3.06213 -9.8839,-5.7775 -19.5328,-8.88499 -1.2062,-0.38844 -2.396,-0.57692 -3.5659,-0.59688 z m 17.5399,24.8189 c 0.7917,0.0516 1.3904,1.17464 1.9111,4.08046 1.9603,10.93953 -1.6308,9.83899 -15.1667,10.14461 -13.5359,0.30562 -28.1951,-7.71656 -21.2706,-8.14216 6.9245,-0.4256 10.8264,4.65424 21.1173,3.02073 7.5573,-1.19962 11.22,-9.24618 13.4089,-9.10364 z m -36.2407,15.51025 a 1.557702,4.3615656 52.941122 0 1 0.8047,0.27771 1.557702,4.3615656 52.941122 0 1 -2.542,3.87146 1.557702,4.3615656 52.941122 0 1 -4.4194,1.38571 1.557702,4.3615656 52.941122 0 1 2.5419,-3.87203 1.557702,4.3615656 52.941122 0 1 3.6148,-1.66285 z m -7.4897,0.14653 a 1.557702,4.3615656 52.941122 0 1 0.8042,0.27827 1.557702,4.3615656 52.941122 0 1 -2.5419,3.87146 1.557702,4.3615656 52.941122 0 1 -4.419,1.38514 1.557702,4.3615656 52.941122 0 1 2.542,-3.87146 1.557702,4.3615656 52.941122 0 1 3.6147,-1.66341 z m 41.335,2.76914 a 4.3615656,1.557702 54.465827 0 1 3.3711,2.75664 4.3615656,1.557702 54.465827 0 1 1.267,4.4547 4.3615656,1.557702 54.465827 0 1 -3.8027,-2.64419 4.3615656,1.557702 54.465827 0 1 -1.267,-4.45414 4.3615656,1.557702 54.465827 0 1 0.4316,-0.11301 z m -42.3737,3.1911 a 1.557702,4.3615656 30.169581 0 1 0.2607,0.0778 1.557702,4.3615656 30.169581 0 1 -0.845,4.55352 1.557702,4.3615656 30.169581 0 1 -3.5387,2.98835 1.557702,4.3615656 30.169581 0 1 0.8451,-4.55352 1.557702,4.3615656 30.169581 0 1 3.2779,-3.06615 z m -5.5808,1.32152 a 1.557702,4.3615656 30.169581 0 1 0.2606,0.0784 1.557702,4.3615656 30.169581 0 1 -0.845,4.55352 1.557702,4.3615656 30.169581 0 1 -3.5387,2.98778 1.557702,4.3615656 30.169581 0 1 0.8451,-4.55352 1.557702,4.3615656 30.169581 0 1 3.278,-3.06616 z m 22.8914,3.84364 c 1.6101,0.0607 3.3142,1.79394 4.0117,3.62839 1.313,3.45306 2.0606,5.66379 4.9937,7.56345 2.933,1.89966 0.3017,8.76964 -3.0106,6.38844 -3.3122,-2.38119 -4.4188,-2.928 -8.5181,-0.0738 -4.0993,2.85418 -1.8644,-4.93967 -0.7615,-12.68204 0.517,-3.62923 1.8641,-4.87794 3.2848,-4.82441 z m 26.9974,0.26862 a 4.3615656,1.557702 59.830419 0 1 3.278,3.06616 4.3615656,1.557702 59.830419 0 1 0.845,4.55352 4.3615656,1.557702 59.830419 0 1 -3.5386,-2.98779 4.3615656,1.557702 59.830419 0 1 -0.8451,-4.55352 4.3615656,1.557702 59.830419 0 1 0.2607,-0.0784 z m -1.3215,6.021 a 4.3615656,1.557702 59.830419 0 1 3.2779,3.06616 4.3615656,1.557702 59.830419 0 1 0.8451,4.55352 4.3615656,1.557702 59.830419 0 1 -3.5387,-2.98778 4.3615656,1.557702 59.830419 0 1 -0.845,-4.55352 4.3615656,1.557702 59.830419 0 1 0.2607,-0.0784 z m -0.8815,7.19659 a 4.3615656,1.557702 59.830419 0 1 3.278,3.06615 4.3615656,1.557702 59.830419 0 1 0.8451,4.55352 4.3615656,1.557702 59.830419 0 1 -3.5387,-2.98778 4.3615656,1.557702 59.830419 0 1 -0.845,-4.55409 4.3615656,1.557702 59.830419 0 1 0.2606,-0.0778 z m 12.0699,31.06252 a 1.557702,4.3615656 0.064124 0 1 1.5527,4.36327 1.557702,4.3615656 0.064124 0 1 -1.2682,4.27922 1.557702,4.3615656 0.064124 0 1 0.2403,2.32957 1.557702,4.3615656 0.064124 0 1 -1.5629,4.35986 1.557702,4.3615656 0.064124 0 1 -1.5527,-4.36327 1.557702,4.3615656 0.064124 0 1 1.2681,-4.27978 1.557702,4.3615656 0.064124 0 1 -0.2402,-2.32901 1.557702,4.3615656 0.064124 0 1 1.5629,-4.35986 z m 4.1117,2.20293 a 1.557702,4.3615656 0.064124 0 1 1.5532,4.36327 1.557702,4.3615656 0.064124 0 1 -1.5629,4.35986 1.557702,4.3615656 0.064124 0 1 -1.5527,-4.36327 1.557702,4.3615656 0.064124 0 1 1.5624,-4.35986 z m -2.0559,14.24551 a 1.557702,4.3615656 0.064124 0 1 1.4403,2.73109 1.557702,4.3615656 0.064124 0 1 0.9097,-0.82177 1.557702,4.3615656 0.064124 0 1 1.5527,4.36327 1.557702,4.3615656 0.064124 0 1 -1.5623,4.35986 1.557702,4.3615656 0.064124 0 1 -1.4408,-2.73166 1.557702,4.3615656 0.064124 0 1 -0.9092,0.82234 1.557702,4.3615656 0.064124 0 1 -1.5527,-4.36327 1.557702,4.3615656 0.064124 0 1 1.5623,-4.35986 z"
       id="path6426"
       inkscape:connector-curvature="0" />
  </g>
</svg>
