<?xml version="1.0" encoding="UTF-8" standalone="no"?>
<!-- Created with Inkscape (http://www.inkscape.org/) -->

<svg
   xmlns:dc="http://purl.org/dc/elements/1.1/"
   xmlns:cc="http://creativecommons.org/ns#"
   xmlns:rdf="http://www.w3.org/1999/02/22-rdf-syntax-ns#"
   xmlns:svg="http://www.w3.org/2000/svg"
   xmlns="http://www.w3.org/2000/svg"
   xmlns:sodipodi="http://sodipodi.sourceforge.net/DTD/sodipodi-0.dtd"
   xmlns:inkscape="http://www.inkscape.org/namespaces/inkscape"
   width="82.892693mm"
   height="82.892693mm"
   viewBox="0 0 293.71426 293.71425"
   id="svg2"
   version="1.1"
   inkscape:version="0.91 r13725"
   sodipodi:docname="tern.svg">
  <defs
     id="defs4" />
  <sodipodi:namedview
     id="base"
     pagecolor="#ffffff"
     bordercolor="#666666"
     borderopacity="1.0"
     inkscape:pageopacity="0.0"
     inkscape:pageshadow="2"
     inkscape:zoom="1.4"
     inkscape:cx="75.628212"
     inkscape:cy="84.445837"
     inkscape:document-units="px"
     inkscape:current-layer="layer1"
     showgrid="false"
     fit-margin-top="0"
     fit-margin-left="0"
     fit-margin-right="0"
     fit-margin-bottom="0"
     inkscape:window-width="1920"
     inkscape:window-height="1017"
     inkscape:window-x="-8"
     inkscape:window-y="-8"
     inkscape:window-maximized="1" />
  <metadata
     id="metadata7">
    <rdf:RDF>
      <cc:Work
         rdf:about="">
        <dc:format>image/svg+xml</dc:format>
        <dc:type
           rdf:resource="http://purl.org/dc/dcmitype/StillImage" />
        <dc:title />
      </cc:Work>
    </rdf:RDF>
  </metadata>
  <g
     inkscape:label="Layer 1"
     inkscape:groupmode="layer"
     id="layer1"
     transform="translate(-469.60196,165.53407)">
    <rect
       style="fill:#829e6d;fill-opacity:1;stroke:#ffffff;stroke-width:8;stroke-linecap:round;stroke-linejoin:round;stroke-miterlimit:4;stroke-dasharray:none;stroke-dashoffset:0;stroke-opacity:0"
       id="rect4338"
       width="285.71426"
       height="285.71426"
       x="473.60184"
       y="-161.53407"
       ry="29.94739"
       inkscape:export-filename="E:\INFO\Ornitho\app\src\main\res\mipmap-mdpi\ornitho_launcher.png"
       inkscape:export-xdpi="14.71"
       inkscape:export-ydpi="14.71" />
    <path
       style="fill:#000000;fill-opacity:1;fill-rule:evenodd;stroke:#000000;stroke-width:0.60155094px;stroke-linecap:round;stroke-linejoin:round;stroke-opacity:1"
       d="m 690.88924,-129.43854 c -0.95649,0.14256 0.77946,2.0767 3.23216,3.86895 3.92432,2.8676 4.7213,6.72047 1.26302,4.13918 -3.45828,-2.58128 -7.17721,-2.71505 -4.3072,0.0916 2.87001,2.8067 9.25037,10.41309 3.63868,6.68638 -5.61168,-3.7267 -6.38484,0.39108 -3.80787,2.92199 2.57699,2.53091 5.98067,6.64844 0.91996,3.99702 -5.06072,-2.6514 -4.02561,2.69719 -3.84194,4.94518 0.18366,2.24799 -2.88857,0.58318 -4.30367,2.808019 -1.41511,2.22482 0.25698,3.52849 -0.70494,4.9346 -0.96193,1.4061 -3.6354,1.1234 -4.33305,2.0925 -0.69766,0.96911 -0.41947,3.61127 -1.10911,4.56568 -0.68965,0.95441 -2.80068,0.14321 -3.65278,1.28064 -0.8521,1.13744 -0.64033,3.76087 -1.42045,4.82181 -0.78014,1.06094 -3.2982,0.86983 -4.03228,1.84225 -0.73408,0.972419 -0.23025,3.362726 -0.90468,4.288403 -0.67442,0.925673 -2.45694,0.142634 -3.05004,0.931695 -0.59312,0.789066 0.55002,2.219529 -0.21502,3.274457 -0.76503,1.054934 -3.78146,0.797019 -3.38725,3.596384 0.39421,2.799367 -2.89515,6.395986 -9.25823,9.73878 -6.3631,3.3428 -15.49582,11.39305 -15.49582,11.39305 -18.43486,-8.294022 -36.93715,-6.057931 -58.92262,-11.348403 -21.98547,-5.290473 -57.19918,-16.135756 -72.59381,-22.877736 -15.39462,-6.74198 -6.01605,-0.3468 1.76001,2.745754 7.77606,3.092552 6.69237,2.830805 -0.17624,1.033916 -6.86861,-1.796888 -3.10114,0.770231 2.05257,2.279315 5.15369,1.509081 14.96074,7.027583 6.33508,4.994515 -8.62566,-2.033067 -5.38735,1.121742 4.02639,3.625758 9.41375,2.50401 13.10453,4.800492 2.50608,3.346128 -10.59847,-1.45437 -2.07092,1.785721 4.97688,3.561133 7.04781,1.775406 5.86001,2.974934 -0.57217,2.630606 -6.43218,-0.344322 0.71319,2.041255 5.84868,3.017157 5.13547,0.975902 12.26538,3.142172 4.90052,2.718728 -7.36485,-0.423444 -7.9683,1.393072 0.87765,1.999688 8.84595,0.606615 6.68901,1.705986 1.51328,2.195896 -5.17573,0.489909 -1.8628,1.445274 5.30704,2.256988 7.16984,0.811721 -2.24511,1.800857 -0.0247,2.557771 2.22047,0.756913 7.24634,0.442098 8.97627,1.031563 1.72993,0.589466 -0.37718,1.847562 0.95989,2.401506 1.33709,0.553944 6.5741,0.46542 8.24783,1.078563 1.67373,0.613142 -1.00643,1.11344 1.17139,2.456722 2.17782,1.343277 4.64887,-2.719829 9.42507,6.516015 1.93964,3.750698 7.34074,9.97371 14.21987,14.129392 10.06026,6.077416 17.67761,4.033785 22.94118,10.478975 -12.00124,6.380419 -19.43325,23.644191 -45.67674,41.575166 -26.24351,17.930964 -18.41634,13.776187 -8.04928,8.050443 10.36706,-5.725743 1.55599,0.483483 -16.47097,10.462521 -18.02697,9.979037 3.62061,0.191606 22.88947,-10.604687 19.26887,-10.796293 -21.80506,14.373461 -37.44184,24.219474 -15.63679,9.846013 -38.9747,29.495537 -22.1775,16.997337 16.79721,-12.4982 80.69703,-49.78594 94.73723,-59.243369 14.04022,-9.45743 9.57035,-8.051149 24.45799,-7.747318 0,0 0.64774,0.805885 -0.26906,2.397982 -0.9168,1.592097 -5.1047,2.587803 -6.91901,5.122582 -1.81432,2.534767 -0.411,6.425316 -2.53779,8.552134 3.03829,-0.531699 5.61134,-4.712547 5.61134,-4.712547 0.5317,1.139361 -0.74684,3.678749 -2.19003,5.65364 2.05086,0.151905 7.07153,-6.623242 11.16512,-8.810605 4.0936,-2.187353 6.68461,-5.924585 5.92504,-8.659043 9.72253,-0.455747 21.2607,1.000095 31.84813,-1.825799 10.58744,-2.825905 14.34789,-1.071647 21.06368,1.275936 11.48678,4.015335 27.86386,9.145625 32.16066,9.360468 4.2536,3.190205 15.87519,21.268111 18.45774,21.268111 1.36723,-2.734458 -9.72233,-24.685907 -9.72233,-24.685907 -1.36723,-2.50659 0.81419,-12.623581 -3.95003,-18.685679 -4.76422,-6.062097 -8.14637,-8.181493 -14.85196,-12.229582 -6.7056,-4.048078 -11.36505,-11.590809 -17.42971,-21.266941 -6.06465,-9.676123 10.09379,-28.31172 26.1287,-34.637341 16.03491,-6.325628 7.15407,-4.822821 6.64761,-21.426735 -0.50647,-16.603909 -19.49504,-39.026239 -27.33532,-43.352789 -2.94011,-1.62246 -4.4829,-2.18157 -5.05679,-2.09602 z m 9.42391,9.50262 c 3.02856,2.97355 6.51346,6.89193 9.65536,11.35309 5.60783,7.96254 10.16337,17.455639 10.3838,24.682389 0.13461,4.413154 0.84284,7.724855 1.54148,10.177023 0.69863,2.452168 1.29806,4.123085 1.35467,4.627949 0.009,0.07448 0.009,0.06636 0.0117,0.0846 0.01,-0.01314 0.0386,-0.04921 0.0305,-0.0329 -0.0211,0.04259 -0.0235,0.07647 -0.0305,0.0329 -0.0273,0.0355 -0.11439,0.139801 -0.45234,0.380668 -0.92586,0.659877 -3.28947,1.779369 -7.24916,3.34143 -8.61856,3.399935 -16.93893,9.87059 -22.57109,16.965613 -2.81608,3.547514 -4.969,7.255077 -6.03195,10.990052 -1.06296,3.734976 -0.98504,7.688154 1.06681,10.961855 2.33285,3.722057 5.35484,8.454709 6.65818,10.319184 1.30332,1.864476 -0.39036,2.125539 -1.2313,6.484296 -0.84094,4.358758 0.9361,9.091741 5.75468,11.720845 4.81858,2.629115 18.17207,16.813781 20.57845,20.359914 2.40638,3.546134 3.09452,3.365578 -2.54601,-0.575702 -3.37105,-2.35549 -8.11785,-3.43038 -2.69055,0.559259 5.42733,3.989617 -6.6726,-0.162944 -9.09023,-0.884705 -6.00865,-1.793861 -12.9472,-4.070885 -18.64807,-6.063686 -6.60792,-2.309866 -11.73954,-4.290183 -22.7861,-1.341731 -9.83272,2.62445 -25.22973,1.447989 -31.23013,1.729455 -6.00039,0.281454 -6.48238,0.537345 -10.58823,0.453508 -4.10584,-0.08382 -10.14522,-0.712972 -13.4926,0.348948 -3.34738,1.06192 -5.70551,3.211886 -12.66194,7.897711 -4.34592,2.927388 -14.5129,9.141512 -26.05115,16.152577 -0.0185,-0.02647 -0.0215,-0.0547 -0.0411,-0.08106 -0.80694,-1.081827 -1.79316,-1.159731 -2.22292,-1.180795 -0.8595,-0.04202 -0.95325,0.100248 -1.12673,0.156272 -0.34694,0.112015 -0.5021,0.192114 -0.72492,0.297247 -0.46728,0.220479 -1.65934,0.891697 -2.48844,1.340573 1.03964,-0.715056 1.28396,-0.914449 2.4579,-1.716541 26.75409,-18.279835 34.88994,-35.82098 45.39948,-41.408329 1.6308,-0.86738 2.06207,-3.008965 0.8941,-4.43996 -3.16581,-3.876498 -7.2461,-5.267152 -11.16277,-6.348007 -3.91666,-1.080845 -7.90837,-1.991114 -12.53388,-4.785379 -6.35171,-3.837072 -11.60279,-10.013986 -13.13073,-12.968592 -2.56336,-4.956821 -5.07591,-7.200132 -7.69797,-7.740269 -0.89213,-0.183775 -1.57809,-0.159478 -2.13011,-0.116316 -0.19426,-0.746465 -0.63649,-1.451676 -1.0668,-1.805827 -0.49856,-0.410317 -0.90756,-0.573248 -1.29592,-0.71552 -1.80663,-0.661827 -3.35302,-0.607844 -5.04386,-0.731962 -0.62215,-0.04567 -1.15006,-0.09209 -1.66954,-0.139812 -0.0197,-0.07702 0.006,-0.11797 -0.02,-0.19856 -0.40695,-1.279042 -1.63369,-2.12241 -2.53896,-2.430879 -1.58007,-0.538401 -2.95009,-0.533155 -4.4012,-0.578055 -0.0739,-0.504551 -0.18827,-1.014498 -0.42297,-1.334691 -1.10891,-1.512931 -1.7594,-1.279168 -2.40738,-1.43808 -0.17804,-0.04366 -0.44879,-0.06617 -0.64149,-0.103391 0.011,-0.0456 0.0377,-0.06392 0.047,-0.111611 0.20196,-1.034699 -0.29793,-2.173062 -0.7543,-2.678786 -0.45635,-0.505724 -0.82812,-0.686218 -1.13966,-0.835356 -0.62306,-0.298272 -1.11087,-0.406732 -1.71418,-0.529881 -0.0243,-0.005 -0.0776,-0.0068 -0.10223,-0.01175 -10e-4,-0.06207 0.0249,-0.128943 0.0189,-0.189158 -0.14138,-1.389571 -0.82073,-1.841721 -1.16316,-2.126579 -0.68483,-0.569722 -1.07849,-0.679031 -1.5732,-0.880003 -1.5831,-0.643136 -3.82362,-1.206032 -6.04488,-1.682465 0.26692,-0.730007 0.2722,-1.644923 0.0376,-2.260515 -0.25454,-0.667908 -0.6053,-1.038927 -0.89645,-1.311195 -0.58231,-0.544523 -1.06154,-0.770971 -1.60491,-1.019815 -0.32091,-0.146952 -0.89476,-0.272165 -1.26772,-0.408868 0.41022,-0.704109 0.72924,-1.56624 0.56042,-2.300457 -0.24326,-1.058001 -0.72866,-1.454135 -1.05272,-1.749436 -1.29619,-1.181206 -2.25695,-1.375543 -3.87953,-1.963264 -1.26929,-0.459753 -3.00483,-0.958379 -4.7701,-1.455705 0.25471,-0.844975 0.19428,-1.777903 -0.007,-2.267565 -0.22477,-0.546648 -0.45543,-0.761238 -0.67674,-0.998671 17.4269,6.076657 40.33775,12.847733 56.51289,16.740039 22.53153,5.421869 40.82059,3.259937 58.40683,11.172161 1.04871,0.47185 2.27647,0.286674 3.13936,-0.473487 0,0 9.24984,-8.018284 14.9201,-10.997104 3.38047,-1.775898 6.03288,-3.639268 7.93413,-5.659511 1.7962,-1.908613 3.03979,-4.144903 2.85855,-6.64996 0.19064,-0.08168 0.3727,-0.155152 0.75663,-0.323099 0.52711,-0.23058 1.344,-0.527939 2.10542,-1.577892 0.67873,-0.935923 0.80664,-1.849703 0.79659,-2.643534 0.0615,-0.01354 0.0771,-0.0011 0.14217,-0.01762 0.69086,-0.175996 1.67668,-0.651155 2.32278,-1.537949 1.24886,-1.714096 0.93666,-2.858849 0.98574,-3.677452 0.009,-0.142631 0.034,-0.181258 0.0553,-0.297251 0.0919,-0.03553 0.0926,-0.05846 0.21031,-0.08812 0.83998,-0.211661 2.34711,-0.248809 3.67863,-2.059611 1.14794,-1.56115 1.06649,-2.73276 1.21485,-3.64808 0.0505,-0.31173 0.11604,-0.50907 0.1774,-0.72491 0.32107,-0.0221 0.69442,-0.0324 1.27829,-0.17624 0.67884,-0.16725 1.71219,-0.59737 2.41561,-1.57085 1.20646,-1.66961 0.98429,-2.75905 1.08796,-3.65865 0.0288,-0.24949 0.0807,-0.39016 0.13159,-0.58393 0.12841,-0.0337 0.15702,-0.045 0.31488,-0.0858 0.96916,-0.25002 2.70413,-0.56919 3.9512,-2.39211 0.58307,-0.85231 0.82828,-1.93203 0.82949,-2.7011 10e-4,-0.76907 -0.12233,-1.2602 -0.1692,-1.56262 -0.0926,-0.59776 -0.18398,-0.31379 0.0917,-0.74372 -0.0235,-0.007 0.0133,-0.0205 0.007,-0.011 -0.003,0.006 -0.003,0.006 -0.007,0.011 0.0308,0.009 0.17327,0.004 0.73549,-0.0823 0.49562,-0.0769 1.27171,-0.0682 2.36391,-0.81656 1.09218,-0.748399 1.75765,-2.536819 1.66014,-3.730319 -0.0666,-0.81626 -0.06,-1.27857 -0.0823,-1.95034 0.54684,0.27501 1.06378,0.52966 1.54735,0.70024 0.59481,0.20984 1.12745,0.45773 2.24171,0.29138 0.55714,-0.0832 1.36047,-0.3769 1.95269,-1.04331 0.59224,-0.66641 0.79498,-1.52268 0.80364,-2.09251 0.0173,-1.13966 -0.30958,-1.58912 -0.5522,-2.04434 -0.34799,-0.65292 -0.81543,-1.21748 -1.2689,-1.79055 0.29216,0.10664 0.55821,0.22702 1.08444,0.24086 0.69664,0.0183 2.09595,-0.38682 2.76689,-1.45571 0.67096,-1.06889 0.50628,-1.92117 0.40535,-2.40855 -0.10091,-0.48739 -0.23842,-0.79068 -0.37597,-1.07739 -0.27509,-0.57342 -0.5885,-1.0497 -0.95285,-1.56967 -0.14189,-0.2025 -0.35368,-0.4313 -0.50991,-0.6415 0.9575,-0.3009 2.01963,-1.11054 2.33571,-2.00439 0.009,-0.024 0.002,-0.0385 0.011,-0.0623 z M 499.62189,91.920449 c -0.0422,0.04632 -0.16597,0.163032 -0.18564,0.175064 0.0336,-0.03331 0.15743,-0.149975 0.18564,-0.175064 z"
       id="path10467"
       inkscape:connector-curvature="0" />
  </g>
</svg>
