<?xml version="1.0" encoding="UTF-8" standalone="no"?>
<!-- Created with Inkscape (http://www.inkscape.org/) -->

<svg
   xmlns:dc="http://purl.org/dc/elements/1.1/"
   xmlns:cc="http://creativecommons.org/ns#"
   xmlns:rdf="http://www.w3.org/1999/02/22-rdf-syntax-ns#"
   xmlns:svg="http://www.w3.org/2000/svg"
   xmlns="http://www.w3.org/2000/svg"
   xmlns:sodipodi="http://sodipodi.sourceforge.net/DTD/sodipodi-0.dtd"
   xmlns:inkscape="http://www.inkscape.org/namespaces/inkscape"
   width="82.892693mm"
   height="82.892693mm"
   viewBox="0 0 293.71426 293.71425"
   id="svg2"
   version="1.1"
   inkscape:version="0.91 r13725"
   sodipodi:docname="thrush.svg">
  <defs
     id="defs4" />
  <sodipodi:namedview
     id="base"
     pagecolor="#ffffff"
     bordercolor="#666666"
     borderopacity="1.0"
     inkscape:pageopacity="0.0"
     inkscape:pageshadow="2"
     inkscape:zoom="0.9899495"
     inkscape:cx="-37.014176"
     inkscape:cy="81.216178"
     inkscape:document-units="px"
     inkscape:current-layer="layer1"
     showgrid="false"
     fit-margin-top="0"
     fit-margin-left="0"
     fit-margin-right="0"
     fit-margin-bottom="0"
     inkscape:window-width="1920"
     inkscape:window-height="1017"
     inkscape:window-x="-8"
     inkscape:window-y="-8"
     inkscape:window-maximized="1" />
  <metadata
     id="metadata7">
    <rdf:RDF>
      <cc:Work
         rdf:about="">
        <dc:format>image/svg+xml</dc:format>
        <dc:type
           rdf:resource="http://purl.org/dc/dcmitype/StillImage" />
        <dc:title></dc:title>
      </cc:Work>
    </rdf:RDF>
  </metadata>
  <g
     inkscape:label="Layer 1"
     inkscape:groupmode="layer"
     id="layer1"
     transform="translate(-2205.2093,555.62592)">
    <rect
       style="fill:#829e6d;fill-opacity:1;stroke:#ffffff;stroke-width:8;stroke-linecap:round;stroke-linejoin:round;stroke-miterlimit:4;stroke-dasharray:none;stroke-dashoffset:0;stroke-opacity:0"
       id="rect4399"
       width="285.71426"
       height="285.71426"
       x="-2494.9236"
       y="-551.62592"
       ry="29.94739"
       inkscape:export-filename="E:\INFO\Ornitho\app\src\main\res\mipmap-mdpi\ornitho_launcher.png"
       inkscape:export-xdpi="14.71"
       inkscape:export-ydpi="14.71"
       transform="scale(-1,1)" />
    <path
       style="fill:#000000;fill-opacity:1;fill-rule:evenodd;stroke:#000000;stroke-width:0.60789925px;stroke-linecap:round;stroke-linejoin:round;stroke-opacity:1"
       d="m 2417.9737,-501.64542 c 2.8063,-0.0383 5.8458,0.33178 9.1256,1.23955 14.9931,4.14979 20.7659,12.61561 23.0456,16.30642 5.102,1.19409 18.779,-0.51223 19.6474,4.91544 l -19.1975,6.73319 c 0,3.90793 -3.0402,9.62281 -2.4565,15.17255 0.5837,5.54974 5.5515,8.19501 6.1408,19.34236 0.5893,11.14734 -8.1974,33.41831 -18.4222,46.82368 -10.2249,13.40537 -41.45,26.09811 -41.45,26.09811 0,0 20.9475,27.24898 26.712,31.62383 5.7645,4.37485 13.5125,8.14707 18.3367,7.68066 4.8241,-0.46641 6.7312,2.91185 7.7614,2.91245 3.1606,0.003 5.2204,1.68813 6.2951,6.90773 -4.9126,-2.45628 -23.0278,-8.1354 -23.0278,-8.1354 1.2281,1.99574 -1.2289,4.91188 -1.2289,4.91188 0,0 -6.5129,-8.25256 -14.1229,-7.06208 -6.1568,0.96313 -17.9207,1.17273 -23.3293,1.86762 -0.5958,-0.22614 -1.2055,-0.47113 -1.8285,-0.73494 4.4751,-5.32415 21.5611,-2.82343 22.0874,-6.50523 0.5657,-3.95665 -23.1809,-31.3175 -23.1809,-31.3175 -20.7249,1.07463 -33.9275,-5.68056 -41.4499,-13.66348 0,0 17.3988,42.18999 22.1064,42.67761 4.7075,0.48762 18.5759,-0.92038 17.8083,4.29923 l -5.8344,-0.15436 c 2.9705,2.07939 5.8269,3.5474 8.4631,4.66373 -0.3341,0.39745 -0.6059,0.8333 -0.7872,1.32384 0.4105,-0.23452 1.339,-0.42487 2.6157,-0.5889 6.0035,2.27882 10.5544,2.81377 11.9692,4.73378 -3.4062,-0.59756 -9.9866,1.67543 -14.4448,-1.64204 -5.1452,-3.82866 -16.4996,-7.08216 -18.5623,-6.80087 2.7633,1.99573 12.5892,4.91261 11.9751,10.74628 -3.3589,-2.20981 -8.9197,-4.53932 -13.553,-7.61062 -3.4137,-2.26283 -5.8323,-5.63057 -9.014,-6.05287 -7.5001,-0.99546 -15.5058,1.99624 -18.7297,7.98343 -3.5309,-14.89122 20.4178,-5.98783 16.4263,-14.58483 -8.1364,-26.25154 -22.3284,-43.8616 -17.7229,-44.78271 -1.2281,-1.99572 -5.6855,-4.24029 -13.2871,-6.49217 -7.6016,-2.25189 -52.726,-4.80092 -71.6929,3.37788 -18.9669,8.17879 -28.749,4.49022 -12.8953,-2.14902 16.9574,-7.10142 31.1069,-14.58952 49.5865,-25.41779 18.4796,-10.82828 28.4521,-25.21277 35.4624,-28.7743 17.5502,-8.91629 13.0613,-14.17938 29.1673,-23.48842 16.106,-9.30903 34.2514,-20.54139 39.9539,-26.36407 4.4551,-4.54896 11.5093,-9.88293 21.5318,-10.01965 z m 1.7168,16.68636 c -8.4212,-0.15845 -18.2293,6.73611 -16.925,16.88108 1.5459,12.02367 18.8984,10.39847 14.2192,21.7229 -4.6792,11.32443 -19.6802,19.06365 -35.9041,25.23257 -16.224,6.16893 -36.2222,13.36138 -53.3111,17.47235 -17.0889,4.11097 11.5948,13.2419 21.8511,21.10194 1.5393,1.17964 3.0483,2.32157 4.5474,3.42063 a 2.0082387,2.9309431 75.75179 0 1 2.3829,-2.4316 2.0082387,2.9309431 75.75179 0 1 1.0627,-0.12823 2.0082387,2.9309431 75.75179 0 1 2.2724,1.35353 2.0082387,2.9309431 75.75179 0 1 -2.346,2.66787 2.0082387,2.9309431 75.75179 0 1 -1.1589,0.12585 c 7.7108,5.40697 15.3243,9.26108 25.1127,9.03182 12.6161,-0.29548 32.6778,-11.59229 45.2612,-20.29814 6.7817,-4.69194 14.0385,-16.50345 18.7617,-28.1937 a 2.0082387,2.9309431 3.879529 0 1 -1.5708,-3.02169 2.0082387,2.9309431 3.879529 0 1 2.2025,-2.78778 2.0082387,2.9309431 3.879529 0 1 1.2455,0.77768 c 1.2306,-3.60504 2.1701,-7.09334 2.7237,-10.24643 a 2.9309431,2.0082387 70.480833 0 1 -0.4738,0.28376 2.9309431,2.0082387 70.480833 0 1 -2.8721,-2.09203 2.9309431,2.0082387 70.480833 0 1 0.913,-3.43367 2.9309431,2.0082387 70.480833 0 1 0.5427,-0.0784 2.9309431,2.0082387 70.480833 0 1 2.3271,2.16564 c 0.2539,-2.66769 0.1537,-4.98275 -0.3752,-6.77 -1.46,-4.93322 -5.6286,-10.73625 -5.8392,-16.1212 -0.279,-7.13886 3.3566,-13.13181 -0.3075,-11.36012 -0.8503,0.41117 -1.6595,0.71708 -2.434,0.94628 a 2.0082387,2.9309431 11.742222 0 1 1.2158,3.23421 2.0082387,2.9309431 11.742222 0 1 -1.7643,2.39836 2.0082387,2.9309431 11.742222 0 1 -2.4126,2.35917 2.0082387,2.9309431 11.742222 0 1 -0.057,1.32147 2.0082387,2.9309431 11.742222 0 1 -0.3551,1.02345 2.0082387,2.9309431 11.742222 0 1 0.247,2.34255 2.0082387,2.9309431 11.742222 0 1 -1.2455,2.11459 2.0082387,2.9309431 11.742222 0 1 0.919,3.0953 2.0082387,2.9309431 11.742222 0 1 -2.5622,2.46128 2.0082387,2.9309431 11.742222 0 1 -1.3701,-3.27814 2.0082387,2.9309431 11.742222 0 1 1.2466,-2.11578 2.0082387,2.9309431 11.742222 0 1 -0.9201,-3.0953 2.0082387,2.9309431 11.742222 0 1 0.355,-1.02227 2.0082387,2.9309431 11.742222 0 1 -0.247,-2.34255 2.0082387,2.9309431 11.742222 0 1 2.4399,-2.4779 2.0082387,2.9309431 11.742222 0 1 0.057,-1.32147 2.0082387,2.9309431 11.742222 0 1 1.7643,-2.39717 2.0082387,2.9309431 11.742222 0 1 1.1493,-1.94479 c -4.2623,0.73035 -7.3382,-0.95958 -9.8024,-1.59574 -3.1713,-0.81877 14.0497,-6.62244 13.5876,-9.35001 -0.4622,-2.72757 -10.8336,-1.3535 -19.6974,-4.79196 -1.385,-0.53726 -2.8965,-0.80889 -4.456,-0.83824 z m 1.502,2.71536 a 5.440831,4.670583 38.909869 0 1 0.3609,0.005 5.440831,4.670583 38.909869 0 1 0.5153,0.0498 5.440831,4.670583 38.909869 0 1 5.1505,5.67175 5.440831,4.670583 38.909869 0 1 -5.1505,4.19474 5.440831,4.670583 38.909869 0 1 -5.1517,-5.67293 5.440831,4.670583 38.909869 0 1 4.2755,-4.24818 z m 11.334,25.80961 a 2.0082387,2.9309431 11.742222 0 1 0.1436,0.001 2.0082387,2.9309431 11.742222 0 1 0.1983,0.0261 2.0082387,2.9309431 11.742222 0 1 1.3702,3.27815 2.0082387,2.9309431 11.742222 0 1 -2.0862,2.47434 2.0082387,2.9309431 11.742222 0 1 0.1318,2.0849 2.0082387,2.9309431 11.742222 0 1 -2.5621,2.46128 2.0082387,2.9309431 11.742222 0 1 -1.3702,-3.27814 2.0082387,2.9309431 11.742222 0 1 2.0861,-2.47435 2.0082387,2.9309431 11.742222 0 1 -0.1318,-2.0849 2.0082387,2.9309431 11.742222 0 1 2.2203,-2.48858 z m -6.4044,4.45001 a 2.0082387,2.9309431 11.742222 0 1 0.1425,0.001 2.0082387,2.9309431 11.742222 0 1 0.1995,0.0273 2.0082387,2.9309431 11.742222 0 1 1.3701,3.27814 2.0082387,2.9309431 11.742222 0 1 -2.5634,2.4601 2.0082387,2.9309431 11.742222 0 1 -1.3689,-3.27815 2.0082387,2.9309431 11.742222 0 1 2.2202,-2.48858 z m 14.8532,0.97833 a 2.9309431,2.0082387 56.250745 0 1 0.1556,10e-4 2.9309431,2.0082387 56.250745 0 1 2.3639,1.56249 2.9309431,2.0082387 56.250745 0 1 -0.041,3.55241 2.9309431,2.0082387 56.250745 0 1 -2.7035,-0.61621 2.9309431,2.0082387 56.250745 0 1 -0.4441,2.78778 2.9309431,2.0082387 56.250745 0 1 -3.2983,-1.32146 2.9309431,2.0082387 56.250745 0 1 0.041,-3.55241 2.9309431,2.0082387 56.250745 0 1 2.7036,0.61502 2.9309431,2.0082387 56.250745 0 1 0.444,-2.7866 2.9309431,2.0082387 56.250745 0 1 0.7789,-0.24221 z m 4.2351,3.86112 a 1.9720078,1.3511904 56.250745 0 1 0.1045,0.001 1.9720078,1.3511904 56.250745 0 1 1.591,1.05196 1.9720078,1.3511904 56.250745 0 1 -0.029,2.39004 1.9720078,1.3511904 56.250745 0 1 -2.219,-0.88929 1.9720078,1.3511904 56.250745 0 1 0.028,-2.39004 1.9720078,1.3511904 56.250745 0 1 0.5236,-0.16385 z m -2.2784,1.84625 a 1.9720078,1.3511904 56.250745 0 1 0.1033,0.001 1.9720078,1.3511904 56.250745 0 1 1.591,1.05076 1.9720078,1.3511904 56.250745 0 1 -0.029,2.39005 1.9720078,1.3511904 56.250745 0 1 -2.2191,-0.88929 1.9720078,1.3511904 56.250745 0 1 0.029,-2.39005 1.9720078,1.3511904 56.250745 0 1 0.5248,-0.16266 z m -6.624,0.80618 a 2.9309431,2.0082387 56.250745 0 1 0.1555,0.001 2.9309431,2.0082387 56.250745 0 1 2.364,1.56249 2.9309431,2.0082387 56.250745 0 1 -0.041,3.55241 2.9309431,2.0082387 56.250745 0 1 -2.9113,-0.82755 2.0082387,2.9309431 3.879529 0 1 -2.1727,2.50877 2.0082387,2.9309431 3.879529 0 1 -1.8083,-2.54557 2.0082387,2.9309431 3.879529 0 1 -0.01,0.40842 2.0082387,2.9309431 3.879529 0 1 -2.2013,2.78779 2.0082387,2.9309431 3.879529 0 1 -1.8059,-3.05967 2.0082387,2.9309431 3.879529 0 1 2.2025,-2.78779 2.0082387,2.9309431 3.879529 0 1 1.8082,2.54557 2.0082387,2.9309431 3.879529 0 1 0.01,-0.40843 2.0082387,2.9309431 3.879529 0 1 2.2013,-2.78898 2.0082387,2.9309431 3.879529 0 1 0.7836,0.30158 2.9309431,2.0082387 56.250745 0 1 0.6471,-1.00802 2.9309431,2.0082387 56.250745 0 1 0.7789,-0.24221 z m 4.4513,0.92966 a 1.9720078,1.3511904 56.250745 0 1 0.1056,0.001 1.9720078,1.3511904 56.250745 0 1 1.5898,1.05195 1.9720078,1.3511904 56.250745 0 1 -0.027,2.39005 1.9720078,1.3511904 56.250745 0 1 -2.219,-0.88929 1.9720078,1.3511904 56.250745 0 1 0.027,-2.39005 1.9720078,1.3511904 56.250745 0 1 0.5237,-0.16385 z m -23.4125,7.39809 a 2.0082387,2.9309431 3.879529 0 1 0.1437,0.002 2.0082387,2.9309431 3.879529 0 1 1.8047,3.06087 2.0082387,2.9309431 3.879529 0 1 -2.2013,2.78779 2.0082387,2.9309431 3.879529 0 1 -1.8059,-3.05968 2.0082387,2.9309431 3.879529 0 1 2.0588,-2.79135 z m 10.2049,0.75987 a 2.0082387,2.9309431 3.879529 0 1 0.1425,0.002 2.0082387,2.9309431 3.879529 0 1 1.8058,3.06087 2.0082387,2.9309431 3.879529 0 1 -2.2024,2.78779 2.0082387,2.9309431 3.879529 0 1 -1.8047,-3.05968 2.0082387,2.9309431 3.879529 0 1 2.0588,-2.79135 z m 4.9937,0.8691 a 2.0082387,2.9309431 3.879529 0 1 0.1425,0.002 2.0082387,2.9309431 3.879529 0 1 1.8048,3.05967 2.0082387,2.9309431 3.879529 0 1 -2.2013,2.78779 2.0082387,2.9309431 3.879529 0 1 -1.8059,-3.05967 2.0082387,2.9309431 3.879529 0 1 2.0599,-2.79017 z m 12.7505,1.82133 a 2.9309431,2.0082387 70.480833 0 1 2.3295,2.17039 2.9309431,2.0082387 70.480833 0 1 -0.913,3.43368 2.9309431,2.0082387 70.480833 0 1 -2.8721,-2.09084 2.9309431,2.0082387 70.480833 0 1 0.913,-3.43368 2.9309431,2.0082387 70.480833 0 1 0.5426,-0.0795 z m -20.5665,2.52064 a 2.0082387,2.9309431 3.879529 0 1 0.1425,0.002 2.0082387,2.9309431 3.879529 0 1 1.8059,3.05968 2.0082387,2.9309431 3.879529 0 1 -2.2025,2.78898 2.0082387,2.9309431 3.879529 0 1 -1.8059,-3.06087 2.0082387,2.9309431 3.879529 0 1 2.06,-2.79016 z m 15.9574,0.65064 a 2.0082387,2.9309431 3.879529 0 1 0.1425,0.002 2.0082387,2.9309431 3.879529 0 1 1.8059,3.06087 2.0082387,2.9309431 3.879529 0 1 -2.2025,2.78778 2.0082387,2.9309431 3.879529 0 1 -1.8047,-3.05968 2.0082387,2.9309431 3.879529 0 1 2.0588,-2.79135 z m -5.4271,0.65184 a 2.0082387,2.9309431 3.879529 0 1 0.1424,0.002 2.0082387,2.9309431 3.879529 0 1 1.8047,3.05968 2.0082387,2.9309431 3.879529 0 1 -2.2013,2.78897 2.0082387,2.9309431 3.879529 0 1 -1.8058,-3.06087 2.0082387,2.9309431 3.879529 0 1 2.06,-2.79016 z m -24.6164,2.6833 a 2.0082387,2.9309431 28.99315 0 1 0.7967,0.17572 2.0082387,2.9309431 28.99315 0 1 0.3348,3.53817 2.0082387,2.9309431 28.99315 0 1 -3.1772,1.58979 2.0082387,2.9309431 28.99315 0 1 -0.3349,-3.53697 2.0082387,2.9309431 28.99315 0 1 2.3806,-1.76671 z m -4.9938,0.32532 a 2.0082387,2.9309431 28.99315 0 1 0.7966,0.17691 2.0082387,2.9309431 28.99315 0 1 0.3361,3.53697 2.0082387,2.9309431 28.99315 0 1 -3.1773,1.58981 2.0082387,2.9309431 28.99315 0 1 -0.4737,-0.43218 2.0082387,2.9309431 28.99315 0 1 -0.4749,2.20719 2.0082387,2.9309431 28.99315 0 1 -3.1772,1.5898 2.0082387,2.9309431 28.99315 0 1 -0.336,-3.53698 2.0082387,2.9309431 28.99315 0 1 3.1772,-1.58979 2.0082387,2.9309431 28.99315 0 1 0.4725,0.43099 2.0082387,2.9309431 28.99315 0 1 0.4762,-2.20601 2.0082387,2.9309431 28.99315 0 1 2.3805,-1.76671 z m 10.7475,0.75988 a 2.0082387,2.9309431 28.99315 0 1 0.7955,0.1769 2.0082387,2.9309431 28.99315 0 1 0.3359,3.53698 2.0082387,2.9309431 28.99315 0 1 -3.1772,1.5898 2.0082387,2.9309431 28.99315 0 1 -0.336,-3.53698 2.0082387,2.9309431 28.99315 0 1 2.3818,-1.7667 z m 16.6911,2.31049 a 2.0082387,2.9309431 3.879529 0 1 0.1424,0.002 2.0082387,2.9309431 3.879529 0 1 1.8059,3.05968 2.0082387,2.9309431 3.879529 0 1 -2.2024,2.78897 2.0082387,2.9309431 3.879529 0 1 -1.8059,-3.06087 2.0082387,2.9309431 3.879529 0 1 2.06,-2.79016 z m 5.4283,0.21727 a 2.0082387,2.9309431 3.879529 0 1 0.1425,0.002 2.0082387,2.9309431 3.879529 0 1 1.8047,3.05967 2.0082387,2.9309431 3.879529 0 1 -2.2024,2.78898 2.0082387,2.9309431 3.879529 0 1 -1.8048,-3.06087 2.0082387,2.9309431 3.879529 0 1 2.06,-2.79016 z m -42.2027,1.37965 a 2.0082387,2.9309431 28.99315 0 1 0.7967,0.17691 2.0082387,2.9309431 28.99315 0 1 0.336,3.53698 2.0082387,2.9309431 28.99315 0 1 -3.1772,1.59098 2.0082387,2.9309431 28.99315 0 1 -0.336,-3.53697 2.0082387,2.9309431 28.99315 0 1 2.3805,-1.7679 z m -22.0352,4.9938 a 2.0082387,2.9309431 28.99315 0 1 0.7955,0.17691 2.0082387,2.9309431 28.99315 0 1 0.3361,3.53697 2.0082387,2.9309431 28.99315 0 1 -3.1773,1.58981 2.0082387,2.9309431 28.99315 0 1 -0.336,-3.53698 2.0082387,2.9309431 28.99315 0 1 2.3817,-1.76671 z m 59.2429,0.35619 a 2.0082387,2.9309431 3.879529 0 1 0.1437,0.002 2.0082387,2.9309431 3.879529 0 1 1.8047,3.06087 2.0082387,2.9309431 3.879529 0 1 -2.2013,2.78778 2.0082387,2.9309431 3.879529 0 1 -1.8058,-3.05968 2.0082387,2.9309431 3.879529 0 1 2.0587,-2.79135 z m -17.5578,2.24875 a 2.0082387,2.9309431 28.99315 0 1 0.7955,0.17691 2.0082387,2.9309431 28.99315 0 1 0.3348,3.53698 2.0082387,2.9309431 28.99315 0 1 -3.1772,1.59098 2.0082387,2.9309431 28.99315 0 1 -0.3349,-3.53698 2.0082387,2.9309431 28.99315 0 1 2.3806,-1.76789 z m -27.682,0.10923 a 2.0082387,2.9309431 28.99315 0 1 0.7955,0.17691 2.0082387,2.9309431 28.99315 0 1 0.336,3.53698 2.0082387,2.9309431 28.99315 0 1 -3.1772,1.5898 2.0082387,2.9309431 28.99315 0 1 -0.336,-3.53698 2.0082387,2.9309431 28.99315 0 1 2.3817,-1.76671 z m 35.2807,0.10805 a 2.0082387,2.9309431 28.99315 0 1 0.7955,0.17691 2.0082387,2.9309431 28.99315 0 1 0.336,3.53697 2.0082387,2.9309431 28.99315 0 1 -3.1772,1.5898 2.0082387,2.9309431 28.99315 0 1 -0.336,-3.53698 2.0082387,2.9309431 28.99315 0 1 2.3805,-1.7667 z m -44.7257,2.82222 a 2.0082387,2.9309431 28.99315 0 1 0.7967,0.17691 2.0082387,2.9309431 28.99315 0 1 0.336,3.53697 2.0082387,2.9309431 28.99315 0 1 -3.1772,1.59099 2.0082387,2.9309431 28.99315 0 1 -0.336,-3.53698 2.0082387,2.9309431 28.99315 0 1 2.3805,-1.76789 z m -6.7296,0.75987 a 2.0082387,2.9309431 28.99315 0 1 0.7967,0.17691 2.0082387,2.9309431 28.99315 0 1 0.3348,3.53698 2.0082387,2.9309431 28.99315 0 1 -3.176,1.59098 2.0082387,2.9309431 28.99315 0 1 -0.3361,-3.53698 2.0082387,2.9309431 28.99315 0 1 2.3806,-1.76789 z m -23.2308,1.41171 a 2.0082387,2.9309431 28.99315 0 1 0.7967,0.1769 2.0082387,2.9309431 28.99315 0 1 0.336,3.53698 2.0082387,2.9309431 28.99315 0 1 -3.1773,1.5898 2.0082387,2.9309431 28.99315 0 1 -0.3359,-3.53698 2.0082387,2.9309431 28.99315 0 1 2.3805,-1.7667 z m 85.6485,0.5426 a 2.0082387,2.9309431 28.99315 0 1 0.7967,0.1769 2.0082387,2.9309431 28.99315 0 1 0.336,3.53698 2.0082387,2.9309431 28.99315 0 1 -1.1434,1.29891 2.0082387,2.9309431 28.99315 0 1 -0.4856,1.52331 2.0082387,2.9309431 28.99315 0 1 -3.1772,1.5898 2.0082387,2.9309431 28.99315 0 1 -0.336,-3.53698 2.0082387,2.9309431 28.99315 0 1 1.1433,-1.29772 2.0082387,2.9309431 28.99315 0 1 0.4857,-1.5245 2.0082387,2.9309431 28.99315 0 1 2.3805,-1.7667 z m -33.4345,0.21727 a 2.0082387,2.9309431 28.99315 0 1 0.7967,0.17691 2.0082387,2.9309431 28.99315 0 1 0.336,3.53697 2.0082387,2.9309431 28.99315 0 1 -3.1772,1.58981 2.0082387,2.9309431 28.99315 0 1 -0.336,-3.53698 2.0082387,2.9309431 28.99315 0 1 2.3805,-1.76671 z m -15.9562,0 a 2.0082387,2.9309431 28.99315 0 1 0.7955,0.17691 2.0082387,2.9309431 28.99315 0 1 0.3361,3.53697 2.0082387,2.9309431 28.99315 0 1 -3.1773,1.58981 2.0082387,2.9309431 28.99315 0 1 -0.3359,-3.53698 2.0082387,2.9309431 28.99315 0 1 2.3805,-1.76671 z m 23.1216,0.32532 a 2.0082387,2.9309431 28.99315 0 1 0.7955,0.17691 2.0082387,2.9309431 28.99315 0 1 0.336,3.53698 2.0082387,2.9309431 28.99315 0 1 -3.1772,1.58979 2.0082387,2.9309431 28.99315 0 1 -0.336,-3.53697 2.0082387,2.9309431 28.99315 0 1 2.3805,-1.76671 z m -41.5758,0.21728 a 2.0082387,2.9309431 28.99315 0 1 0.7955,0.17691 2.0082387,2.9309431 28.99315 0 1 0.336,3.53697 2.0082387,2.9309431 28.99315 0 1 -3.1772,1.5898 2.0082387,2.9309431 28.99315 0 1 -0.336,-3.53697 2.0082387,2.9309431 28.99315 0 1 2.3817,-1.76671 z m -5.4284,0 a 2.0082387,2.9309431 28.99315 0 1 0.7968,0.17691 2.0082387,2.9309431 28.99315 0 1 0.3359,3.53697 2.0082387,2.9309431 28.99315 0 1 -3.1771,1.5898 2.0082387,2.9309431 28.99315 0 1 -0.3361,-3.53697 2.0082387,2.9309431 28.99315 0 1 2.3805,-1.76671 z m -5.9697,0.75987 a 2.0082387,2.9309431 28.99315 0 1 0.7955,0.17691 2.0082387,2.9309431 28.99315 0 1 0.336,3.53698 2.0082387,2.9309431 28.99315 0 1 -3.1772,1.5898 2.0082387,2.9309431 28.99315 0 1 -0.336,-3.53698 2.0082387,2.9309431 28.99315 0 1 2.3817,-1.76671 z m 59.8116,0.21728 a 2.0082387,2.9309431 28.99315 0 1 0.7967,0.1769 2.0082387,2.9309431 28.99315 0 1 0.336,3.53698 2.0082387,2.9309431 28.99315 0 1 -3.1772,1.5898 2.0082387,2.9309431 28.99315 0 1 -0.3361,-3.53697 2.0082387,2.9309431 28.99315 0 1 2.3806,-1.76671 z m 13.2444,5.75367 a 2.0082387,2.9309431 28.99315 0 1 0.7955,0.17572 2.0082387,2.9309431 28.99315 0 1 0.336,3.53817 2.0082387,2.9309431 28.99315 0 1 -3.1773,1.58979 2.0082387,2.9309431 28.99315 0 1 -0.3348,-3.53697 2.0082387,2.9309431 28.99315 0 1 2.3806,-1.76671 z m -25.7266,1.19324 a 2.0082387,2.9309431 28.99315 0 1 0.7955,0.17691 2.0082387,2.9309431 28.99315 0 1 0.3361,3.53698 2.0082387,2.9309431 28.99315 0 1 -3.1773,1.59098 2.0082387,2.9309431 28.99315 0 1 -0.3359,-3.53816 2.0082387,2.9309431 28.99315 0 1 2.3805,-1.76671 z m -55.4708,0.97715 a 2.0082387,2.9309431 28.99315 0 1 0.7955,0.17691 2.0082387,2.9309431 28.99315 0 1 0.3361,3.53698 2.0082387,2.9309431 28.99315 0 1 -3.1773,1.59098 2.0082387,2.9309431 28.99315 0 1 -0.336,-3.53816 2.0082387,2.9309431 28.99315 0 1 2.3806,-1.76671 z m 38.9697,1.9543 a 2.0082387,2.9309431 28.99315 0 1 0.7967,0.17691 2.0082387,2.9309431 28.99315 0 1 0.336,3.53697 2.0082387,2.9309431 28.99315 0 1 -3.1772,1.58981 2.0082387,2.9309431 28.99315 0 1 -0.336,-3.53698 2.0082387,2.9309431 28.99315 0 1 2.3805,-1.76671 z m 25.945,0.86792 a 2.0082387,2.9309431 28.99315 0 1 0.7955,0.17691 2.0082387,2.9309431 28.99315 0 1 0.336,3.53698 2.0082387,2.9309431 28.99315 0 1 -3.1772,1.59098 2.0082387,2.9309431 28.99315 0 1 -0.3361,-3.53816 2.0082387,2.9309431 28.99315 0 1 2.3806,-1.76671 z m -18.7808,0.10923 a 2.0082387,2.9309431 28.99315 0 1 0.7967,0.17691 2.0082387,2.9309431 28.99315 0 1 0.336,3.53697 2.0082387,2.9309431 28.99315 0 1 -3.1772,1.58981 2.0082387,2.9309431 28.99315 0 1 -0.336,-3.53698 2.0082387,2.9309431 28.99315 0 1 2.3805,-1.76671 z m 28.2258,0.21728 a 2.0082387,2.9309431 28.99315 0 1 0.7955,0.17691 2.0082387,2.9309431 28.99315 0 1 0.3348,3.53698 2.0082387,2.9309431 28.99315 0 1 -3.1772,1.58979 2.0082387,2.9309431 28.99315 0 1 -0.3349,-3.53697 2.0082387,2.9309431 28.99315 0 1 2.3806,-1.76671 z m -45.1591,0.86792 a 2.0082387,2.9309431 28.99315 0 1 0.7955,0.1769 2.0082387,2.9309431 28.99315 0 1 0.336,3.53698 2.0082387,2.9309431 28.99315 0 1 -3.1772,1.5898 2.0082387,2.9309431 28.99315 0 1 -0.3361,-3.53697 2.0082387,2.9309431 28.99315 0 1 2.3818,-1.76671 z m 25.9437,0.54259 a 2.0082387,2.9309431 28.99315 0 1 0.7955,0.17691 2.0082387,2.9309431 28.99315 0 1 0.3361,3.53698 2.0082387,2.9309431 28.99315 0 1 -3.1773,1.5898 2.0082387,2.9309431 28.99315 0 1 -0.3348,-3.53698 2.0082387,2.9309431 28.99315 0 1 2.3805,-1.76671 z m -32.4572,0.43456 a 2.0082387,2.9309431 28.99315 0 1 0.7966,0.1769 2.0082387,2.9309431 28.99315 0 1 0.3349,3.53698 2.0082387,2.9309431 28.99315 0 1 -3.1773,1.5898 2.0082387,2.9309431 28.99315 0 1 -0.3348,-3.53697 2.0082387,2.9309431 28.99315 0 1 2.3806,-1.76671 z m -13.5686,1.30247 a 2.0082387,2.9309431 28.99315 0 1 0.7955,0.17691 2.0082387,2.9309431 28.99315 0 1 0.3361,3.53697 2.0082387,2.9309431 28.99315 0 1 -3.1773,1.58981 2.0082387,2.9309431 28.99315 0 1 -0.336,-3.53698 2.0082387,2.9309431 28.99315 0 1 2.3817,-1.76671 z m 7.2723,0.10923 a 2.0082387,2.9309431 28.99315 0 1 0.7967,0.17573 2.0082387,2.9309431 28.99315 0 1 0.336,3.53697 2.0082387,2.9309431 28.99315 0 1 -3.1772,1.59098 2.0082387,2.9309431 28.99315 0 1 -0.3361,-3.53697 2.0082387,2.9309431 28.99315 0 1 2.3806,-1.76671 z m 22.4709,2.06235 a 2.0082387,2.9309431 28.99315 0 1 0.7955,0.17572 2.0082387,2.9309431 28.99315 0 1 0.336,3.53697 2.0082387,2.9309431 28.99315 0 1 -3.1773,1.59099 2.0082387,2.9309431 28.99315 0 1 -0.336,-3.53698 2.0082387,2.9309431 28.99315 0 1 2.3818,-1.7667 z m 19.9182,5.76673 a 2.0082387,2.9309431 75.75179 0 1 2.2725,1.35352 2.0082387,2.9309431 75.75179 0 1 -2.3473,2.66787 2.0082387,2.9309431 75.75179 0 1 -3.0431,-0.66132 2.0082387,2.9309431 75.75179 0 1 -2.3841,2.39835 2.0082387,2.9309431 75.75179 0 1 -3.3351,-1.2253 2.0082387,2.9309431 75.75179 0 1 2.3461,-2.66787 2.0082387,2.9309431 75.75179 0 1 3.0443,0.66252 2.0082387,2.9309431 75.75179 0 1 2.3841,-2.39954 2.0082387,2.9309431 75.75179 0 1 1.0626,-0.12823 z m -12.0488,4.12469 a 2.0082387,2.9309431 75.75179 0 1 2.2713,1.35471 2.0082387,2.9309431 75.75179 0 1 -2.3461,2.66787 2.0082387,2.9309431 75.75179 0 1 -3.3351,-1.22529 2.0082387,2.9309431 75.75179 0 1 2.3461,-2.66787 2.0082387,2.9309431 75.75179 0 1 1.0626,-0.12942 z m -7.7079,0.43455 a 2.0082387,2.9309431 75.75179 0 1 2.2725,1.35353 2.0082387,2.9309431 75.75179 0 1 -2.3473,2.66787 2.0082387,2.9309431 75.75179 0 1 -3.3352,-1.2253 2.0082387,2.9309431 75.75179 0 1 2.3473,-2.66787 2.0082387,2.9309431 75.75179 0 1 1.0627,-0.12823 z m -15.5228,3.0395 a 2.0082387,2.9309431 75.75179 0 1 2.2713,1.35353 2.0082387,2.9309431 75.75179 0 1 -2.3461,2.66786 2.0082387,2.9309431 75.75179 0 1 -3.3352,-1.22529 2.0082387,2.9309431 75.75179 0 1 2.3462,-2.66787 2.0082387,2.9309431 75.75179 0 1 1.0638,-0.12823 z m 10.2036,0.97715 a 2.0082387,2.9309431 75.75179 0 1 2.2725,1.35352 2.0082387,2.9309431 75.75179 0 1 -2.3472,2.66788 2.0082387,2.9309431 75.75179 0 1 -3.3352,-1.2253 2.0082387,2.9309431 75.75179 0 1 2.3473,-2.66787 2.0082387,2.9309431 75.75179 0 1 1.0626,-0.12823 z"
       id="path4257"
       inkscape:connector-curvature="0" />
  </g>
</svg>
