<?xml version="1.0" encoding="UTF-8" standalone="no"?>
<!-- Created with Inkscape (http://www.inkscape.org/) -->

<svg
   xmlns:dc="http://purl.org/dc/elements/1.1/"
   xmlns:cc="http://creativecommons.org/ns#"
   xmlns:rdf="http://www.w3.org/1999/02/22-rdf-syntax-ns#"
   xmlns:svg="http://www.w3.org/2000/svg"
   xmlns="http://www.w3.org/2000/svg"
   xmlns:sodipodi="http://sodipodi.sourceforge.net/DTD/sodipodi-0.dtd"
   xmlns:inkscape="http://www.inkscape.org/namespaces/inkscape"
   width="82.892693mm"
   height="82.892693mm"
   viewBox="0 0 293.71426 293.71425"
   id="svg2"
   version="1.1"
   inkscape:version="0.91 r13725"
   sodipodi:docname="vireo.svg">
  <defs
     id="defs4" />
  <sodipodi:namedview
     id="base"
     pagecolor="#ffffff"
     bordercolor="#666666"
     borderopacity="1.0"
     inkscape:pageopacity="0.0"
     inkscape:pageshadow="2"
     inkscape:zoom="0.9899495"
     inkscape:cx="257.83052"
     inkscape:cy="187.24413"
     inkscape:document-units="px"
     inkscape:current-layer="layer1"
     showgrid="false"
     fit-margin-top="0"
     fit-margin-left="0"
     fit-margin-right="0"
     fit-margin-bottom="0"
     inkscape:window-width="1920"
     inkscape:window-height="1017"
     inkscape:window-x="-8"
     inkscape:window-y="-8"
     inkscape:window-maximized="1" />
  <metadata
     id="metadata7">
    <rdf:RDF>
      <cc:Work
         rdf:about="">
        <dc:format>image/svg+xml</dc:format>
        <dc:type
           rdf:resource="http://purl.org/dc/dcmitype/StillImage" />
        <dc:title />
      </cc:Work>
    </rdf:RDF>
  </metadata>
  <g
     inkscape:label="Layer 1"
     inkscape:groupmode="layer"
     id="layer1"
     transform="translate(-3073.0131,555.62592)">
    <rect
       style="fill:#829e6d;fill-opacity:1;stroke:#ffffff;stroke-width:8;stroke-linecap:round;stroke-linejoin:round;stroke-miterlimit:4;stroke-dasharray:none;stroke-dashoffset:0;stroke-opacity:0"
       id="rect4419"
       width="285.71426"
       height="285.71426"
       x="3077.0129"
       y="-551.62592"
       ry="29.94739"
       inkscape:export-filename="E:\INFO\Ornitho\app\src\main\res\mipmap-mdpi\ornitho_launcher.png"
       inkscape:export-xdpi="14.71"
       inkscape:export-ydpi="14.71" />
    <path
       style="fill:#000000;fill-opacity:1;fill-rule:evenodd;stroke:#000000;stroke-width:0.33596951;stroke-linecap:round;stroke-linejoin:round;stroke-miterlimit:4;stroke-dasharray:none;stroke-opacity:1"
       d="m 3294.6268,-465.37856 c 5.3665,-0.0599 11.0237,0.82661 17.0124,3.68123 12.776,6.08984 17.1404,18.07345 17.1404,18.07345 0,0 9.9069,2.46934 9.4826,9.51148 0,0 -12.108,-0.4384 -15.7565,-1.54139 0,0 -7.5922,7.75282 -18.2098,14.65142 -10.6719,6.93376 -21.2496,16.62315 -28.503,19.64569 -14.5819,6.07635 -32.8699,8.75817 -32.8699,8.75817 0,0 -2.0096,7.9756 2.1333,8.1617 4.1428,0.18611 36.0999,7.12619 42.1969,5.7187 6.0971,-1.40749 8.1787,5.51641 7.0758,7.29815 -0.8806,-2.98745 -2.8616,-4.00848 -5.0488,-4.35907 -2.1132,-0.9916 -2.442,0.26764 -2.0879,0.50198 1.074,2.4478 -1.6482,6.14063 -2.7699,6.14063 0.6789,-2.96957 2.5264,-5.65765 -2.0899,-5.97265 -4.6163,-0.31498 -4.7575,3.54823 -4.1636,6.85719 -3.9029,-3.64833 1.6682,-5.90148 -3.1726,-6.87424 -7.745,-1.55633 -31.8547,-5.11323 -35.7841,-4.42141 -7.3411,1.29245 -9.0809,-8.41383 -9.1656,-12.3167 l -21.1182,-0.23951 c 0,0 11.7789,14.10956 15.0628,16.25318 3.284,2.14362 6.479,7.09266 2.485,13.48931 -0.044,-7.21048 -0.6715,-8.06544 -5.8203,-15.02939 3.7331,5.59978 8.6328,23.28302 -0.7003,25.23446 3.3315,-3.6457 2.6317,-9.58333 2.0113,-15.14224 0.4891,-1.51498 -0.217,-1.94457 0,0 -1.3246,4.10259 -6.4101,5.75207 -7.7732,5.62814 2.8847,-2.96958 4.0943,-4.88043 3.8537,-7.63543 -0.2405,-2.755 -1.7594,-5.95265 -4.0795,-6.23972 -2.3201,-0.28707 -6.5568,-0.84908 -8.1689,7.63543 -0.7637,-14.25398 6.387,-7.63515 6.6296,-11.4748 0.2424,-3.83965 -11.4192,-14.03919 -11.4192,-14.03919 0,0 -11.2325,-7.16673 -13.0864,-13.27999 -1.8538,-6.11325 -9.5213,-11.16107 -14.8712,-13.95717 -5.3499,-2.79611 -8.0953,-10.20847 -22.0782,-6.95956 -13.9827,3.24891 -28.9721,6.41731 -11.0391,0.47968 17.933,-5.93763 14.2559,-7.81779 2.3997,-9.35858 -11.8561,-1.5408 -50.4954,-8.7932 -38.6365,-8.15973 11.859,0.63346 24.9834,0.2845 47.7903,-1.60505 16.0191,-1.32717 19.9242,0.0399 29.4828,-4.03426 8.5845,-3.65904 31.1292,-4.56251 42.5952,-8.04751 11.466,-3.48502 27.7169,-3.02671 31.318,-2.8715 6.0424,0.26044 12.4047,0.10104 22.5585,-1.79992 5.3943,-1.00987 11.1024,-2.29305 17.1843,-2.36098 z m -7.4345,90.10151 c -0.6908,-1.41095 1.2581,-0.63499 2.0879,-0.50198 8.0437,3.77425 6.1406,10.30334 3.4444,13.55821 0.6035,-5.41298 -0.5892,-9.7845 -5.5323,-13.05623 z m 10.833,-82.24362 c -5.4934,0.0866 -8.2866,4.57948 -5.1761,12.04765 3.1107,7.46815 12.8142,4.47858 12.8968,2.46071 0.036,-0.87536 -1.2218,-1.88501 -2.6562,-2.74813 -0.9291,0.89167 -2.1852,1.39283 -3.4949,1.39441 -2.7434,2.5e-4 -4.9676,-2.14772 -4.9673,-4.79741 -3e-4,-2.64967 2.2239,-4.79764 4.9673,-4.7974 2.743,1e-4 4.9668,2.14797 4.9666,4.7974 -2e-4,0.12418 -0.011,0.2483 -0.017,0.37206 1.6783,0.98923 3.3394,1.96124 4.2554,2.4699 3.845,2.29776 9.8574,7.93631 13.7445,2.63067 3.8872,-5.30563 -6.6024,-4.45667 -11.2844,-6.19378 -4.6821,-1.73711 -7.742,-7.72267 -13.2354,-7.63608 z m -87.0398,10.4367 c -1.757,0.0127 1.0298,7.34777 6.3421,11.90396 6.6665,5.71755 17.7115,4.88199 12.2393,1.67984 -5.4722,-3.20215 -11.0425,-6.50652 -16.3188,-11.9991 -1.0718,-1.11568 -1.8147,-1.58791 -2.2626,-1.5847 z m 21.4621,0.3714 c -2.4649,0.23433 3.9035,8.0802 12.3574,12.37248 9.6293,4.88907 18.9125,-2.21178 8.8795,-3.71995 -10.0331,-1.50817 -13.9243,-5.88915 -19.6785,-8.27916 -0.5395,-0.22405 -0.9672,-0.3434 -1.2921,-0.37205 -0.098,-0.008 -0.1868,-0.008 -0.2663,-10e-4 z m 85.7076,10.14077 c -0.1627,-0.003 -0.3385,-0.002 -0.5283,0.002 -6.0716,0.14347 -10.5184,-0.17873 -17.4198,1.94889 -6.9014,2.12762 -31.4237,17.26087 -57.3012,17.45598 -25.8774,0.1951 -35.839,7.28644 -46.6637,6.1636 -10.8247,-1.12284 -0.4805,9.95854 8.9996,13.57986 9.4802,3.62131 22.4997,2.8081 36.6122,1.42327 14.1127,-1.38482 33.0458,-7.84581 42.4536,-14.57989 9.4078,-6.73409 18.4737,-13.203 24.9169,-17.75586 6.2418,-4.41057 13.9737,-8.13949 8.9307,-8.23782 z"
       id="path11033"
       inkscape:connector-curvature="0"
       sodipodi:nodetypes="sscccsscssccccscssccsccccccsscscssssssssssssccccssscccccccssssssssssssssscsssssssscc" />
  </g>
</svg>
