<?xml version="1.0" encoding="UTF-8" standalone="no"?>
<!-- Created with Inkscape (http://www.inkscape.org/) -->

<svg
   xmlns:dc="http://purl.org/dc/elements/1.1/"
   xmlns:cc="http://creativecommons.org/ns#"
   xmlns:rdf="http://www.w3.org/1999/02/22-rdf-syntax-ns#"
   xmlns:svg="http://www.w3.org/2000/svg"
   xmlns="http://www.w3.org/2000/svg"
   xmlns:sodipodi="http://sodipodi.sourceforge.net/DTD/sodipodi-0.dtd"
   xmlns:inkscape="http://www.inkscape.org/namespaces/inkscape"
   width="82.892693mm"
   height="82.892693mm"
   viewBox="0 0 293.71426 293.71426"
   id="svg4148"
   version="1.1"
   inkscape:version="0.91 r13725"
   sodipodi:docname="warbler.svg">
  <defs
     id="defs4150" />
  <sodipodi:namedview
     id="base"
     pagecolor="#ffffff"
     bordercolor="#666666"
     borderopacity="1.0"
     inkscape:pageopacity="0.0"
     inkscape:pageshadow="2"
     inkscape:zoom="0.98994949"
     inkscape:cx="-91.248263"
     inkscape:cy="176.41896"
     inkscape:document-units="px"
     inkscape:current-layer="layer1"
     showgrid="false"
     fit-margin-top="0"
     fit-margin-left="0"
     fit-margin-right="0"
     fit-margin-bottom="0"
     inkscape:window-width="1920"
     inkscape:window-height="1017"
     inkscape:window-x="-8"
     inkscape:window-y="-8"
     inkscape:window-maximized="1" />
  <metadata
     id="metadata4153">
    <rdf:RDF>
      <cc:Work
         rdf:about="">
        <dc:format>image/svg+xml</dc:format>
        <dc:type
           rdf:resource="http://purl.org/dc/dcmitype/StillImage" />
        <dc:title />
      </cc:Work>
    </rdf:RDF>
  </metadata>
  <g
     inkscape:label="Layer 1"
     inkscape:groupmode="layer"
     id="layer1"
     transform="translate(972.6565,40.969395)">
    <rect
       inkscape:export-ydpi="14.71"
       inkscape:export-xdpi="14.71"
       inkscape:export-filename="E:\INFO\Ornitho\app\src\main\res\mipmap-mdpi\ornitho_launcher.png"
       ry="29.94739"
       y="-36.969395"
       x="-968.65649"
       height="285.71426"
       width="285.71426"
       id="rect4197"
       style="fill:#829e6d;fill-opacity:1;stroke:#ffffff;stroke-width:8;stroke-linecap:round;stroke-linejoin:round;stroke-miterlimit:4;stroke-dasharray:none;stroke-dashoffset:0;stroke-opacity:0" />
    <path
       style="fill:#000000;fill-opacity:1;fill-rule:evenodd;stroke:#000000;stroke-width:0.65709388px;stroke-linecap:round;stroke-linejoin:round;stroke-opacity:1"
       d="m -721.18785,13.361468 c -6.45365,3.168131 -16.65518,10.46292 -19.74234,14.391896 -3.08722,3.928976 0.18799,5.820296 3.13531,5.342738 2.94733,-0.477557 19.21523,-2.185241 22.97006,-0.89452 -2.69875,1.29072 -13.91269,4.679593 -19.77956,5.970313 1.59806,1.905375 4.63949,8.537122 2.79779,15.18888 -1.8417,6.651757 1.24432,6.14589 -1.61194,24.413858 -2.85632,18.267976 -15.84905,39.623447 -25.22367,53.764917 -9.37462,14.14147 -31.3634,22.40279 -31.3634,22.40279 0,0 22.91015,4.46189 31.031,5.39279 8.12089,0.93091 17.83941,2.07469 22.40279,9.79096 -1.69986,-1.98318 -8.50175,-4.35978 -7.45237,-3.69321 1.04937,0.66657 8.04054,4.80651 9.85872,7.26102 -4.1646,-2.32441 -12.44993,-5.61505 -11.03204,-4.61603 1.41789,0.999 3.56526,4.28552 3.89642,5.03057 -7.63333,-4.06556 -18.81581,-9.42524 -19.58191,-7.46803 -0.76611,1.95722 -1.99092,5.39392 3.15327,12.94424 -6.13982,-3.06991 -9.16349,-11.40179 -7.79914,-14.18783 1.36439,-2.78605 -27.52605,-6.60074 -35.74103,-7.54632 -8.21497,-0.94558 -7.40359,-1.91315 -8.06736,-3.7385 -0.24891,-1.82535 -18.41988,-1.4096 -19.4985,0.16684 0,0 6.96889,13.1558 10.95242,19.58063 3.98354,6.42482 11.03483,11.94725 12.03047,17.67222 -0.76974,-1.15461 -2.9585,-2.74144 -3.98244,-3.54399 -1.02396,-0.80256 2.13366,7.62058 1.82507,11.42655 -0.44472,-2.74241 -4.25915,-9.37862 -5.39261,-10.34189 -1.13345,-0.96327 -0.009,6.61658 -0.99609,9.01487 -0.16594,-4.31447 -2.27051,-11.01365 -3.64995,-14.68579 -1.37944,-3.67214 -7.0527,4.81177 -2.40635,12.69398 -10.78618,-7.6333 -0.0784,-13.88584 -1.41045,-18.91712 -1.33208,-5.03129 -12.44627,-25.47266 -12.44627,-25.47266 0,0 -49.27561,9.48349 -58.4108,16.67761 -9.13512,7.19412 -23.07628,17.69555 -32.358,25.22368 -9.28171,7.52813 -17.86408,5.08193 -5.64305,-4.64715 12.22102,-9.72906 25.22984,-21.84645 38.33347,-33.35392 13.10362,-11.50747 20.52483,-17.5924 27.87772,-32.52487 7.3529,-14.93247 27.96514,-29.28545 38.16664,-42.480096 10.20149,-13.194642 19.13943,-23.043635 22.13969,-30.948864 3.00027,-7.905229 15.65712,-23.348122 29.84002,-29.297148 14.18287,-5.949024 31.05882,-1.682336 33.87499,0.195075 0,0 14.84458,-6.188489 19.30342,-6.188489 z m -28.04457,6.066567 c -4.43291,-0.0938 -9.73666,0.952115 -15.51357,3.037776 -8.40282,3.03369 -21.44654,9.364615 -25.11716,12.79408 -3.67061,3.429467 -6.75647,11.392046 -3.66791,17.193529 3.08854,5.801484 9.91557,9.654197 21.21053,9.726786 11.29495,0.07259 14.6614,0.956109 15.97815,-3.923312 1.31675,-4.879421 11.98337,-8.899072 16.10394,-13.265083 4.12063,-4.36601 -2.97489,-8.658251 -6.65179,-8.152071 -3.67684,0.50618 -3.30026,-1.181006 -1.09216,-5.338888 2.20809,-4.157882 9.3954,-9.554793 4.21849,-11.228348 -1.61779,-0.522986 -3.45355,-0.801832 -5.46852,-0.844469 z m -12.21142,10.652109 c 2.13476,-0.01868 2.1359,1.106583 4.22363,1.111412 2.69868,0.0062 5.46876,-1.07184 5.74829,-0.32213 0.52666,1.412556 -1.80745,2.177096 -3.22644,3.461294 -1.41899,1.284197 -3.72217,3.325464 -6.16025,3.871977 -2.43809,0.546513 -4.5755,-0.06502 -10.09127,2.933821 -5.51578,2.99884 -4.95814,8.345804 -9.44573,8.916969 -4.48759,0.571166 -10.52385,-3.587436 -7.80299,-4.223624 4.27954,-1.000636 14.50395,-8.582419 18.3319,-10.749646 3.43473,-1.944604 4.13015,-4.467727 7.36535,-4.91537 0.4044,-0.05596 0.75255,-0.08203 1.05751,-0.0847 z m 6.54913,35.972039 c -0.89095,-0.252849 3.15779,8.431455 2.01491,13.043058 -1.46289,5.902852 -5.39175,11.409683 -15.13626,19.947678 -9.74447,8.538001 -29.23431,18.399691 -45.05842,26.400541 -15.8241,8.00085 -34.67697,14.61439 -46.465,19.00952 -11.78804,4.39513 12.54701,6.04411 17.24871,5.045 4.70171,-0.99909 10.66544,-3.33931 16.30928,-1.17302 5.64383,2.16629 15.58929,0.32914 27.57484,1.52466 11.98555,1.19552 21.06156,-5.38602 28.98272,-12.08564 6.24948,-5.28575 14.07781,-16.53254 20.06061,-26.70087 -2.02208,3.09819 -4.64252,4.93524 -5.89845,4.13507 -1.27323,-0.81608 -0.66126,-4.04257 1.36681,-7.20621 1.29719,-2.02123 2.92633,-3.61622 4.28652,-4.19668 -0.54759,-1.33239 0.20947,-4.024054 1.8532,-6.588902 1.49128,-2.324779 3.39953,-4.055038 4.82939,-4.378913 -0.47248,-9.073393 -5.75764,-18.424325 -9.83588,-24.175151 -1.24652,-1.757753 -1.88352,-2.529339 -2.13298,-2.600141 z m -9.81791,13.333106 c -9.09131,-0.05342 -27.95414,7.305655 -35.74617,8.512697 -9.23499,1.430572 16.74323,4.520717 26.38386,1.990534 9.64065,-2.530179 18.91342,-5.756313 13.27535,-9.624112 -0.88094,-0.604349 -2.22947,-0.86923 -3.91304,-0.879119 z m 16.94583,7.084293 c 0.32904,-0.02799 0.6137,0.03299 0.84447,0.180957 1.27235,0.81665 0.66047,4.042084 -1.36681,7.204933 -2.02769,3.163526 -4.70359,5.066595 -5.97672,4.250576 -1.27324,-0.816084 -0.66126,-4.042573 1.3668,-7.206217 1.60977,-2.511055 3.68992,-4.307116 5.13098,-4.430249 z m -62.13387,11.212949 c -0.41465,-0.0046 -0.81741,-0.0033 -1.20767,0.0053 -2.08136,0.04448 -3.7978,0.28418 -4.95002,0.83035 -4.60885,2.184699 -6.81821,8.771609 3.31884,9.292999 10.13705,0.5214 34.86713,-7.844068 24.89128,-8.297088 -7.01427,-0.318526 -15.8326,-1.762076 -22.05243,-1.831393 z m 55.49492,2.560349 c 0.32948,-0.0285 0.61458,0.032 0.84575,0.17968 1.27322,0.81608 0.66126,4.04257 -1.36681,7.20622 -2.0277,3.16352 -4.70359,5.06659 -5.97673,4.25057 -1.27323,-0.81609 -0.66126,-4.04257 1.3668,-7.20621 1.60978,-2.51105 3.68992,-4.30712 5.13099,-4.43026 z m 10.06303,1.55419 c -1.03612,1.24212 -2.13659,2.15469 -3.08911,2.56164 0.44517,1.08968 0.0254,3.11112 -1.09473,5.27214 1.27747,-2.21362 2.46371,-4.36332 3.50878,-6.3643 0.25231,-0.4831 0.47108,-0.97468 0.67506,-1.46949 z m -17.12294,0.53517 c 0.48917,-0.007 0.8732,0.12453 1.12938,0.3863 1.05735,1.08071 -0.26123,4.08731 -2.94538,6.71596 -2.68435,2.62872 -5.71802,3.88414 -6.77628,2.80419 -1.05734,-1.08071 0.26123,-4.0873 2.94538,-6.71595 1.95302,-1.91273 4.17718,-3.16938 5.6469,-3.1905 z m -9.12617,2.48849 c 0.48917,-0.007 0.87321,0.12452 1.12938,0.3863 1.05861,1.08019 -0.2602,4.08786 -2.94537,6.71724 -2.68435,2.62872 -5.71802,3.88414 -6.77628,2.8042 -1.05962,-1.07947 0.2587,-4.08736 2.94409,-6.71724 1.95365,-1.91334 4.17853,-3.17011 5.64818,-3.1905 z m -11.11797,4.97825 c 0.48916,-0.007 0.8732,0.12453 1.12938,0.38629 1.05859,1.08019 -0.26021,4.08787 -2.94537,6.71725 -2.68435,2.62873 -5.71803,3.88414 -6.77629,2.8042 -1.05962,-1.07947 0.2587,-4.08736 2.94409,-6.71725 1.95302,-1.91272 4.17719,-3.16937 5.6469,-3.19049 z m 21.738,2.98772 c 0.48916,-0.007 0.8732,0.12453 1.12938,0.3863 1.05735,1.08072 -0.26123,4.08731 -2.94538,6.71596 -2.68434,2.62872 -5.71802,3.88414 -6.77628,2.8042 -1.05734,-1.08071 0.26124,-4.08731 2.94537,-6.71596 1.95303,-1.91273 4.17719,-3.16938 5.64691,-3.1905 z m -10.62003,4.8127 c 0.48896,-0.007 0.87299,0.12386 1.12938,0.38501 1.05861,1.08019 -0.2602,4.08787 -2.94537,6.71725 -2.68435,2.62872 -5.71802,3.88414 -6.77628,2.8042 -1.0586,-1.08019 0.2602,-4.08787 2.94537,-6.71725 1.9534,-1.91266 4.17761,-3.16884 5.6469,-3.18921 z m -26.5507,2.98644 c 0.48917,-0.007 0.87321,0.12453 1.12938,0.3863 1.05735,1.08072 -0.26123,4.08731 -2.94537,6.71596 -2.68435,2.62873 -5.71802,3.88415 -6.77628,2.80421 -1.05734,-1.08073 0.26123,-4.08732 2.94537,-6.71597 1.95303,-1.91273 4.17719,-3.16938 5.6469,-3.1905 z m 14.43682,5.97417 c 0.48917,-0.007 0.87321,0.12452 1.12938,0.3863 1.05734,1.08071 -0.26123,4.08731 -2.94537,6.71596 -2.68435,2.62872 -5.71802,3.88414 -6.77628,2.8042 -1.0586,-1.08019 0.2602,-4.08787 2.94537,-6.71725 1.95339,-1.91267 4.17761,-3.16884 5.6469,-3.18921 z m -38.08065,8.24062 c 2.32851,-0.0336 3.9343,0.57891 4.15561,1.58499 0.32308,1.47685 -2.38863,3.32736 -6.05758,4.13379 -3.66948,0.80671 -6.9077,0.26375 -7.23317,-1.2128 -0.32487,-1.47701 2.38733,-3.32843 6.05759,-4.13507 1.04759,-0.23005 2.10212,-0.35714 3.07755,-0.3709 z m 15.87165,0.22716 c 0.89822,0.008 1.52629,0.26754 1.80187,0.74565 0.75592,1.30962 -1.26948,3.89351 -4.52394,5.77139 -3.25492,1.87787 -6.50607,2.33814 -7.2614,1.028 -0.75592,-1.30962 1.26948,-3.89351 4.52394,-5.7714 1.94537,-1.12237 3.98831,-1.78607 5.45953,-1.77364 z"
       id="path11607"
       inkscape:connector-curvature="0"
       sodipodi:nodetypes="cssccssscsczczcscssccsczczcscscssssssssccsssssssssssssssssssssscssssssssccccccscsssssccsscccscsssscccscccccscccccccccccccccccccccccccccccccccccccccccccccccccccccccc" />
  </g>
</svg>
