<?xml version="1.0" encoding="UTF-8" standalone="no"?>
<!-- Created with Inkscape (http://www.inkscape.org/) -->

<svg
   xmlns:dc="http://purl.org/dc/elements/1.1/"
   xmlns:cc="http://creativecommons.org/ns#"
   xmlns:rdf="http://www.w3.org/1999/02/22-rdf-syntax-ns#"
   xmlns:svg="http://www.w3.org/2000/svg"
   xmlns="http://www.w3.org/2000/svg"
   xmlns:sodipodi="http://sodipodi.sourceforge.net/DTD/sodipodi-0.dtd"
   xmlns:inkscape="http://www.inkscape.org/namespaces/inkscape"
   width="82.892693mm"
   height="82.892693mm"
   viewBox="0 0 293.71426 293.71426"
   id="svg4148"
   version="1.1"
   inkscape:version="0.91 r13725"
   sodipodi:docname="waterthrush.svg">
  <defs
     id="defs4150" />
  <sodipodi:namedview
     id="base"
     pagecolor="#ffffff"
     bordercolor="#666666"
     borderopacity="1.0"
     inkscape:pageopacity="0.0"
     inkscape:pageshadow="2"
     inkscape:zoom="1.4"
     inkscape:cx="54.46475"
     inkscape:cy="138.96313"
     inkscape:document-units="px"
     inkscape:current-layer="layer1"
     showgrid="false"
     fit-margin-top="0"
     fit-margin-left="0"
     fit-margin-right="0"
     fit-margin-bottom="0"
     inkscape:window-width="1920"
     inkscape:window-height="1017"
     inkscape:window-x="-8"
     inkscape:window-y="-8"
     inkscape:window-maximized="1" />
  <metadata
     id="metadata4153">
    <rdf:RDF>
      <cc:Work
         rdf:about="">
        <dc:format>image/svg+xml</dc:format>
        <dc:type
           rdf:resource="http://purl.org/dc/dcmitype/StillImage" />
        <dc:title></dc:title>
      </cc:Work>
    </rdf:RDF>
  </metadata>
  <g
     inkscape:label="Layer 1"
     inkscape:groupmode="layer"
     id="layer1"
     transform="translate(972.6565,40.969395)">
    <rect
       inkscape:export-ydpi="14.71"
       inkscape:export-xdpi="14.71"
       inkscape:export-filename="E:\INFO\Ornitho\app\src\main\res\mipmap-mdpi\ornitho_launcher.png"
       ry="29.94739"
       y="-36.969395"
       x="-968.65649"
       height="285.71426"
       width="285.71426"
       id="rect4197"
       style="fill:#829e6d;fill-opacity:1;stroke:#ffffff;stroke-width:8;stroke-linecap:round;stroke-linejoin:round;stroke-miterlimit:4;stroke-dasharray:none;stroke-dashoffset:0;stroke-opacity:0" />
    <path
       style="fill:#000000;fill-opacity:1;fill-rule:evenodd;stroke:#000000;stroke-width:0.55099612px;stroke-linecap:round;stroke-linejoin:round;stroke-opacity:1"
       d="m -753.62759,23.686598 c -17.81167,0.04281 -21.62867,3.189978 -31.03011,11.061894 -9.40145,7.871911 -6.50562,11.753056 -18.64563,10.575467 -12.14,-1.17759 -23.18971,2.164658 -37.98753,-0.69628 -14.7978,-2.860928 -39.17999,-0.67759 -54.96293,-1.530301 -15.78296,-0.85272 -36.29027,-3.697755 -49.95448,-4.035619 -13.66421,-0.337863 24.83713,13.05148 34.92692,22.959969 10.08978,9.908492 21.9923,23.136642 31.72532,33.673182 9.73301,10.53653 20.73297,25.04666 27.41206,27.82961 1.80892,2.08721 -3.25015,7.19147 -3.75689,13.0797 -0.50675,5.88823 11.27079,28.10775 15.86266,42.3008 0,0 -10.34471,5.06796 -11.13184,8.90526 0,0 9.11892,-5.09263 14.19245,-5.09349 5.07354,-9.5e-4 15.30629,5.37221 15.30629,5.37221 0.21376,-1.38946 -1.34036,-3.65557 -3.26078,-4.60383 -1.92041,-0.94824 1.02876,-1.64883 -1.19131,-3.18868 -2.22008,-1.53983 -9.87919,-3.61698 -9.87919,-3.61699 0,0 -11.20901,-25.24834 -11.13185,-32.97797 0.0772,-7.72964 4.31327,-11.96695 4.31327,-11.96695 l 11.5494,2.92179 c 0.69573,5.84419 24.00181,39.58408 24.76792,42.43961 0.76612,2.85553 -9.27239,4.29083 -10.15791,7.93134 4.32925,-1.57428 12.23854,-3.89999 18.6822,-3.02941 6.44368,0.87059 12.1948,1.72263 17.31119,2.70655 -1.87667,-2.86302 -12.66861,-4.2885 -12.66861,-4.2885 0,0 10.80484,0.43554 13.75661,1.41946 -2.5582,-4.72283 -17.76796,-3.89522 -20.94,-7.5224 -3.17204,-3.62718 -19.89841,-30.33322 -23.0988,-37.5689 0,0 27.85092,2.3728 42.71834,-4.03561 14.86743,-6.40841 24.96043,-18.17596 33.53437,-34.36947 8.57392,-16.1935 -0.84446,-26.49156 3.29199,-32.475408 4.13644,-5.983853 9.57632,-9.882622 12.01429,-15.670033 10.15777,-0.13914 29.08168,-0.0693 29.56869,-1.739083 -0.41744,-4.661439 -17.81541,-7.714389 -24.76792,-11.061894 -2.44475,-1.177104 -8.5565,-13.748825 -26.36819,-13.706024 z m -6.15349,8.41991 c 5.43746,8.06e-4 12.17064,2.240321 17.8966,4.459621 6.10771,2.367261 10.96827,4.807233 10.96827,4.807233 a 1.9286794,1.9286794 0 1 1 -1.73047,3.446948 c 0,0 -4.71339,-2.363886 -10.63142,-4.657637 -5.91804,-2.293741 -13.1421,-4.421849 -17.34778,-4.175519 -4.32429,0.253279 -10.738,2.750259 -15.88526,5.239844 -5.14726,2.489594 -9.08606,4.905164 -9.08606,4.905164 a 1.9286794,1.9286794 0 1 1 -2.01672,-3.287683 c 0,0 4.08902,-2.509338 9.42289,-5.089182 5.33386,-2.579848 11.85412,-5.297327 17.34023,-5.618657 0.3503,-0.02051 0.70721,-0.03019 1.06972,-0.03013 z m 21.09496,15.343952 a 1.9286794,1.9286794 0 0 1 1.1784,3.396375 c 0,0 -3.5072,3.07124 -7.83232,6.379504 -4.32511,3.308254 -9.24639,6.870529 -13.17548,7.994827 -3.67199,1.050722 -7.79041,0.793698 -11.06082,0.349746 -3.27041,-0.443941 -5.73272,-1.13427 -5.73272,-1.13427 a 1.9286794,1.9286794 0 1 1 1.04065,-3.713848 c 0,0 2.20962,0.619261 5.21079,1.026662 3.00116,0.4074 6.75381,0.543612 9.481,-0.236758 2.47009,-0.706802 7.68321,-4.130393 11.8927,-7.350203 4.20948,-3.21981 7.63646,-6.218073 7.63646,-6.218073 a 1.9286794,1.9286794 0 0 1 1.36134,-0.493962 z m 0.84049,4.913767 a 1.9286794,1.9286794 0 0 1 1.66483,3.007883 c -2.12,3.23578 -5.52817,6.079502 -8.76105,8.775035 -3.23289,2.695533 -6.30537,5.286205 -7.58589,7.185545 -1.2926,1.91728 -1.8751,4.53315 -2.33312,7.27058 -0.45802,2.73742 -0.73083,5.56171 -2.12327,7.96684 a 1.9286794,1.9286794 0 1 1 -3.33719,-1.93279 c 0.77218,-1.33377 1.18267,-3.83985 1.65622,-6.67006 0.47354,-2.83022 1.07039,-6.01955 2.939,-8.791191 1.88068,-2.789557 5.10581,-5.315208 8.31445,-7.990521 3.20864,-2.675323 6.38668,-5.456068 8.00559,-7.92703 a 1.9286794,1.9286794 0 0 1 1.56043,-0.894291 z m -14.27532,24.593583 a 1.9286794,1.9286794 0 0 1 1.87361,2.21044 c -0.10252,0.76881 -0.24696,1.6169 -0.43478,2.53115 a 1.9286794,1.9286794 0 0 1 0.87923,-0.21631 1.9286794,1.9286794 0 0 1 1.92633,1.78858 c 0.13721,1.57788 -0.14924,3.47584 -0.59619,5.79622 -0.44696,2.32038 -1.08983,4.97497 -1.79935,7.61386 -1.41903,5.2778 -3.05202,10.3775 -4.04961,12.70521 a 1.9286794,1.9286794 0 1 1 -3.54489,-1.51955 c 0.77348,-1.80476 2.48475,-7.0358 3.86989,-12.18757 0.69258,-2.57589 1.31681,-5.16052 1.73694,-7.34159 0.1119,-0.58099 0.20403,-1.13203 0.28195,-1.65191 -1.93866,6.29284 -5.51945,14.45063 -11.56984,23.41411 -9.06417,13.42829 -23.38977,21.11805 -39.10889,20.12965 -15.52176,-0.976 -29.49151,-7.50638 -43.61909,-3.41682 a 1.9287304,1.9287304 0 0 1 -1.07294,-3.70524 c 15.78364,-4.56893 30.40435,2.359 44.93417,3.27263 14.33244,0.9012 27.2706,-5.99636 35.66946,-18.43901 8.57346,-12.70131 11.94354,-23.79708 12.67507,-29.2835 a 1.9286794,1.9286794 0 0 1 1.94893,-1.70035 z m -18.26466,4.5285 a 1.9286794,1.9286794 0 0 1 1.66483,2.78726 c 0,0 -5.52604,11.72992 -16.50836,18.14737 -5.86447,3.42686 -15.78796,4.67008 -26.1239,4.9848 -10.33593,0.3147 -20.94073,-0.44915 -27.76719,-1.80688 -6.98647,-1.38958 -17.18879,-5.65375 -25.82364,-9.57895 -8.63485,-3.92519 -15.61407,-7.52131 -15.61407,-7.52131 a 1.9286794,1.9286794 0 1 1 1.76599,-3.42866 c 0,0 6.90423,3.55646 15.44403,7.43845 8.53981,3.88199 18.80272,8.07913 24.97993,9.30775 6.33722,1.26043 16.83685,2.04003 26.89765,1.7337 10.0608,-0.30634 19.82669,-1.84787 24.29442,-4.45855 9.68203,-5.65764 14.97697,-16.48684 14.97697,-16.48684 a 1.9286794,1.9286794 0 0 1 1.81334,-1.11814 z m 7.82587,4.72006 a 1.9286794,1.9286794 0 0 1 1.851,2.38908 c -0.72826,3.15579 -3.2067,8.02044 -6.54738,13.08831 -3.34069,5.06788 -7.45384,10.13357 -11.81199,12.90106 -8.33322,5.29174 -20.64193,7.41386 -32.73261,4.78248 -11.71886,-2.55046 -23.57143,-6.17607 -33.09851,-6.45053 -10.34054,-0.29789 -20.63468,-3.55703 -26.69426,-9.61661 a 1.9286794,1.9286794 0 1 1 2.72808,-2.727 c 4.96035,4.96034 14.50234,8.21188 24.07703,8.48771 10.38812,0.29927 22.31485,4.03643 33.8077,6.5377 11.12102,2.42035 22.59331,0.33489 29.84527,-4.27021 3.43443,-2.18094 7.48651,-6.95453 10.6594,-11.76786 3.1729,-4.81334 5.55578,-9.87182 6.00823,-11.83244 a 1.9286794,1.9286794 0 0 1 1.90804,-1.52169 z"
       id="path4199"
       inkscape:connector-curvature="0" />
  </g>
</svg>
