<?xml version="1.0" encoding="UTF-8" standalone="no"?>
<!-- Created with Inkscape (http://www.inkscape.org/) -->

<svg
   xmlns:dc="http://purl.org/dc/elements/1.1/"
   xmlns:cc="http://creativecommons.org/ns#"
   xmlns:rdf="http://www.w3.org/1999/02/22-rdf-syntax-ns#"
   xmlns:svg="http://www.w3.org/2000/svg"
   xmlns="http://www.w3.org/2000/svg"
   xmlns:sodipodi="http://sodipodi.sourceforge.net/DTD/sodipodi-0.dtd"
   xmlns:inkscape="http://www.inkscape.org/namespaces/inkscape"
   width="82.892693mm"
   height="82.892693mm"
   viewBox="0 0 293.71426 293.71425"
   id="svg2"
   version="1.1"
   inkscape:version="0.91 r13725"
   sodipodi:docname="whimbrel.svg">
  <defs
     id="defs4" />
  <sodipodi:namedview
     id="base"
     pagecolor="#ffffff"
     bordercolor="#666666"
     borderopacity="1.0"
     inkscape:pageopacity="0.0"
     inkscape:pageshadow="2"
     inkscape:zoom="1.979899"
     inkscape:cx="221.13918"
     inkscape:cy="132.4339"
     inkscape:document-units="px"
     inkscape:current-layer="layer1"
     showgrid="false"
     fit-margin-top="0"
     fit-margin-left="0"
     fit-margin-right="0"
     fit-margin-bottom="0"
     inkscape:window-width="1920"
     inkscape:window-height="1017"
     inkscape:window-x="-8"
     inkscape:window-y="-8"
     inkscape:window-maximized="1" />
  <metadata
     id="metadata7">
    <rdf:RDF>
      <cc:Work
         rdf:about="">
        <dc:format>image/svg+xml</dc:format>
        <dc:type
           rdf:resource="http://purl.org/dc/dcmitype/StillImage" />
        <dc:title />
      </cc:Work>
    </rdf:RDF>
  </metadata>
  <g
     inkscape:label="Layer 1"
     inkscape:groupmode="layer"
     id="layer1"
     transform="translate(-1337.4056,-614.64954)">
    <rect
       style="fill:#829e6d;fill-opacity:1;stroke:#ffffff;stroke-width:8;stroke-linecap:round;stroke-linejoin:round;stroke-miterlimit:4;stroke-dasharray:none;stroke-dashoffset:0;stroke-opacity:0"
       id="rect4387"
       width="285.71426"
       height="285.71426"
       x="1341.4055"
       y="618.64954"
       ry="29.94739"
       inkscape:export-filename="E:\INFO\Ornitho\app\src\main\res\mipmap-mdpi\ornitho_launcher.png"
       inkscape:export-xdpi="14.71"
       inkscape:export-ydpi="14.71" />
    <path
       style="fill:#000000;fill-opacity:1;fill-rule:evenodd;stroke:#000000;stroke-width:0.46291685;stroke-linecap:butt;stroke-linejoin:miter;stroke-miterlimit:4;stroke-dasharray:none;stroke-opacity:1"
       d="m 1536.3814,676.01263 c 12.8464,-0.17044 18.6634,12.22717 18.6634,12.22717 6.3926,2.4248 24.6304,6.38725 33.3978,11.06238 8.7674,4.67514 20.1198,15.31926 18.2416,16.97879 -1.8784,1.65947 -13.1055,-9.54977 -21.7087,-12.87279 -8.6031,-3.32302 -23.6919,-7.95173 -29.8394,-5.9453 -6.1474,2.00647 -12.4883,5.43111 -9.1161,7.81263 3.3723,2.38151 1.3624,6.71861 2.9315,18.17551 1.5691,11.45697 -15.9851,32.50819 -23.9099,39.45947 -7.9245,6.95128 -36.9628,17.68909 -36.9628,17.68909 -1.4808,3.50708 -3.3442,12.38598 -1.9484,15.66502 1.3959,3.27902 -0.4547,3.49199 0.3117,10.59947 0.7663,7.10748 3.3842,30.8499 7.0923,32.34328 2.2684,0.91361 15.3717,3.76601 22.7637,4.88746 4.6608,0.70709 5.3412,2.97069 3.2669,2.90622 -5.3422,-0.16603 -16.7222,-2.63797 -16.7222,-2.63797 0,0 2.0255,1.88117 -3.7752,0.92343 -5.8004,-0.95776 -9.7416,-2.10424 -9.7416,-2.10424 0,0 1.7668,2.02798 -6.0792,1.40295 -7.846,-0.62509 -15.8353,-5.8956 -16.8286,-8.35815 -0.9933,-2.46255 -4.909,2.78983 -6.2316,2.01832 -1.6533,-5.62111 6.9509,-5.15815 6.6155,-8.42017 -0.3353,-3.26209 -1.6869,-26.04279 -3.1327,-33.4762 -1.4459,-7.43342 1.8984,-8.45162 4.4335,-13.19102 -14.4386,-2.9759 -30.8419,-5.02583 -44.0859,-6.08998 -13.244,-1.0641 -42.8247,-3.19952 -53.2662,-2.01919 -10.4416,1.18033 -7.751,-0.765 -4.0532,-2.60843 3.6978,-1.84349 11.1957,-3.49265 3.8166,-2.38846 -7.379,1.10418 -13.1397,1.60418 -4.6955,-1.93451 8.4442,-3.53876 14.283,-4.8528 20.2717,-6.6876 5.9886,-1.83485 21.5168,-10.41187 37.414,-21.93488 15.897,-11.52307 30.7064,-23.21281 42.6745,-29.50556 11.9681,-6.29273 20.7195,-8.98307 29.6911,-11.38967 8.9718,-2.4066 14.8222,-3.21401 19.7437,-9.85898 4.9215,-6.64495 7.9212,-12.55772 20.7677,-12.72809 z m -54.2581,107.30927 -8.5194,0 c 0,0 -1.1937,2.45842 -1.949,5.4742 -0.7552,3.01582 -0.4245,5.81385 -1.3209,9.54585 -0.8965,3.73199 1.4751,32.80495 3.251,35.68081 1.7758,2.87581 4.807,3.94562 4.807,3.94562 0,0 1.1457,-2.1459 6.5465,-1.87038 0.2204,-8.26636 -1.1949,-12.97061 -2.471,-19.64923 -1.2761,-6.67864 -5.2857,-17.78018 -3.9007,-21.30112 1.3849,-3.52088 3.5565,-11.82727 3.5565,-11.82727 z"
       id="path12211"
       inkscape:connector-curvature="0"
       sodipodi:nodetypes="scssssssscssssscscsscsscsssssssssssccsssccssc" />
  </g>
</svg>
