<?xml version="1.0" encoding="UTF-8" standalone="no"?>
<!-- Created with Inkscape (http://www.inkscape.org/) -->

<svg
   xmlns:dc="http://purl.org/dc/elements/1.1/"
   xmlns:cc="http://creativecommons.org/ns#"
   xmlns:rdf="http://www.w3.org/1999/02/22-rdf-syntax-ns#"
   xmlns:svg="http://www.w3.org/2000/svg"
   xmlns="http://www.w3.org/2000/svg"
   xmlns:sodipodi="http://sodipodi.sourceforge.net/DTD/sodipodi-0.dtd"
   xmlns:inkscape="http://www.inkscape.org/namespaces/inkscape"
   width="82.892693mm"
   height="82.892693mm"
   viewBox="0 0 293.71426 293.71425"
   id="svg2"
   version="1.1"
   inkscape:version="0.91 r13725"
   sodipodi:docname="woodpecker.svg">
  <defs
     id="defs4" />
  <sodipodi:namedview
     id="base"
     pagecolor="#ffffff"
     bordercolor="#666666"
     borderopacity="1.0"
     inkscape:pageopacity="0.0"
     inkscape:pageshadow="2"
     inkscape:zoom="1.979899"
     inkscape:cx="171.84418"
     inkscape:cy="153.23377"
     inkscape:document-units="px"
     inkscape:current-layer="layer1"
     showgrid="false"
     fit-margin-top="0"
     fit-margin-left="0"
     fit-margin-right="0"
     fit-margin-bottom="0"
     inkscape:window-width="1920"
     inkscape:window-height="1017"
     inkscape:window-x="-8"
     inkscape:window-y="-8"
     inkscape:window-maximized="1" />
  <metadata
     id="metadata7">
    <rdf:RDF>
      <cc:Work
         rdf:about="">
        <dc:format>image/svg+xml</dc:format>
        <dc:type
           rdf:resource="http://purl.org/dc/dcmitype/StillImage" />
        <dc:title />
      </cc:Work>
    </rdf:RDF>
  </metadata>
  <g
     inkscape:label="Layer 1"
     inkscape:groupmode="layer"
     id="layer1"
     transform="translate(-2639.1112,555.62592)">
    <rect
       inkscape:export-ydpi="14.71"
       inkscape:export-xdpi="14.71"
       inkscape:export-filename="E:\INFO\Ornitho\app\src\main\res\mipmap-mdpi\ornitho_launcher.png"
       ry="29.94739"
       y="-551.62592"
       x="2643.1111"
       height="285.71426"
       width="285.71426"
       id="rect4409"
       style="fill:#829e6d;fill-opacity:1;stroke:#ffffff;stroke-width:8;stroke-linecap:round;stroke-linejoin:round;stroke-miterlimit:4;stroke-dasharray:none;stroke-dashoffset:0;stroke-opacity:0" />
    <path
       style="fill:#000000;fill-opacity:1;fill-rule:evenodd;stroke:#000000;stroke-width:0.89222908;stroke-linecap:round;stroke-linejoin:round;stroke-miterlimit:4;stroke-dasharray:none;stroke-opacity:1"
       d="m 2808.0053,-525.05452 c -5.7472,-0.56403 -26.3664,3.7406 -26.3664,3.7406 -7.0085,1.97134 -15.2067,-5.79303 -29.1493,-3.18904 -13.9428,2.604 -24.9839,14.63432 -35.5506,16.78074 0.5763,4.17353 17.6138,8.66952 24.5695,14.79902 6.9556,6.12949 17.5378,9.47715 20.7292,18.95547 3.1916,9.47833 -5.4574,15.34369 -5.2088,29.84791 0.2484,14.50417 6.2191,35.93552 11.6643,55.52738 5.4452,19.59187 18.0975,43.85364 21.4661,61.63604 1.5708,8.29222 2.9009,14.36239 3.5516,21.65324 0.865,9.69126 5.1335,17.4135 5.1335,17.4135 2.8919,-3.63964 2.9937,-7.05076 3.1491,-13.56711 0.6355,6.40952 1.6417,10.00504 5.4605,14.69876 2.9764,-4.6787 2.8737,-8.42751 2.5395,-15.6562 1.246,7.10939 1.9911,10.52424 5.7328,13.85047 0,0 2.9766,-4.46868 2.9526,-16.96669 -0.024,-12.49801 -8.3128,-37.73765 -7.3731,-52.71359 0.9397,-14.97592 5.2754,-54.23579 12.8717,-47.8028 7.5964,6.43299 15.0782,-30.23977 18.2883,-37.04779 3.21,-6.80803 6.7393,-9.39891 6.7393,-9.39891 0,0 2.6758,5.01205 7.8508,2.31762 -5.9788,-0.66534 -6.0133,-6.21342 -3.9631,-7.75178 9.8973,4.47468 19.0649,7.16589 20.797,4.38049 -2.276,0.50433 -16.8276,-4.79504 -19.6004,-9.20518 -2.7726,-4.41013 -12.4208,-17.05905 -12.279,-21.49974 -6.1716,3.24639 4.8994,14.98593 5.7717,18.43507 0,0 -6.9799,-7.1048 -9.012,-9.98323 -0.7644,3.67591 8.2728,13.0702 8.1515,15.30733 -0.1215,2.23709 -0.996,5.42458 -4.2342,9.03304 -2.7603,3.07587 -7.6582,4.68156 -9.733,4.31257 -4.5085,-0.80183 -14.1588,-13.88615 -8.7467,-13.39858 5.4121,0.48759 1.974,-3.15919 2.1079,-3.68813 0.6424,-2.53695 3.4045,-7.15879 9.9154,-6.98478 -2.5786,-5.45227 -9.311,0.52147 -9.311,0.52147 1.019,-6.4566 2.8129,-14.64004 9.3117,-16.96747 -12.3403,-4.23551 -12.5948,14.63946 -12.5948,14.63946 0,0 -6.1491,1.90052 -6.1168,3.5259 0.032,1.62539 3.4175,2.96963 3.4175,2.96963 l -1.5658,2.49215 c 0,0 -10.6473,-15.32647 -18.0406,-18.21012 -7.3933,-2.88364 -19.4939,-13.15442 -25.4409,-15.36966 -4.0536,-1.50997 0.2064,-4.08775 1.8889,-7.16978 4.0814,-7.47618 32.5597,-17.25259 31.6756,-19.70063 -0.1106,-0.30602 -0.6284,-0.48609 -1.4495,-0.56665 z m -44.1372,2.25194 c 6.2943,0.83742 11.3626,2.75337 8.6312,4.24198 -4.3701,2.38181 -6.4885,0.0535 -9.2841,0.82469 -2.7954,0.77123 -4.3903,6.46241 -7.3408,7.11492 -3.6693,0.81145 -5.1392,1.96599 -6.8355,3.7847 -3.4174,3.6643 -8.2014,9.98822 -11.0708,8.2812 -4.362,-2.59493 -22.4073,-7.25724 -12.5794,-10.63054 9.8279,-3.37328 18.6061,-12.03557 27.2451,-13.63389 3.2396,-0.59936 7.4577,-0.48542 11.2343,0.0169 z m 10.2108,4.62801 c 0.3993,0.0119 0.6881,0.3805 0.8586,1.25707 0.7787,4.00716 -7.8217,7.37623 -10.4834,12.78938 -2.6615,5.41317 -8.8734,4.7427 -7.252,10.29031 1.6215,5.54761 6.1062,3.27266 14.483,6.19666 8.3767,2.92399 33.4056,3.61198 22.7559,6.11173 -10.6499,2.49974 -11.5128,-1.8796 -18.4111,1.8985 -6.8982,3.7781 -15.0404,-1.32531 -19.8213,-5.36395 -4.7811,-4.03864 -19.1424,-13.42696 -11.4259,-13.23573 7.7165,0.19122 16.1716,-10.52918 21.1465,-13.30801 3.8865,-2.17096 6.7233,-6.67868 8.1497,-6.63596 z m 8.1321,7.00265 c 0.8998,0.22183 -2.9465,2.03283 -4.6778,4.23794 -2.1308,2.71397 -5.7615,6.74686 -4.2859,9.26616 1.4755,2.51929 -4.8197,5.86926 -7.3418,5.2842 -2.5224,-0.58507 -4.0543,-3.08282 -3.1063,-4.89639 0.9479,-1.81356 5.7587,-0.32894 8.3348,-4.38823 2.5761,-4.05929 7.0874,-8.96832 9.6118,-9.38869 0.7974,-0.13279 1.2576,-0.16617 1.4652,-0.11499 z"
       id="path13334"
       inkscape:connector-curvature="0" />
  </g>
</svg>
