<?xml version="1.0" encoding="UTF-8" standalone="no"?>
<!-- Created with Inkscape (http://www.inkscape.org/) -->

<svg
   xmlns:dc="http://purl.org/dc/elements/1.1/"
   xmlns:cc="http://creativecommons.org/ns#"
   xmlns:rdf="http://www.w3.org/1999/02/22-rdf-syntax-ns#"
   xmlns:svg="http://www.w3.org/2000/svg"
   xmlns="http://www.w3.org/2000/svg"
   xmlns:sodipodi="http://sodipodi.sourceforge.net/DTD/sodipodi-0.dtd"
   xmlns:inkscape="http://www.inkscape.org/namespaces/inkscape"
   width="82.892693mm"
   height="82.892693mm"
   viewBox="0 0 293.71426 293.71425"
   id="svg2"
   version="1.1"
   inkscape:version="0.91 r13725"
   sodipodi:docname="wren.svg">
  <defs
     id="defs4" />
  <sodipodi:namedview
     id="base"
     pagecolor="#ffffff"
     bordercolor="#666666"
     borderopacity="1.0"
     inkscape:pageopacity="0.0"
     inkscape:pageshadow="2"
     inkscape:zoom="1.979899"
     inkscape:cx="169.34466"
     inkscape:cy="152.87325"
     inkscape:document-units="px"
     inkscape:current-layer="layer1"
     showgrid="false"
     fit-margin-top="0"
     fit-margin-left="0"
     fit-margin-right="0"
     fit-margin-bottom="0"
     inkscape:window-width="1920"
     inkscape:window-height="1017"
     inkscape:window-x="-8"
     inkscape:window-y="-8"
     inkscape:window-maximized="1" />
  <metadata
     id="metadata7">
    <rdf:RDF>
      <cc:Work
         rdf:about="">
        <dc:format>image/svg+xml</dc:format>
        <dc:type
           rdf:resource="http://purl.org/dc/dcmitype/StillImage" />
        <dc:title />
      </cc:Work>
    </rdf:RDF>
  </metadata>
  <g
     inkscape:label="Layer 1"
     inkscape:groupmode="layer"
     id="layer1"
     transform="translate(-2639.1112,-614.64954)">
    <rect
       inkscape:export-ydpi="14.71"
       inkscape:export-xdpi="14.71"
       inkscape:export-filename="E:\INFO\Ornitho\app\src\main\res\mipmap-mdpi\ornitho_launcher.png"
       ry="29.94739"
       y="618.64954"
       x="2643.1111"
       height="285.71426"
       width="285.71426"
       id="rect4417"
       style="fill:#829e6d;fill-opacity:1;stroke:#ffffff;stroke-width:8;stroke-linecap:round;stroke-linejoin:round;stroke-miterlimit:4;stroke-dasharray:none;stroke-dashoffset:0;stroke-opacity:0" />
    <path
       style="fill:#000000;fill-opacity:1;fill-rule:evenodd;stroke:#000000;stroke-width:0.34544185;stroke-linecap:round;stroke-linejoin:round;stroke-miterlimit:4;stroke-dasharray:none;stroke-opacity:1"
       d="m 2893.4189,646.47992 c -8.7652,0.11803 -22.1606,5.8384 -35.4159,7.58083 -13.2553,1.74243 -28.8643,-3.22833 -42.6425,5.31791 -13.7781,8.54625 -20.1257,17.23841 -23.1905,35.397 -2.5373,15.0332 -15.6405,14.59175 -30.2295,24.76386 -7.7419,5.39765 -21.3331,16.69658 -21.3331,16.69658 0,0 -52.0588,-86.1696 -56.5789,-86.7005 -4.5203,-0.53093 -2.9964,3.43546 -5.5533,5.86509 -2.5571,2.42961 -6.8191,-0.61332 -8.7704,5.02712 -1.4203,4.10498 20.3378,36.84807 32.6355,63.52284 4.6006,9.97896 6.2922,20.83798 7.2448,26.52818 3.4988,20.9006 2.9149,17.36824 -1.6705,23.90497 -1.7588,2.50714 -3.7483,8.5303 7.8892,4.9482 2.4642,-0.75853 3.8058,9.16068 12.0601,15.00853 9.2221,6.53347 27.2432,6.74425 30.3597,11.51489 3.1163,4.77043 -2.0305,10.98791 2.1732,16.58324 1.2436,1.65515 9.6278,7.58147 14.7238,12.95546 12.1307,12.79296 19.9583,26.04091 33.2515,35.19258 4.2725,2.94131 14.3803,5.94673 14.3803,5.94673 l -4.1162,-6.45077 15.084,1.45197 -13.3616,-7.62539 2.7015,-7.41819 c 0,0 -7.0721,5.37751 -17.0569,0.82919 -6.0316,-2.7477 -17.5363,-14.01204 -24.6788,-21.99495 -4.6812,-5.23183 -6.8542,-7.8919 -7.7765,-15.19813 -0.9221,-7.30608 4.6018,-9.4545 13.0296,-15.1616 8.428,-5.70716 24.3766,-12.77177 33.6394,-21.32094 5.1494,-4.75276 10.9315,-12.59393 14.3642,-17.98996 1.3607,-2.13881 6.5674,-0.6215 13.2678,3.06378 0.5027,-3.68528 -8.7831,-9.87142 -8.7831,-9.87142 0,0 11.1336,3.20303 15.9915,7.55857 -1.34,-5.19309 -14.0217,-12.64483 -13.5309,-13.39532 5.5261,-8.45033 10.3761,-9.46783 14.4627,-20.06261 4.0867,-10.59477 1e-4,-24.18771 3.3167,-31.98103 3.3172,-7.79335 6.3383,-12.22807 13.3846,-15.51722 7.0463,-3.28903 28.902,2.48748 29.6128,1.65838 -0.7108,-2.36898 -21.4884,-8.54834 -29.2573,-9.94966 -7.7688,-1.40134 -13.9278,2.30795 -17.4124,-2.84248 -1.26,-1.86222 1.8961,-6.7829 8.1732,-12.556 6.2772,-5.7731 29.6122,-15.27973 29.6122,-15.27973 z m -45.433,11.03524 c 8.0368,-0.021 14.1256,0.89888 12.591,2.24335 0.869,0.95146 -21.1375,6.54101 -23.8118,6.01757 -2.6246,-0.51369 -4.49,1.55225 -4.7984,2.47005 -0.3084,0.91779 -7.6539,1.95177 -9.8634,2.99563 -10.0505,4.74836 -24.4577,23.05232 -22.6817,14.30682 1.7759,-8.7455 10.2552,-15.82059 21.1111,-23.03058 5.4279,-3.605 17.832,-4.97774 27.4532,-5.00284 z m -53.7898,49.21805 c 0.061,0.006 0.1037,0.0254 0.1295,0.0587 0.2497,0.32364 -1.1632,1.83688 -3.1561,3.3802 -0.5498,0.42543 -1.1078,0.82466 -1.6315,1.16722 -0.01,0.31189 -0.6043,1.0382 -1.5922,1.94311 l -7e-4,6.9e-4 c 0.039,0.009 0.068,0.0246 0.088,0.0479 0.2508,0.32287 -1.162,1.83635 -3.1556,3.38019 -1.9933,1.5437 -3.8121,2.533 -4.0622,2.20962 -0.1714,-0.21986 0.4352,-1.01235 1.5692,-2.05039 -0.039,-0.008 -0.069,-0.0242 -0.089,-0.0472 -0.2049,-0.26921 0.7347,-1.36991 2.2824,-2.6738 -0.026,-0.009 -0.046,-0.0228 -0.062,-0.0405 -0.2496,-0.32363 1.1634,-1.83687 3.1563,-3.3802 0.9684,-0.74975 1.9447,-1.40468 2.7095,-1.81762 1.7172,-1.31532 3.31,-2.22485 3.8141,-2.1779 z m -4.8119,0.4932 c 0.061,0.006 0.1039,0.0258 0.1295,0.0594 0.2509,0.32286 -1.162,1.83635 -3.1555,3.3802 -1.1503,0.89022 -2.2995,1.63747 -3.0941,2.01193 -0.5889,0.61729 -1.4229,1.35295 -2.3344,2.05916 -1.9933,1.54368 -3.8122,2.53299 -4.0623,2.20961 -0.018,-0.0254 -0.025,-0.0581 -0.024,-0.0978 -0.1965,0.16103 -0.3976,0.32128 -0.6012,0.47903 -1.2036,0.9319 -2.403,1.70491 -3.1981,2.06118 -0.3875,0.33983 -0.8088,0.68633 -1.2434,1.02283 -1.9934,1.54369 -3.8122,2.533 -4.0624,2.20962 -0.2508,-0.32288 1.1621,-1.83636 3.1556,-3.38021 1.2047,-0.93262 2.4049,-1.70578 3.1994,-2.06118 0.3869,-0.33963 0.8077,-0.68613 1.2421,-1.02283 1.9934,-1.54368 3.8121,-2.53299 4.0623,-2.20961 0.018,0.0252 0.026,0.0576 0.025,0.0972 0.1964,-0.16086 0.3975,-0.32088 0.6011,-0.47835 1.1498,-0.89006 2.2989,-1.63751 3.0941,-2.01261 0.5889,-0.61715 1.4226,-1.35253 2.3338,-2.05848 1.756,-1.35997 3.4161,-2.31774 3.9328,-2.26898 z m 8.3898,0.12346 c 0.061,0.006 0.1037,0.0254 0.1296,0.0587 0.183,0.23859 -0.5393,1.14045 -1.8278,2.2818 0.043,0.243 -0.3934,0.83255 -1.1915,1.60981 0.087,-0.003 0.1477,0.0165 0.1815,0.0567 0.2509,0.32287 -1.162,1.83636 -3.1555,3.3802 -1.9934,1.54369 -3.8122,2.53299 -4.0623,2.20961 -0.1459,-0.19196 0.2899,-0.815 1.1678,-1.66986 -0.087,0.002 -0.1478,-0.0168 -0.1815,-0.0574 -0.183,-0.23858 0.5393,-1.14044 1.8278,-2.2818 -0.075,-0.42587 1.3056,-1.86758 3.1791,-3.31881 1.7561,-1.35997 3.4162,-2.31773 3.9328,-2.26898 z m 3.9477,1.60375 c 0.061,0.006 0.1038,0.0258 0.1294,0.0594 0.1713,0.22419 -0.4542,1.03426 -1.6131,2.08884 0,0.003 0.01,0.005 0.01,0.008 0.2509,0.32287 -1.162,1.83636 -3.1556,3.3802 -1.9933,1.54368 -3.8121,2.53299 -4.0623,2.20961 -0.1713,-0.22419 0.4543,-1.03425 1.6132,-2.08884 0,-0.003 -0.01,-0.005 -0.01,-0.008 -0.2509,-0.32287 1.162,-1.83635 3.1556,-3.3802 1.756,-1.35998 3.416,-2.31774 3.9328,-2.26899 z m 4.6883,1.23401 c 0.061,0.006 0.1038,0.0254 0.1296,0.0587 0.2497,0.32364 -1.1633,1.83688 -3.1562,3.38021 -1.9934,1.54368 -3.8121,2.53299 -4.0623,2.20961 -0.2497,-0.32363 1.1632,-1.83687 3.1562,-3.3802 1.7568,-1.36046 3.4171,-2.31811 3.9327,-2.26831 z"
       id="path4262"
       inkscape:connector-curvature="0"
       sodipodi:nodetypes="csssccsccssccssccscccccsscsscccccccccssscscszsssscccccccscccccccccccccccccccccccccccccccccsccccccccccscccccccccscsc" />
  </g>
</svg>
