<?xml version="1.0" encoding="UTF-8" standalone="no"?>
<!-- Created with Inkscape (http://www.inkscape.org/) -->

<svg
   xmlns:dc="http://purl.org/dc/elements/1.1/"
   xmlns:cc="http://creativecommons.org/ns#"
   xmlns:rdf="http://www.w3.org/1999/02/22-rdf-syntax-ns#"
   xmlns:svg="http://www.w3.org/2000/svg"
   xmlns="http://www.w3.org/2000/svg"
   xmlns:sodipodi="http://sodipodi.sourceforge.net/DTD/sodipodi-0.dtd"
   xmlns:inkscape="http://www.inkscape.org/namespaces/inkscape"
   width="82.892693mm"
   height="82.892693mm"
   viewBox="0 0 293.71426 293.71425"
   id="svg2"
   version="1.1"
   inkscape:version="0.91 r13725"
   sodipodi:docname="yellowlegs.svg">
  <defs
     id="defs4" />
  <sodipodi:namedview
     id="base"
     pagecolor="#ffffff"
     bordercolor="#666666"
     borderopacity="1.0"
     inkscape:pageopacity="0.0"
     inkscape:pageshadow="2"
     inkscape:zoom="0.98994949"
     inkscape:cx="115.14551"
     inkscape:cy="137.94625"
     inkscape:document-units="px"
     inkscape:current-layer="layer1"
     showgrid="false"
     fit-margin-top="0"
     fit-margin-left="0"
     fit-margin-right="0"
     fit-margin-bottom="0"
     inkscape:window-width="1920"
     inkscape:window-height="1017"
     inkscape:window-x="-8"
     inkscape:window-y="-8"
     inkscape:window-maximized="1" />
  <metadata
     id="metadata7">
    <rdf:RDF>
      <cc:Work
         rdf:about="">
        <dc:format>image/svg+xml</dc:format>
        <dc:type
           rdf:resource="http://purl.org/dc/dcmitype/StillImage" />
        <dc:title />
      </cc:Work>
    </rdf:RDF>
  </metadata>
  <g
     inkscape:label="Layer 1"
     inkscape:groupmode="layer"
     id="layer1"
     transform="translate(-903.50383,-614.64951)">
    <rect
       inkscape:export-ydpi="14.71"
       inkscape:export-xdpi="14.71"
       inkscape:export-filename="E:\INFO\Ornitho\app\src\main\res\mipmap-mdpi\ornitho_launcher.png"
       ry="29.94739"
       y="618.64954"
       x="907.50372"
       height="285.71426"
       width="285.71426"
       id="rect4377"
       style="fill:#829e6d;fill-opacity:1;stroke:#ffffff;stroke-width:8;stroke-linecap:round;stroke-linejoin:round;stroke-miterlimit:4;stroke-dasharray:none;stroke-dashoffset:0;stroke-opacity:0" />
    <path
       style="fill:#000000;fill-opacity:1;fill-rule:evenodd;stroke:#000000;stroke-width:1;stroke-linecap:round;stroke-linejoin:round;stroke-miterlimit:4;stroke-dasharray:none;stroke-opacity:1"
       d="m 1165.6112,694.91086 c 0.6339,-2.13202 -33.1603,-13.24611 -44.424,-19.46367 -1.8923,-4.6857 -3.8369,-14.48444 -17.1208,-14.9582 -13.284,-0.47375 -15.9191,6.37349 -18.5627,13.60655 -2.6435,7.23306 0.9075,20.52165 3.0638,25.68124 2.1562,5.15959 -17.4247,3.36343 -29.1054,8.3802 -5.8906,2.52992 -40.5677,11.46763 -60.48489,21.14694 -26.70552,12.97827 -33.80196,10.67474 -52.7268,12.44207 -20.70929,1.93397 -7.95822,4.09761 1.18999,3.70995 9.1482,-0.38765 11.36088,0.25895 1.0557,2.52307 -10.30518,2.26412 -12.65433,4.50435 2.93099,4.34712 15.58531,-0.15722 36.897,6.78834 51.05791,11.08614 14.1609,4.29779 20.9779,13.17631 40.2204,9.60815 0,0 -4.3759,10.4998 -9.4295,20.93415 -1.7327,3.57755 -3.6592,10.08795 -4.8291,20.03185 -2.1551,18.3171 -6.2,35.3723 -6.2,35.3723 0,0 -4.6547,1.6312 -4.7449,6.6773 1.1692,-1.1315 3.1064,-2.338 3.2413,-0.913 0.1873,1.9796 -1.5955,7.1106 -0.2986,7.3917 2.2305,0.4835 2.2303,-3.8412 4.956,-4.3253 2.7258,-0.484 1.2705,3.7196 6.1275,3.9649 4.857,0.2452 18.4725,-2.1627 21.8966,-1.3517 0.2703,-4.5055 -14.6699,0.194 -20.8153,-3.0637 -6.1454,-3.2577 -4.7431,-0.9162 -3.487,-12.1728 1.2561,-11.2564 7.0013,-39.7303 7.0013,-39.7303 l 30.9076,32.4394 c 0,0 -0.09,6.1275 2.3428,7.9296 -0.4505,-2.7933 -0.4505,-4.2351 0.3604,-5.857 0.7054,2.5568 5.0156,7.1788 9.9488,10.5367 5.1507,3.5059 10.9236,5.6825 11.2271,5.0522 0.5941,-1.234 -11.8946,-8.0198 -16.2198,-13.5165 0,0 15.3187,12.1649 23.0681,8.6506 2.075,-0.8285 -5.8627,-0.2266 -15.9988,-8.2179 -10.1359,-7.9914 -31.5096,-28.1997 -37.6764,-37.5804 -6.1668,-9.38074 3.5406,-29.34673 5.7934,-32.68078 0,0 26.1357,-3.64014 38.4203,-13.88328 12.2845,-10.24315 27.4961,-32.46608 27.5954,-45.41524 0.099,-12.94915 -6.3322,-19.55019 -9.6636,-23.51861 -3.3314,-3.96841 1.3401,-5.51936 10.3626,-6.12745 9.0225,-0.60809 48.3857,13.39572 49.0196,11.2637 z"
       id="path4760"
       inkscape:connector-curvature="0"
       sodipodi:nodetypes="zczzzssszzzzcssccsszzczzccccssccszczzzzz" />
  </g>
</svg>
