<?xml version="1.0" encoding="UTF-8" standalone="no"?>
<!-- Created with Inkscape (http://www.inkscape.org/) -->

<svg
   xmlns:dc="http://purl.org/dc/elements/1.1/"
   xmlns:cc="http://creativecommons.org/ns#"
   xmlns:rdf="http://www.w3.org/1999/02/22-rdf-syntax-ns#"
   xmlns:svg="http://www.w3.org/2000/svg"
   xmlns="http://www.w3.org/2000/svg"
   xmlns:sodipodi="http://sodipodi.sourceforge.net/DTD/sodipodi-0.dtd"
   xmlns:inkscape="http://www.inkscape.org/namespaces/inkscape"
   width="82.892693mm"
   height="82.892693mm"
   viewBox="0 0 293.71426 293.71425"
   id="svg2"
   version="1.1"
   inkscape:version="0.91 r13725"
   sodipodi:docname="yellowthroat.svg">
  <defs
     id="defs4" />
  <sodipodi:namedview
     id="base"
     pagecolor="#ffffff"
     bordercolor="#666666"
     borderopacity="1.0"
     inkscape:pageopacity="0.0"
     inkscape:pageshadow="2"
     inkscape:zoom="1.979899"
     inkscape:cx="124.91962"
     inkscape:cy="99.18068"
     inkscape:document-units="px"
     inkscape:current-layer="layer1"
     showgrid="false"
     fit-margin-top="0"
     fit-margin-left="0"
     fit-margin-right="0"
     fit-margin-bottom="0"
     inkscape:window-width="1920"
     inkscape:window-height="1017"
     inkscape:window-x="-8"
     inkscape:window-y="-8"
     inkscape:window-maximized="1" />
  <metadata
     id="metadata7">
    <rdf:RDF>
      <cc:Work
         rdf:about="">
        <dc:format>image/svg+xml</dc:format>
        <dc:type
           rdf:resource="http://purl.org/dc/dcmitype/StillImage" />
        <dc:title />
      </cc:Work>
    </rdf:RDF>
  </metadata>
  <g
     inkscape:label="Layer 1"
     inkscape:groupmode="layer"
     id="layer1"
     transform="translate(-2205.2093,555.62592)">
    <rect
       style="fill:#829e6d;fill-opacity:1;stroke:#ffffff;stroke-width:8;stroke-linecap:round;stroke-linejoin:round;stroke-miterlimit:4;stroke-dasharray:none;stroke-dashoffset:0;stroke-opacity:0"
       id="rect4399"
       width="285.71426"
       height="285.71426"
       x="-2494.9236"
       y="-551.62592"
       ry="29.94739"
       inkscape:export-filename="E:\INFO\Ornitho\app\src\main\res\mipmap-mdpi\ornitho_launcher.png"
       inkscape:export-xdpi="14.71"
       inkscape:export-ydpi="14.71"
       transform="scale(-1,1)" />
    <path
       style="fill:#000000;fill-opacity:1;fill-rule:evenodd;stroke:#000000;stroke-width:0.29121161px;stroke-linecap:round;stroke-linejoin:round;stroke-opacity:1"
       d="m 2430.5992,-479.50599 c -11.7997,0.0151 -33.9367,0.93967 -58.2686,6.8247 -27.0502,6.54253 -60.0569,16.50487 -65.4532,18.41061 -5.3963,1.90574 -3.4646,4.11403 -17.7309,0.57388 -14.2664,-3.54014 -29.7056,-4.36168 -46.4898,-10.28738 -15.4393,-5.4509 -5.4382,8.79002 0.6973,11.08025 6.1356,2.29025 16.7127,2.21012 26.2585,7.91277 9.546,5.70266 34.1159,16.20501 42.8713,32.24088 8.7554,16.03587 12.7528,10.78555 22.3568,23.3868 9.604,12.60124 32.7999,34.56431 37.2125,36.77058 -5.148,1.61792 -9.4872,8.67819 -10.2962,13.82613 14.1936,-14.92902 13.1787,-5.99186 28.8287,-4.92759 15.6499,1.06428 29.1958,4.70698 31.9904,5.66302 0.035,-1.03343 -1.6353,-3.15475 -5.5746,-4.66114 -2.7872,-1.06588 -2.3636,-3.61263 -7.7377,-4.16168 -11.5544,-1.18043 -15.0138,0.851 -24.1205,-4.04722 -9.1067,-4.89822 -17.0618,-11.10471 -17.0618,-11.10471 13.3846,1.76501 37.9343,-2.85769 51.8453,-13.13694 13.9109,-10.27926 23.5598,-29.31775 26.6976,-43.75966 3.1378,-14.44192 8.2902,-23.62487 7.2501,-32.77723 3.0681,0.78003 15.8221,-0.13869 15.796,-1.51692 -0.026,-1.37822 -12.2257,-6.95414 -15.0338,-6.64213 -1.1441,-0.62403 0.8052,-19.46684 -21.8176,-19.65906 -0.6923,-0.006 -1.4332,-0.009 -2.2198,-0.008 z m 2.1243,2.15166 c 7.2242,0.0702 12.8324,3.08988 15.8164,7.56467 -7.5699,-0.13309 -19.4151,0.0201 -25.1369,2.01233 -8.7742,3.05503 -13.5223,6.88791 -18.0915,11.87824 -4.5692,4.99034 0.3648,12.3027 7.2001,15.26416 6.8353,2.96146 20.4092,-4.70762 25.4674,-9.37053 3.2339,-2.98118 9.2047,-3.14145 13.0988,-2.8706 -0.3954,6.42575 -1.6378,13.43112 -3.7938,18.26728 -3.629,8.14066 -5.8168,18.10186 -9.9398,28.1588 -4.1229,10.05693 -13.5572,23.45479 -23.9607,30.13414 -10.4035,6.67934 -31.5626,11.4069 -43.4321,11.24293 -11.8694,-0.16397 -23.8416,-16.73162 -33.5961,-27.40574 -9.7547,-10.67413 -3.7122,-19.80439 0.4948,-31.28989 4.2068,-11.4855 24.927,1.12888 49.6351,-8.50827 24.7079,-9.63716 -4.2126,-24.19482 6.7484,-31.87971 10.961,-7.68489 29.6161,-13.29375 39.4899,-13.19781 z"
       id="path4153"
       inkscape:connector-curvature="0"
       sodipodi:nodetypes="ssssssssscczcssscsscccssscsssscsssssssss" />
  </g>
</svg>
